<svg xmlns="http://www.w3.org/2000/svg" width="16" height="12"><g fill="#FFF"><path d="M0 1h2v8H0zM10.991 9.97l4.776-8.06c.56-.956.025-1.644-.695-1.644-.695 0-1.451.459-2.307 1.522.446-.882-.074-1.522-.757-1.522-.67 0-1.401.423-2.22 1.425l.35-.591-.66-1.1c-2.27 1.752-5.11 1.112-6.165 2.9-.83 1.414.161 2.429 1.018 2.755l.484-.81S3.701 4.4 4.331 3.348c.596-1.003 2.792-1.04 4.181-1.728L4.098 9.087h1.324l3.076-5.221C10.892.627 12.008.893 11.4 1.92L7.158 9.087h1.315l3.005-5.1.013-.012C13.934.616 15.087.882 14.467 1.922l-4.443 7.516c-.521.882-.471 2.042.595 2.562l.546-.919c-.435-.205-.36-.81-.174-1.112z"/></g></svg>