<svg xmlns="http://www.w3.org/2000/svg" width="18" height="15"><path fill="#FFF" d="M11.335.187C9.715.81 8.657 2.304 8.781 3.986l.063.623-.623-.063C5.854 4.235 3.799 3.24 1.993 1.495L1.059.623l-.25.623c-.498 1.432-.186 2.927.81 3.923.499.56.374.623-.498.312-.311-.125-.56-.187-.623-.125-.062.062.25 1.308.498 1.744.312.685 1.06 1.308 1.807 1.681l.622.312h-.747c-.747 0-.747 0-.685.311.25.872 1.308 1.744 2.429 2.18l.81.25-.686.435c-1.058.623-2.242.934-3.487.997-.56 0-1.059.062-1.059.124 0 .125 1.62.872 2.491 1.184 2.803.871 6.104.498 8.533-.997 1.743-1.059 3.55-3.114 4.36-5.107.435-1.059.871-3.052.871-3.986 0-.623.062-.685.747-1.432.436-.436.81-.872.935-.997.124-.249.124-.249-.56 0-1.122.374-1.246.374-.748-.249.373-.436.872-1.183.872-1.432 0-.063-.187 0-.436.124-.25.125-.748.312-1.121.436l-.685.25-.623-.437c-.374-.249-.872-.498-1.121-.56-.56-.25-1.62-.25-2.18 0z"/></svg>