<svg xmlns="http://www.w3.org/2000/svg" width="18" height="18"><path fill="#FFF" d="M3 0h12a3 3 0 013 3v12a3 3 0 01-3 3H3a3 3 0 01-3-3V3a3 3 0 013-3zm7.516 4.227C9.465 4.63 8.777 5.6 8.858 6.693l.04.404-.404-.04c-1.536-.203-2.87-.85-4.042-1.981l-.607-.566-.162.404c-.323.93-.12 1.9.526 2.547.323.364.243.404-.323.202-.203-.081-.364-.121-.405-.081-.04.04.162.849.324 1.132.202.445.687.849 1.172 1.092l.404.202h-.485c-.485 0-.485 0-.444.202.161.566.849 1.132 1.576 1.415l.526.161-.445.283c-.687.405-1.455.607-2.264.647-.364 0-.687.04-.687.081 0 .081 1.051.566 1.617.768 1.82.566 3.962.324 5.539-.647 1.132-.687 2.304-2.02 2.83-3.315.282-.687.565-1.98.565-2.587 0-.404.04-.445.486-.93.283-.283.525-.566.606-.647.08-.161.08-.161-.364 0-.728.243-.808.243-.485-.161.243-.283.566-.768.566-.93 0-.04-.121 0-.283.08-.162.082-.485.203-.728.284l-.444.161-.405-.283c-.242-.161-.566-.323-.727-.363-.364-.162-1.051-.162-1.415 0z"/></svg>