<svg xmlns="http://www.w3.org/2000/svg" width="19" height="12"><path fill="#FEFEFE" d="M.52 6.172C.471 8.56 2.115 10.836 4.376 11.58c2.13.715 4.748.18 6.165-1.644 1.035-1.278 1.27-2.982 1.158-4.573-1.824-.017-3.648-.011-5.469-.008-.003.65 0 1.297.003 1.946 1.092.03 2.184.017 3.276.039-.276.944-.903 1.824-1.857 2.165-1.84.81-4.188-.249-4.767-2.18-.699-1.848.445-4.079 2.335-4.616 1.171-.413 2.378.052 3.38.66.508-.475.983-.983 1.45-1.496C8.91.92 7.448.335 5.943.463 2.991.5.408 3.223.52 6.173zM15.25 3.715c-.006.543-.012 1.09-.014 1.633-.546.005-1.09.008-1.633.01v1.628c.543.003 1.09.005 1.633.011.005.543.005 1.087.01 1.633.541 0 1.085-.003 1.628 0 .003-.546.005-1.09.011-1.636l1.633-.008V5.36c-.543-.003-1.09-.006-1.633-.011l-.011-1.633h-1.624z"/></svg>