<svg xmlns="http://www.w3.org/2000/svg" width="18" height="13"><path fill="#FFF" d="M7.142 8.66l4.861-2.512-4.861-2.541V8.66zM9 0c1.125 0 2.211.015 3.26.045 1.047.03 1.816.062 2.304.096l.734.04.17.015c.108.01.185.02.231.03a8.8 8.8 0 00.236.045c.11.02.206.047.287.08.08.034.174.078.28.131.108.054.212.12.312.196a2.382 2.382 0 01.447.452c.064.084.161.28.292.588.13.308.219.646.266 1.015.053.428.095.885.125 1.371s.049.866.055 1.14v1.768c.007.972-.053 1.943-.18 2.914a4.01 4.01 0 01-.251 1c-.12.298-.228.504-.322.617l-.14.171c-.094.1-.191.19-.292.266-.1.077-.204.141-.311.191-.107.05-.201.092-.281.126-.08.033-.176.06-.287.08l-.24.045a6.139 6.139 0 01-.397.045c-1.681.128-3.78.192-6.298.192-1.386-.014-2.59-.036-3.61-.066a78.274 78.274 0 01-2.015-.075l-.492-.04-.361-.04a4.767 4.767 0 01-.548-.101 3.086 3.086 0 01-.512-.21 2.009 2.009 0 01-.723-.599c-.064-.083-.161-.28-.292-.587a3.826 3.826 0 01-.266-1.015 22.143 22.143 0 01-.125-1.371C.026 8.069.007 7.689 0 7.415V5.645c-.007-.971.053-1.942.18-2.913a4.01 4.01 0 01.251-1c.12-.298.228-.504.322-.618l.14-.17c.094-.101.191-.19.292-.267.1-.077.204-.142.311-.196.107-.053.201-.097.281-.13.08-.034.176-.06.287-.08A8.8 8.8 0 002.3.225c.046-.01.123-.02.23-.03L2.703.18C4.383.06 6.482 0 9 0z"/></svg>