<svg xmlns="http://www.w3.org/2000/svg" width="26" height="26"><path fill="#898989" d="M22.387 21.124v-6.63c0-3.57-1.87-5.214-4.42-5.214-2.04 0-2.947 1.133-3.457 1.927V9.563h-3.853c.056 1.077 0 11.56 0 11.56h3.853v-6.46c0-.34 0-.68.113-.963.284-.68.907-1.417 1.984-1.417 1.417 0 1.927 1.077 1.927 2.607v6.177h3.853v.057zM6.633 7.976c1.36 0 2.153-.906 2.153-1.983 0-1.133-.85-1.983-2.153-1.983s-2.154.85-2.154 1.983.794 1.983 2.154 1.983zM8.56 21.124V9.564H4.706v11.56H8.56zM4.333 0h17.334A4.333 4.333 0 0126 4.333v17.334A4.333 4.333 0 0121.667 26H4.333A4.333 4.333 0 010 21.667V4.333A4.333 4.333 0 014.333 0z"/></svg>