<svg xmlns="http://www.w3.org/2000/svg" width="30" height="20"><path fill="#898989" d="M11.903 13.683l8.102-3.969-8.102-4.016v7.985zM15 0c1.875 0 3.686.024 5.432.071C22.18.12 23.46.17 24.274.222l1.222.064.285.024c.178.015.307.031.385.047.078.016.209.04.393.072.184.031.343.074.477.127.134.052.29.121.469.206.178.085.351.188.519.31a3.902 3.902 0 01.745.714c.106.132.268.442.485.928.218.487.366 1.021.444 1.603.09.678.159 1.4.21 2.167.05.767.08 1.368.091 1.802v2.793a31.89 31.89 0 01-.301 4.604 6.069 6.069 0 01-.419 1.579c-.2.47-.38.796-.535.976l-.235.27a3.902 3.902 0 01-.485.42c-.168.122-.34.223-.52.302-.178.08-.334.146-.468.199a2.43 2.43 0 01-.477.127c-.184.031-.318.055-.402.071a10.78 10.78 0 01-.661.071C22.695 19.9 19.196 20 15 20c-2.31-.021-4.316-.056-6.018-.103-1.702-.048-2.82-.087-3.356-.12l-.82-.063-.603-.063a8.338 8.338 0 01-.913-.159 5.308 5.308 0 01-.853-.333 3.347 3.347 0 01-.946-.651 3.08 3.08 0 01-.26-.294c-.106-.132-.268-.442-.485-.928a5.797 5.797 0 01-.444-1.603c-.09-.678-.159-1.4-.21-2.167-.05-.767-.08-1.368-.091-1.802V8.921a31.89 31.89 0 01.301-4.604 6.068 6.068 0 01.419-1.579c.2-.47.38-.796.535-.976l.235-.27c.156-.159.318-.299.485-.42a3.25 3.25 0 01.52-.31c.178-.085.334-.154.468-.206A2.43 2.43 0 013.44.429c.184-.032.315-.056.393-.072A3.92 3.92 0 014.22.31l.285-.024C7.305.096 10.804 0 15 0z"/></svg>