<svg xmlns="http://www.w3.org/2000/svg" width="18" height="18"><path fill="#FAF5E9" d="M15.499 14.624v-4.59c0-2.472-1.295-3.61-3.06-3.61-1.413 0-2.04.785-2.394 1.334V6.621H7.378c.039.745 0 8.003 0 8.003h2.667v-4.472c0-.236 0-.471.079-.667.196-.471.628-.981 1.373-.981.98 0 1.334.745 1.334 1.805v4.276h2.668v.04zM4.592 5.522c.942 0 1.49-.628 1.49-1.373 0-.785-.588-1.373-1.49-1.373s-1.49.588-1.49 1.373.548 1.373 1.49 1.373zm1.334 9.102V6.621H3.258v8.003h2.668zM3 0h12a3 3 0 013 3v12a3 3 0 01-3 3H3a3 3 0 01-3-3V3a3 3 0 013-3z"/></svg>