<svg xmlns="http://www.w3.org/2000/svg" width="24" height="18"><path fill="#898989" d="M15.113.224c-2.159.745-3.57 2.534-3.404 4.547l.083.746-.83-.075C7.805 5.07 5.064 3.877 2.656 1.79L1.412.746l-.332.745C.415 3.206.83 4.995 2.159 6.188c.664.67.498.745-.664.373-.415-.15-.748-.224-.83-.15-.084.075.331 1.566.664 2.088.415.82 1.411 1.566 2.408 2.013l.83.373h-.996c-.997 0-.997 0-.914.373.332 1.043 1.744 2.087 3.239 2.609l1.08.298-.914.522c-1.412.746-2.99 1.118-4.65 1.193-.748 0-1.412.074-1.412.149 0 .15 2.159 1.044 3.322 1.416 3.736 1.044 8.138.597 11.376-1.192 2.325-1.268 4.733-3.728 5.813-6.114.581-1.267 1.162-3.653 1.162-4.771 0-.746.084-.82.997-1.715.581-.522 1.08-1.044 1.246-1.193.166-.298.166-.298-.748 0-1.495.448-1.66.448-.996-.298.498-.522 1.162-1.416 1.162-1.715 0-.074-.249 0-.581.15-.332.149-.996.372-1.495.521l-.913.299-.83-.522C19.015.596 18.351.298 18.02.224c-.748-.299-2.16-.299-2.907 0z"/></svg>