<?xml version="1.0" standalone="no"?>
<!DOCTYPE svg PUBLIC "-//W3C//DTD SVG 20010904//EN"
 "http://www.w3.org/TR/2001/REC-SVG-20010904/DTD/svg10.dtd">
<svg version="1.0" xmlns="http://www.w3.org/2000/svg"
 width="700.000000pt" height="700.000000pt" viewBox="0 0 700.000000 700.000000"
 preserveAspectRatio="xMidYMid meet">
<metadata>
Created by potrace 1.11, written by Peter Selinger 2001-2013
</metadata>
<g transform="translate(0.000000,700.000000) scale(0.100000,-0.100000)"
fill="#000000" stroke="none">
<path d="M641 3510 l0 -2850 259 0 260 0 0 193 c0 105 1 1271 1 2589 l0 2397
259 1 260 0 0 -37 c1 -21 1 -1187 1 -2591 l1 -2552 779 0 779 0 0 2590 0 2589
260 0 259 -1 0 -2511 c0 -1382 1 -2547 1 -2589 l0 -78 780 0 780 0 0 2590 0
2589 259 1 260 0 0 -2552 c0 -1404 0 -2570 1 -2590 l0 -38 260 0 260 0 0 2850
0 2849 -780 0 -780 0 0 -2598 0 -2599 -260 -1 -260 0 0 2599 0 2600 -780 -1
-780 0 0 -2599 0 -2599 -260 0 -260 0 0 2599 0 2600 -780 -1 -779 0 0 -2849z"/>
</g>
</svg>
