<?xml version="1.0" encoding="utf-8"?>
<!-- Generator: Adobe Illustrator 23.1.1, SVG Export Plug-In . SVG Version: 6.00 Build 0)  -->
<svg version="1.1" id="Layer_1" xmlns="http://www.w3.org/2000/svg" xmlns:xlink="http://www.w3.org/1999/xlink" x="0px" y="0px"
	 viewBox="0 0 18 18" style="enable-background:new 0 0 18 18;" xml:space="preserve">
<style type="text/css">
	.st0{fill:#FAF5E9;}
</style>
<path class="st0" d="M15,0H3C1.3,0,0,1.3,0,3v12c0,1.7,1.3,3,3,3h12c1.7,0,3-1.3,3-3V3C18,1.3,16.7,0,15,0z M8.4,13.8
	c-0.3,0.3-0.5,0.6-0.8,0.8c-0.5,0.4-1,0.6-1.7,0.7c0,0,0,0,0,0c-0.1,0-0.2,0-0.4,0c-0.1,0-0.2,0-0.2,0c-0.6-0.1-1.1-0.3-1.5-0.7
	c-0.5-0.4-0.8-1-1-1.7c0-0.1,0-0.2,0-0.3c0-0.1,0-0.3,0-0.4c0-0.1,0-0.2,0-0.3c0.1-0.6,0.4-1.1,0.8-1.5C4.4,9.6,5.2,8.7,6,8
	C6.4,7.6,6.9,7.2,7.4,7C8,6.8,8.6,6.7,9.2,7c0.4,0.1,0.7,0.3,0.9,0.6c0.3,0.3,0.3,0.8,0,1.1c-0.3,0.3-0.8,0.3-1.1,0
	C8.9,8.5,8.8,8.4,8.6,8.4c-0.2-0.1-0.5,0-0.7,0.1C7.6,8.6,7.3,8.8,7.1,9.1c-0.8,0.8-1.6,1.6-2.4,2.4c-0.4,0.4-0.5,0.9-0.3,1.4
	c0.2,0.5,0.6,0.8,1.1,0.9c0.4,0.1,0.8-0.1,1.1-0.4c0.2-0.2,0.4-0.4,0.6-0.6c0.2-0.2,0.5-0.3,0.8-0.2c0.3,0.1,0.5,0.3,0.5,0.6
	C8.6,13.4,8.6,13.6,8.4,13.8z M14.3,8c-0.8,0.8-1.7,1.7-2.5,2.5c-0.4,0.4-0.8,0.7-1.3,0.9c-0.3,0.1-0.6,0.2-0.9,0.2
	c-0.6,0-1.1-0.2-1.5-0.6c-0.1-0.1-0.2-0.2-0.3-0.3c-0.2-0.3-0.1-0.7,0.2-1c0.3-0.2,0.7-0.2,1,0.1c0,0,0.1,0.1,0.1,0.1
	c0.3,0.2,0.6,0.3,0.9,0.1c0.3-0.1,0.6-0.3,0.8-0.5c0.7-0.7,1.5-1.5,2.2-2.2C13,7.1,13.1,7,13.2,6.9c0.6-0.6,0.6-1.5-0.1-2.1
	c-0.2-0.2-0.5-0.3-0.7-0.3c-0.3,0-0.6,0-0.9,0.3c-0.3,0.3-0.5,0.5-0.8,0.8c-0.3,0.3-0.9,0.3-1.2-0.1C9.2,5.2,9.3,4.8,9.5,4.5
	c0.3-0.3,0.6-0.7,1-1C11.2,2.9,12,2.8,13,3c0.8,0.3,1.5,0.8,1.9,1.6c0.2,0.5,0.3,1,0.3,1.5C15.1,6.9,14.8,7.5,14.3,8z"/>
</svg>