<svg xmlns="http://www.w3.org/2000/svg" width="66" height="66" viewBox="0 0 66 66">
  <g fill="none" fill-rule="evenodd" stroke="#333839" stroke-width="2" transform="translate(1 1)">
    <path d="M32.001.887C49.185.887 63.114 14.816 63.113 32 63.114 49.185 49.184 63.115 32 63.113 14.815 63.114.887 49.185.887999516 32.001.885 14.816 14.815.887 32.001.887zM32 1L32 63M63 32L1 32"/>
    <path d="M30 1C30 1 16 12 16 32 16 52 30 63 30 63M34 1C34 1 48 12 48 32 48 52 34 63 34 63"/>
    <path d="M8 12C8 12 13 22 32 22 51 22 56 12 56 12M8 52C8 52 13 42 32 42 51 42 56 52 56 52"/>
  </g>
</svg>
