<svg id="gear-tag" xmlns="http://www.w3.org/2000/svg" xmlns:xlink="http://www.w3.org/1999/xlink" viewBox="0 0 60 62"><style>.st0{clip-path:url(#SVGID_5_)}</style><defs><path id="SVGID_1_" d="M0 0h60v62H0z"/></defs><clipPath id="SVGID_2_"><use xlink:href="#SVGID_1_" overflow="visible"/></clipPath><g><defs><path id="SVGID_3_" d="M0 0h60v62H0z"/></defs><defs><path id="SVGID_4_" d="M33.1 15v4.6l3.1 1 3.1-3.1 4.1 4.1-3.1 3.1 1 3.1H46V34h-4.6l-1 3.1 3.1 3.1-4.1 4.1-3.1-3.1-3.1 1V47H27v-4.6l-3.1-1-3.1 3.1-4.1-4.1 3.1-3.1-1-3.1H14V28h4.6l1-3.1-3.1-3.1 4.1-4.1 3.1 3.1 3.1-1V15h6.3zm-2.7 13.3c-1.7 0-3.1 1.4-3.1 3.1 0 1.7 1.4 3.1 3.1 3.1s3.1-1.4 3.1-3.1c.1-1.7-1.3-3.1-3.1-3.1z"/></defs><use xlink:href="#SVGID_3_" overflow="visible" fill="#4abfac"/><use xlink:href="#SVGID_4_" overflow="visible" fill-rule="evenodd" clip-rule="evenodd" fill="#fff"/><clipPath id="SVGID_5_"><use xlink:href="#SVGID_3_" overflow="visible"/></clipPath><clipPath id="SVGID_6_" class="st0"><use xlink:href="#SVGID_4_" overflow="visible"/></clipPath></g></svg>