<?xml version="1.0" encoding="UTF-8"?>
<svg width="46px" height="64px" viewBox="0 0 46 64" version="1.1" xmlns="http://www.w3.org/2000/svg" xmlns:xlink="http://www.w3.org/1999/xlink">
    <title>icon-reporting</title>
    <g id="Pillar-Pages" stroke="none" stroke-width="1" fill="none" fill-rule="evenodd">
        <g id="Analytics" transform="translate(-722.000000, -3298.000000)" fill="#000000" fill-rule="nonzero">
            <g id="icon-reporting" transform="translate(722.000000, 3298.000000)">
                <path d="M14,64 L0,64 L0,44 L14,44 L14,64 Z M2,62 L12,62 L12,46 L2,46 L2,62 Z" id="Shape"></path>
                <path d="M46,64 L32,64 L32,17 L46,17 L46,64 Z M34,62 L44,62 L44,19 L34,19 L34,62 Z" id="Shape"></path>
                <path d="M30,64 L16,64 L16,31 L30,31 L30,64 Z M18,62 L28,62 L28,33 L18,33 L18,62 Z" id="Shape"></path>
                <g id="Group" transform="translate(4.292943, 0.000000)">
                    <rect id="Rectangle" transform="translate(19.206957, 19.499600) rotate(45.000000) translate(-19.206957, -19.499600) " x="18.2069669" y="-6.6631491" width="1.99998082" height="52.3254982"></rect>
                    <polygon id="Path" points="38.7070573 12 36.7070573 12 36.7070573 2 26.7070573 2 26.7070573 0 37.7070573 0 38.7070573 1"></polygon>
                </g>
            </g>
        </g>
    </g>
</svg>