<?xml version="1.0" encoding="UTF-8"?>
<svg width="64px" height="64px" viewBox="0 0 64 64" version="1.1" xmlns="http://www.w3.org/2000/svg" xmlns:xlink="http://www.w3.org/1999/xlink">
    <title>arrows_expand</title>
    <g id="Pillar-Pages" stroke="none" stroke-width="1" fill="none" fill-rule="evenodd">
        <g id="Brand-Strategy" transform="translate(-723.000000, -3311.000000)" fill="#000000" fill-rule="nonzero">
            <g id="arrows_expand" transform="translate(723.000000, 3311.000000)">
                <polygon id="Path" points="2 3.414 21.293 22.707 22.707 21.293 3.414 2 12 2 12 0 1 0 0 1 0 12 2 12"></polygon>
                <polygon id="Path" points="12 64 12 62 3.414 62 22.707 42.707 21.293 41.293 2 60.586 2 52 0 52 0 63 1 64"></polygon>
                <polygon id="Path" points="62 60.586 42.707 41.293 41.293 42.707 60.586 62 52 62 52 64 63 64 64 63 64 52 62 52"></polygon>
                <polygon id="Path" points="52 0 52 2 60.586 2 41.293 21.293 42.707 22.707 62 3.414 62 12 64 12 64 1 63 0"></polygon>
            </g>
        </g>
    </g>
</svg>