<svg xmlns="http://www.w3.org/2000/svg" viewBox="0 0 64 64"><linearGradient id="a" gradientUnits="userSpaceOnUse" x1="1" y1="32" x2="63" y2="32"><stop offset="0" stop-color="#cc7954"/><stop offset=".999" stop-color="#eeac89"/></linearGradient><path d="M46.2 16.5H14c-7.2 0-13 5.8-13 13 0 7 5.5 12.6 12.4 13l10 18h8.1l-7-18h21.7l16.8 13v-52l-16.8 13zM3 29.5c0-6.1 4.9-11 11-11h21.3v22H14c-6.1 0-11-4.9-11-11zm25.5 29h-3.9l-8.9-16h6.6l6.2 16zm32.5-7l-14.2-11h-9.5v-22h9.5L61 7.6v43.9z" fill="url(#a)"/></svg>