<?xml version="1.0" encoding="UTF-8"?>
<svg width="64px" height="52px" viewBox="0 0 64 52" version="1.1" xmlns="http://www.w3.org/2000/svg" xmlns:xlink="http://www.w3.org/1999/xlink">
    <title>icon-organic</title>
    <g id="Pillar-Pages" stroke="none" stroke-width="1" fill="none" fill-rule="evenodd">
        <g id="Integrated-Marketing" transform="translate(-345.000000, -3316.000000)" fill="#000000" fill-rule="nonzero">
            <g id="icon-organic" transform="translate(345.000000, 3316.000000)">
                <path d="M0,52 L64,52 L64,0 L0,0 L0,52 Z M2,50 L2,10 L62,10 L62,50 L2,50 Z M62,2 L62,8 L2,8 L2,2 L62,2 Z" id="Shape"></path>
                <rect id="Rectangle" x="6" y="4" width="4" height="2"></rect>
                <rect id="Rectangle" x="14" y="4" width="4" height="2"></rect>
                <rect id="Rectangle" x="22" y="4" width="4" height="2"></rect>
                <path d="M36,27 C36,23.14 32.86,20 29,20 C25.14,20 22,23.14 22,27 C22,30.86 25.14,34 29,34 C30.57,34 32.016,33.474 33.185,32.599 L40.293,39.707 L41.707,38.293 L34.599,31.185 C35.474,30.016 36,28.57 36,27 Z M24,27 C24,24.243 26.243,22 29,22 C31.757,22 34,24.243 34,27 C34,29.757 31.757,32 29,32 C26.243,32 24,29.757 24,27 Z" id="Shape"></path>
            </g>
        </g>
    </g>
</svg>