<svg xmlns="http://www.w3.org/2000/svg" viewBox="0 0 64 64"><linearGradient id="a" gradientUnits="userSpaceOnUse" x1="-.001" y1="32" x2="64.001" y2="32"><stop offset="0" stop-color="#cc7954"/><stop offset=".999" stop-color="#eeac89"/></linearGradient><path d="M54.6 9.4C48.6 3.3 40.5 0 32 0 23.5 0 15.4 3.3 9.4 9.4 3.3 15.4 0 23.5 0 32c0 8.5 3.3 16.6 9.4 22.6 6 6 14.1 9.4 22.6 9.4s16.6-3.3 22.6-9.4c6-6 9.4-14.1 9.4-22.6s-3.3-16.6-9.4-22.6zm-1.4 43.8C47.5 58.9 40 62 32 62s-15.5-3.1-21.2-8.8C5.1 47.5 2 40 2 32s3.1-15.5 8.8-21.2C16.5 5.1 24 2 32 2s15.5 3.1 21.2 8.8C58.9 16.5 62 24 62 32s-3.1 15.5-8.8 21.2z" fill="url(#a)"/><linearGradient id="b" gradientUnits="userSpaceOnUse" x1="29" y1="45" x2="31" y2="45"><stop offset="0" stop-color="#cc7954"/><stop offset=".999" stop-color="#eeac89"/></linearGradient><path fill="url(#b)" d="M29 43h2v4h-2z"/><linearGradient id="c" gradientUnits="userSpaceOnUse" x1="23" y1="27" x2="41" y2="27"><stop offset="0" stop-color="#cc7954"/><stop offset=".999" stop-color="#eeac89"/></linearGradient><path d="M32 15c-6 0-9 2-9 6h2c0-1.9.8-4 7-4 4.3 0 7 2.4 7 6 0 2.8-3.9 5.3-5.4 6.1-.2.1-4.6 2.4-4.6 8.9v1h2v-1c0-5.3 3.3-7 3.4-7.1.3-.1 6.6-3.3 6.6-7.9 0-4.7-3.7-8-9-8z" fill="url(#c)"/></svg>