<svg xmlns="http://www.w3.org/2000/svg" viewBox="0 0 143.41 22"><defs><style>.b{fill:#000}</style></defs><path fill="#cc6d4e" d="M20.8.4h-5.67v18.91h-1.89V.4H7.57v18.91h-1.9V.4H0v20.8h1.89V2.29h1.89V21.2h5.68V2.29h1.89V21.2h5.67V2.29h1.89V21.2h1.89V.4z"/><path class="b" d="M30.11.49h3.59v21.02h-3.59zM44 11.12v2.09c-.06-.2-.12-.4-.19-.6L39.6.49h-3.82v21h3.33V9.3 8.01c.08.24.16.5.26.77l4.45 12.72h3.56V.49H44zM54.59.49H49.5v21h5c4.24 0 6.48-2.81 6.48-8.12V8.26C61 3.1 58.85.49 54.59.49zm-1.5 2.87h1.25c2.09 0 3 1.44 3 4.82v5.5c0 4.42-1.7 4.94-3 4.94h-1.25zM70.51 16.39c0 1.58-.71 2.46-2 2.46-1.65 0-2-1.34-2-2.46V.49h-3.58v16.07C62.93 20 65 22 68.51 22s5.55-2.08 5.55-5.44V.49h-3.55zM83.88 10.13l-2.51-1.62a2.86 2.86 0 01-1.57-2.7v-1c0-1.16.61-1.85 1.62-1.85.82 0 1.77.3 1.77 2.6v2.18l3.59-.68V5.29C86.77 1.73 85 0 81.42 0c-3.22 0-5.29 2-5.29 5v1A5.63 5.63 0 0079 11.27l2.45 1.55A3.06 3.06 0 0183.13 16v.75c0 1.46-.57 2.2-1.71 2.2-.46 0-1.85 0-1.85-2.92v-2.37l-3.64.68v1.93c0 3.73 1.94 5.73 5.46 5.73s5.44-1.92 5.44-5.27v-1.1a5.69 5.69 0 00-2.95-5.5zM87.97 3.7h4.01v17.81h3.53V3.7h3.97V.49H87.97V3.7zM111.76 7.17V6c0-3.72-1.86-5.52-5.58-5.52h-5.09v21h3.59v-8.56h1.27l2.65 8.59h3.79l-3.07-9.35c1.6-.82 2.44-2.54 2.44-4.99zm-7.09-3.9H106c1.3 0 2.11.47 2.11 2.8v1.18c0 2.13-.6 3-2.08 3h-1.33zM114.44.49h3.59v21.02h-3.59zM124.11.49l-4.2 21h3.63l1-5.45h3.62l1 5.45h3.63l-4.23-21zm2.18 5.08c0 .36.1.71.17 1.07l1.15 6.53H125l1.15-6.54c.05-.35.1-.7.14-1.06zM138.2 18.21V.49h-3.59v21.02h8.8v-3.3h-5.21z"/></svg>