<?xml version="1.0" encoding="utf-8"?>
<!-- Generator: Adobe Illustrator 23.0.6, SVG Export Plug-In . SVG Version: 6.00 Build 0)  -->
<svg version="1.1" id="Layer_1" xmlns="http://www.w3.org/2000/svg" xmlns:xlink="http://www.w3.org/1999/xlink" x="0px" y="0px"
	 viewBox="0 0 160 182" style="enable-background:new 0 0 160 182;" xml:space="preserve">
<style type="text/css">
	.st0{fill:url(#SVGID_1_);}
	.st1{fill:url(#SVGID_2_);}
	.st2{fill:url(#SVGID_3_);}
	.st3{fill:url(#SVGID_4_);}
	.st4{fill:url(#SVGID_5_);}
	.st5{fill:url(#SVGID_6_);}
	.st6{fill:url(#SVGID_7_);}
	.st7{fill:url(#SVGID_8_);}
	.st8{fill:url(#SVGID_9_);}
	.st9{fill:url(#SVGID_10_);}
	.st10{fill:url(#SVGID_11_);}
	.st11{fill:url(#SVGID_12_);}
	.st12{fill:#262524;}
	.st13{fill:#262524;stroke:#262524;stroke-width:0.5;stroke-miterlimit:10;}
	.st14{fill:#FFFFFF;stroke:#262524;stroke-width:0.5;stroke-miterlimit:10;}
</style>
<g>
	<g>
		<g>
			<linearGradient id="SVGID_1_" gradientUnits="userSpaceOnUse" x1="1.67" y1="91.0678" x2="158" y2="91.0678">
				<stop  offset="0" style="stop-color:#CB7958"/>
				<stop  offset="0.9988" style="stop-color:#EEAD8D"/>
			</linearGradient>
			<path class="st0" d="M79.8,9.8l70.4,40.6v81.2l-70.4,40.6L9.5,131.7V50.4L79.8,9.8 M79.8,0.8l-3.9,2.3L5.6,43.7l-3.9,2.3v4.5
				v81.2v4.5l3.9,2.3l70.4,40.6l3.9,2.3l3.9-2.3l70.4-40.6l3.9-2.3v-4.5V50.4v-4.5l-3.9-2.3L83.7,3.1L79.8,0.8L79.8,0.8z"/>
		</g>
		<g>
			<linearGradient id="SVGID_2_" gradientUnits="userSpaceOnUse" x1="16.0424" y1="91.0678" x2="144.0764" y2="91.0678">
				<stop  offset="0" style="stop-color:#CB7958"/>
				<stop  offset="0.9988" style="stop-color:#EEAD8D"/>
			</linearGradient>
			<path class="st1" d="M80.1,18.9L142.5,55v72.1l-62.5,36.1l-62.5-36.1V55L80.1,18.9 M80.1,17.1l-0.8,0.5L16.8,53.7L16,54.1V55
				v72.1v0.9l0.8,0.5l62.5,36.1l0.8,0.5l0.8-0.5l62.5-36.1l0.8-0.5v-0.9V55v-0.9l-0.8-0.5L80.8,17.6L80.1,17.1L80.1,17.1z"/>
		</g>
	</g>
	<g>
		<g>
			<linearGradient id="SVGID_3_" gradientUnits="userSpaceOnUse" x1="43.0356" y1="95.519" x2="109.3363" y2="95.519">
				<stop  offset="0" style="stop-color:#CB7958"/>
				<stop  offset="0.9988" style="stop-color:#EEAD8D"/>
			</linearGradient>
			<path class="st2" d="M50.4,98.4h-1.9l-0.4,2.5H46l2.1-10.7h2.7l2.1,10.7h-2.1L50.4,98.4z M50.2,96.8l-0.5-3.4
				c-0.1-0.5-0.1-1-0.2-1.5h0c0,0.6-0.1,1-0.2,1.5l-0.5,3.4H50.2z"/>
			<linearGradient id="SVGID_4_" gradientUnits="userSpaceOnUse" x1="43.0356" y1="95.5191" x2="109.3363" y2="95.5191">
				<stop  offset="0" style="stop-color:#CB7958"/>
				<stop  offset="0.9988" style="stop-color:#EEAD8D"/>
			</linearGradient>
			<path class="st3" d="M53.2,98.2v-0.9l2.1-0.4v1.2c0,0.9,0.3,1.4,0.9,1.4c0.6,0,0.8-0.5,0.8-1V98c0-0.7-0.1-1-0.8-1.4l-1.5-0.9
				c-1.1-0.7-1.5-1.5-1.5-2.6v-0.6c0-1.8,1.3-2.6,2.9-2.6c1.8,0,2.9,0.7,2.9,2.7v0.8l-2.1,0.4v-1.1c0-0.7-0.3-1.2-0.9-1.2
				c-0.5,0-0.8,0.4-0.8,0.9v0.5c0,0.6,0.3,1,0.8,1.3l1.5,0.9c1.2,0.7,1.5,1.5,1.5,2.6v0.8c0,1.5-1,2.6-3,2.6
				C54.3,101.1,53.2,100,53.2,98.2z"/>
			<linearGradient id="SVGID_5_" gradientUnits="userSpaceOnUse" x1="43.0356" y1="95.5191" x2="109.3363" y2="95.5191">
				<stop  offset="0" style="stop-color:#CB7958"/>
				<stop  offset="0.9988" style="stop-color:#EEAD8D"/>
			</linearGradient>
			<path class="st4" d="M59.6,98.2v-0.9l2.1-0.4v1.2c0,0.9,0.3,1.4,0.9,1.4c0.6,0,0.8-0.5,0.8-1V98c0-0.7-0.1-1-0.8-1.4l-1.5-0.9
				c-1.1-0.7-1.5-1.5-1.5-2.6v-0.6c0-1.8,1.3-2.6,2.9-2.6c1.8,0,2.9,0.7,2.9,2.7v0.8l-2.1,0.4v-1.1c0-0.7-0.3-1.2-0.9-1.2
				c-0.5,0-0.8,0.4-0.8,0.9v0.5c0,0.6,0.3,1,0.8,1.3l1.5,0.9c1.2,0.7,1.5,1.5,1.5,2.6v0.8c0,1.5-1,2.6-3,2.6
				C60.7,101.1,59.6,100,59.6,98.2z"/>
			<linearGradient id="SVGID_6_" gradientUnits="userSpaceOnUse" x1="43.0356" y1="95.519" x2="109.3363" y2="95.519">
				<stop  offset="0" style="stop-color:#CB7958"/>
				<stop  offset="0.9988" style="stop-color:#EEAD8D"/>
			</linearGradient>
			<path class="st5" d="M71.5,99.3v1.6h-4.9V90.2h4.8v1.6h-2.7v2.8h2.5v1.6h-2.5v3.1H71.5z"/>
			<linearGradient id="SVGID_7_" gradientUnits="userSpaceOnUse" x1="43.0356" y1="95.5191" x2="109.3363" y2="95.5191">
				<stop  offset="0" style="stop-color:#CB7958"/>
				<stop  offset="0.9988" style="stop-color:#EEAD8D"/>
			</linearGradient>
			<path class="st6" d="M71.9,98.2v-0.9l2.1-0.4v1.2c0,0.9,0.3,1.4,0.9,1.4c0.6,0,0.8-0.5,0.8-1V98c0-0.7-0.1-1-0.8-1.4l-1.5-0.9
				C72.4,95,72,94.2,72,93.1v-0.6c0-1.8,1.3-2.6,2.9-2.6c1.8,0,2.9,0.7,2.9,2.7v0.8l-2.1,0.4v-1.1c0-0.7-0.3-1.2-0.9-1.2
				c-0.5,0-0.8,0.4-0.8,0.9v0.5c0,0.6,0.3,1,0.8,1.3l1.5,0.9c1.2,0.7,1.5,1.5,1.5,2.6v0.8c0,1.5-1,2.6-3,2.6
				C73,101.1,71.9,100,71.9,98.2z"/>
			<linearGradient id="SVGID_8_" gradientUnits="userSpaceOnUse" x1="43.0356" y1="95.5191" x2="109.3363" y2="95.5191">
				<stop  offset="0" style="stop-color:#CB7958"/>
				<stop  offset="0.9988" style="stop-color:#EEAD8D"/>
			</linearGradient>
			<path class="st7" d="M78.3,98.2v-0.9l2.1-0.4v1.2c0,0.9,0.3,1.4,0.9,1.4c0.6,0,0.8-0.5,0.8-1V98c0-0.7-0.1-1-0.8-1.4l-1.5-0.9
				c-1.1-0.7-1.5-1.5-1.5-2.6v-0.6c0-1.8,1.3-2.6,2.9-2.6c1.8,0,2.9,0.7,2.9,2.7v0.8l-2.1,0.4v-1.1c0-0.7-0.3-1.2-0.9-1.2
				c-0.5,0-0.8,0.4-0.8,0.9v0.5c0,0.6,0.3,1,0.8,1.3l1.5,0.9c1.2,0.7,1.5,1.5,1.5,2.6v0.8c0,1.5-1,2.6-3,2.6
				C79.4,101.1,78.3,100,78.3,98.2z"/>
			<linearGradient id="SVGID_9_" gradientUnits="userSpaceOnUse" x1="43.0356" y1="95.519" x2="109.3363" y2="95.519">
				<stop  offset="0" style="stop-color:#CB7958"/>
				<stop  offset="0.9988" style="stop-color:#EEAD8D"/>
			</linearGradient>
			<path class="st8" d="M85.2,90.2H88l0.9,5.6c0.1,0.6,0.2,1.2,0.2,1.6h0.1c0-0.4,0.1-1,0.2-1.6l0.9-5.6h2.8v10.7h-1.8v-5.4
				c0-0.9,0-2.1,0-2.9h-0.1c-0.1,0.5-0.1,0.9-0.2,1.6l-1.1,6.7h-1.5l-1.1-6.7c-0.1-0.7-0.2-1.3-0.2-1.6h-0.1c0,0.9,0,2.1,0,2.9v5.4
				h-1.8V90.2z"/>
			<linearGradient id="SVGID_10_" gradientUnits="userSpaceOnUse" x1="43.0356" y1="95.519" x2="109.3363" y2="95.519">
				<stop  offset="0" style="stop-color:#CB7958"/>
				<stop  offset="0.9988" style="stop-color:#EEAD8D"/>
			</linearGradient>
			<path class="st9" d="M99.4,99.3v1.6h-4.9V90.2h4.8v1.6h-2.7v2.8h2.5v1.6h-2.5v3.1H99.4z"/>
			<linearGradient id="SVGID_11_" gradientUnits="userSpaceOnUse" x1="43.0356" y1="95.519" x2="109.3363" y2="95.519">
				<stop  offset="0" style="stop-color:#CB7958"/>
				<stop  offset="0.9988" style="stop-color:#EEAD8D"/>
			</linearGradient>
			<path class="st10" d="M100.4,90.2h2.2l1.8,5.2c0.2,0.5,0.3,1.1,0.4,1.6h0c0-0.8-0.1-1.6-0.1-2.4v-4.4h1.8v10.7h-2l-1.9-5.6
				c-0.2-0.6-0.3-1.1-0.5-1.7h0c0,0.7,0.1,1.4,0.1,2.1v5.3h-1.8V90.2z"/>
			<linearGradient id="SVGID_12_" gradientUnits="userSpaceOnUse" x1="43.0356" y1="95.519" x2="109.3363" y2="95.519">
				<stop  offset="0" style="stop-color:#CB7958"/>
				<stop  offset="0.9988" style="stop-color:#EEAD8D"/>
			</linearGradient>
			<path class="st11" d="M113.3,91.9h-2v8.9h-2v-8.9h-2v-1.8h6.1V91.9z"/>
		</g>
	</g>
	<g>
		<path class="st12" d="M53.6,50.1H56l0.8,4.8c0.1,0.5,0.1,1,0.2,1.4H57c0-0.4,0.1-0.9,0.1-1.4l0.8-4.8h2.4v9.3h-1.5v-4.7
			c0-0.7,0-1.8,0-2.5h-0.1c-0.1,0.4-0.1,0.8-0.2,1.4l-1,5.8h-1.3l-1-5.8c-0.1-0.6-0.2-1.1-0.2-1.4h-0.1c0,0.7,0,1.8,0,2.5v4.7h-1.5
			V50.1z"/>
		<path class="st12" d="M64.9,57.2h-1.7l-0.3,2.2h-1.8l1.8-9.3h2.3l1.8,9.3h-1.8L64.9,57.2z M64.7,55.9l-0.5-2.9
			c-0.1-0.4-0.1-0.8-0.2-1.3h0c0,0.5-0.1,0.9-0.2,1.3l-0.5,2.9H64.7z"/>
		<path class="st12" d="M70.3,55.6h-0.6v3.8h-1.8v-9.3h2.4c1.9,0,2.7,0.9,2.7,2.5V53c0,1.1-0.4,1.8-1.1,2.2l1.3,4.2h-1.9L70.3,55.6z
			 M70.2,54.4c0.7,0,0.9-0.4,0.9-1.3v-0.6c0-0.9-0.3-1.2-0.9-1.2h-0.5v3.1H70.2z"/>
		<path class="st12" d="M76.4,55.2l-0.7,1.4v2.7H74v-9.3h1.8v4.4l1.8-4.4h1.8l-1.6,3.6l1.7,5.7h-1.9L76.4,55.2z"/>
		<path class="st12" d="M84.5,58v1.4h-4.3v-9.3h4.2v1.4H82v2.4h2.2v1.4H82V58H84.5z"/>
		<path class="st12" d="M90.2,51.6h-1.7v7.8h-1.8v-7.8h-1.7v-1.5h5.3V51.6z"/>
		<path class="st12" d="M90.9,59.4v-9.3h1.8v9.3H90.9z"/>
		<path class="st12" d="M94,50.1h1.9l1.5,4.5c0.1,0.5,0.3,0.9,0.4,1.4h0c0-0.7-0.1-1.4-0.1-2.1v-3.9h1.6v9.3h-1.7l-1.7-4.9
			c-0.2-0.6-0.3-1-0.4-1.5h0c0,0.6,0.1,1.2,0.1,1.8v4.6H94V50.1z"/>
		<path class="st12" d="M100.4,56.6v-3.7c0-2,1-3.1,2.7-3.1c1.7,0,2.6,0.9,2.6,2.4V53l-1.8,0.3v-1c0-0.7-0.2-1.1-0.8-1.1
			c-0.6,0-0.9,0.5-0.9,1.5v4.1c0,0.9,0.3,1.5,0.9,1.5c0.6,0,0.9-0.6,0.9-1.3v-1.2h-1v-1.4h2.7v5.1h-1.3l-0.1-1.3
			c-0.2,0.9-0.8,1.5-1.8,1.5C101.1,59.6,100.4,58.5,100.4,56.6z"/>
	</g>
	<g>
		<path class="st12" d="M34.7,76.2h-1.3v7.7h-3.6V65h5c3.9,0,5.4,1.9,5.4,5.1v0.9c0,2.2-0.8,3.7-2.2,4.4l2.6,8.6h-3.8L34.7,76.2z
			 M34.5,73.8c1.4,0,1.9-0.9,1.9-2.7v-1.2c0-1.7-0.5-2.4-1.9-2.4h-1.1v6.3H34.5z"/>
		<path class="st12" d="M50.9,81v2.9h-8.7V65h8.5v2.9h-4.9v4.9h4.5v2.9h-4.5V81H50.9z"/>
		<path class="st12" d="M59.4,79.5h-3.4l-0.7,4.4h-3.6L55.4,65h4.8l3.6,18.9h-3.6L59.4,79.5z M59,76.8l-0.9-6
			c-0.1-0.9-0.2-1.7-0.3-2.7h-0.1c-0.1,1-0.2,1.8-0.3,2.7l-0.9,6H59z"/>
		<path class="st12" d="M65.4,65h4.9c3.9,0,6,2.3,6,6.5v5.6c0,4.5-2.1,6.8-6,6.8h-4.9V65z M70.2,81.2c1.6,0,2.4-1.4,2.4-3.8v-6
			c0-2.5-0.7-3.7-2.4-3.7h-1.1v13.5H70.2z"/>
		<path class="st12" d="M78.5,83.9V65h3.6v18.9H78.5z"/>
		<path class="st12" d="M84.8,65h3.9l3.1,9.2c0.3,0.9,0.6,1.9,0.8,2.8h0.1c-0.1-1.4-0.1-2.8-0.1-4.2V65h3.2v18.9h-3.5l-3.4-10
			c-0.4-1.1-0.6-2-0.8-3h-0.1c0.1,1.2,0.1,2.4,0.1,3.7v9.3h-3.2V65z"/>
		<path class="st12" d="M107,81v2.9h-8.7V65h8.5v2.9H102v4.9h4.5v2.9H102V81H107z"/>
		<path class="st12" d="M107.8,79.2v-1.5l3.7-0.7v2.2c0,1.5,0.5,2.4,1.6,2.4c1,0,1.5-0.8,1.5-1.8v-0.8c0-1.2-0.2-1.8-1.4-2.5
			l-2.6-1.7c-1.9-1.2-2.6-2.6-2.6-4.6v-1c0-3.1,2.3-4.6,5.1-4.6c3.2,0,5.2,1.3,5.2,4.9v1.4l-3.6,0.7v-2c0-1.3-0.4-2.1-1.5-2.1
			c-0.9,0-1.4,0.7-1.4,1.6v0.9c0,1,0.5,1.7,1.3,2.2l2.7,1.7c2.1,1.3,2.6,2.6,2.6,4.6v1.4c0,2.7-1.8,4.6-5.2,4.6
			C109.7,84.3,107.8,82.3,107.8,79.2z"/>
		<path class="st12" d="M119.1,79.2v-1.5l3.7-0.7v2.2c0,1.5,0.5,2.4,1.6,2.4c1,0,1.5-0.8,1.5-1.8v-0.8c0-1.2-0.2-1.8-1.4-2.5
			l-2.6-1.7c-1.9-1.2-2.6-2.6-2.6-4.6v-1c0-3.1,2.3-4.6,5.1-4.6c3.2,0,5.2,1.3,5.2,4.9v1.4l-3.6,0.7v-2c0-1.3-0.4-2.1-1.5-2.1
			c-0.9,0-1.4,0.7-1.4,1.6v0.9c0,1,0.5,1.7,1.3,2.2l2.7,1.7c2.1,1.3,2.6,2.6,2.6,4.6v1.4c0,2.7-1.8,4.6-5.2,4.6
			C121,84.3,119.1,82.3,119.1,79.2z"/>
	</g>
	<g>
		<g>
			<path class="st13" d="M68.5,140.7h16.9v-24.2H68.5v2h-1.2v0.8h1.2v2.4h-1.2v0.8h1.2v2.4h-1.2v0.8h1.2v2.4h-1.2v0.8h1.2v2.4h-1.2
				v0.8h1.2v2.4h-1.2v0.8h1.2v2.4h-1.2v0.8h1.2V140.7z M84.6,139.9h-3.2v-22.6h3.2V139.9z M69.3,135.4h1.2v-0.8h-1.2v-2.4h1.2v-0.8
				h-1.2V129h1.2v-0.8h-1.2v-2.4h1.2V125h-1.2v-2.4h1.2v-0.8h-1.2v-2.4h1.2v-0.8h-1.2v-1.2h11.3v22.6H69.3v-1.2h1.2v-0.8h-1.2V135.4
				z"/>
			<path class="st13" d="M89.1,137.6l2,4l2-4v-21.9h-4V137.6z M91.1,139.8l-1.2-2.4v-16.9h2.4v16.9L91.1,139.8z M92.3,116.5v3.2
				h-2.4v-3.2H92.3z"/>
		</g>
		<line class="st14" x1="52.4" y1="128.6" x2="62.8" y2="128.6"/>
		<line class="st14" x1="98.1" y1="128.6" x2="108.5" y2="128.6"/>
	</g>
</g>
</svg>
