<svg height="222" viewBox="0 0 480 222" width="480" xmlns="http://www.w3.org/2000/svg" xmlns:xlink="http://www.w3.org/1999/xlink"><mask id="a" fill="#fff"><path d="m.243.515h28.463v28.382h-28.463z" fill="#fff" fill-rule="evenodd"/></mask><mask id="b" fill="#fff"><path d="m.409.505h28.462v28.38h-28.462z" fill="#fff" fill-rule="evenodd"/></mask><mask id="c" fill="#fff"><path d="m14.1804423.35580769c-7.8656923.20523077-14.07615384 6.74807693-13.87092307 14.61321151.20523077 7.8656923 6.74751923 14.0755962 14.61321157 13.8703654 7.8651346-.2046731 14.0755961-6.7469615 13.870923-14.6126538-.2024423-7.73965388-6.5395-13.87594234-14.2356538-13.87594234-.1254808 0-.2515192.00167308-.3775577.00501923" fill="#fff" fill-rule="evenodd"/></mask><mask id="d" fill="#fff"><path d="m.558.455h28.854v28.448h-28.854z" fill="#fff" fill-rule="evenodd"/></mask><g fill="none" fill-rule="evenodd"><path d="m477 120.987-7.838-8.494-7.814-8.466-.025-.027v.027h-115.323v33.973h115.348v-.053l7.814-8.467z" fill="#898989"/><path d="m361 120.987-7.838-8.494-7.814-8.466-.025-.027v.027h-115.323v33.973h115.348v-.053l7.814-8.467z" fill="#a3a3a3"/><path d="m245 120.987-7.838-8.494-7.814-8.466-.025-.027v.027h-115.323v33.973h115.348v-.053l7.814-8.467z" fill="#b6b7b9"/><path d="m115.323 104.027h-115.323v33.973h115.348v-.053l7.814-8.467 7.838-8.493-7.838-8.493-7.814-8.467h-.001l-.024-.027z" fill="#d2d3d5"/><g transform="translate(30)"><path d="m53.5657869 78.5654768c.2050105 7.8346225-5.9987852 14.3510687-13.8560351 14.5554888-7.8566929.2038646-14.3925165-5.9815099-14.5969699-13.8161324-.2050105-7.834067 5.9987853-14.3510687 13.8554781-14.5554888 7.8572499-.2038646 14.3925164 5.9815099 14.5975269 13.8161324" fill="#dea789"/><path d="m33.044181 164.136342c.2050105 7.834622-5.9987852 14.351068-13.8560351 14.555488-7.8566929.203865-14.39251646-5.980954-14.59696986-13.815577-.20501049-7.834622 5.99822816-14.351624 13.85547806-14.555488 7.8572499-.203865 14.3925164 5.980954 14.5975269 13.815577" fill="#dfaa8b"/><path d="m28.8127204 203.201745c.2050105 7.834622-5.9987852 14.351068-13.8560352 14.554933-7.85669279.20442-14.39251638-5.980954-14.59696978-13.815577-.20501049-7.834067 5.99822815-14.351069 13.85547808-14.555489 7.8572499-.203864 14.3925164 5.98151 14.5975269 13.816133" fill="#e1aa8c"/><path d="m80.357427 43.8281138c.2050105 7.8346225-5.9987853 14.3510686-13.8560352 14.5554887-7.8566928.2038647-14.3925164-5.9815098-14.5969698-13.8161323-.2050105-7.8340671 5.9987852-14.3510687 13.8554781-14.5554888 7.8572499-.2038646 14.3925164 5.9815098 14.5975269 13.8161324" fill="#dba486"/><path d="m117.488225 21.0400499c.205011 7.8346225-5.998785 14.3510686-13.855478 14.5554887-7.8572498.2038647-14.3925163-5.9815098-14.5975267-13.8155769-.2044534-7.8346225 5.9987852-14.35106864 13.8554777-14.55548874 7.85725-.2044201 14.393074 5.98095434 14.597527 13.81557694" fill="#d9a182"/><path d="m28.7011902 14.3361816c.2050105 7.8346225-5.9987852 14.3510686-13.855478 14.5554887-7.85724995.2038647-14.39307355-5.9815098-14.59752694-13.8161323-.2044534-7.83406707 5.99878524-14.35106872 13.85547804-14.55548882 7.8572499-.20386461 14.3925164 5.98150987 14.5975269 13.81613242" fill="#d59d7e" mask="url(#a)" transform="translate(129.83)"/><path d="m201.038691 25.0326299c.205011 7.8346225-5.998785 14.3510687-13.856035 14.5554888-7.856693.2038646-14.392516-5.9815099-14.59697-13.8161324-.20501-7.834067 5.998228-14.3510687 13.855478-14.5554888 7.85725-.2038646 14.392517 5.9815099 14.597527 13.8161324" fill="#d3987a"/><path d="m234.619632 49.4210033c.204454 7.8346225-5.998785 14.3510686-13.855478 14.5554887-7.85725.2038646-14.393073-5.9815098-14.597527-13.8155769-.20501-7.8346225 5.998229-14.3510686 13.855479-14.5554887 7.857249-.2044201 14.393073 5.9809543 14.597526 13.8155769" fill="#d19475"/><path d="m261.204535 81.0450704c.20501 7.8346225-5.998785 14.3510687-13.855478 14.5554888-7.85725.2038646-14.392516-5.9815099-14.597527-13.8155769-.204453-7.8346225 5.998228-14.3516242 13.856035-14.5554888 7.856693-.2044201 14.392517 5.9809544 14.59697 13.8155769" fill="#cf9273"/><path d="m291.338737 164.136342c.204454 7.834622-5.998785 14.351624-13.855478 14.555488-7.857807.203865-14.392516-5.980954-14.597527-13.815577-.204453-7.834622 5.998229-14.351068 13.855479-14.555488 7.857249-.203865 14.393073 5.980954 14.597526 13.815577" fill="#cc8f70"/><path d="m323.713292 194.000396c.204454 7.834623-5.998785 14.351069-13.855478 14.555489-7.857807.203865-14.392516-5.980954-14.597527-13.816132-.204453-7.834067 5.998228-14.351069 13.855478-14.554934 7.85725-.20442 14.393074 5.980955 14.597527 13.815577" fill="#ca8b6c"/><path d="m28.8660343 14.3250718c.2050105 7.8346225-5.9987853 14.3510687-13.8554781 14.5554888-7.85724992.2038646-14.39251642-5.9809544-14.59696982-13.8155769-.20501049-7.83462255 5.99822815-14.35162421 13.85547812-14.55548882 7.8566928-.2044201 14.3925164 5.98095438 14.5969698 13.81557692" fill="#c88769" mask="url(#b)" transform="translate(337.07 192.2)"/></g><path d="m14.1804423.35580769c-7.8656923.20523077-14.07615384 6.74807693-13.87092307 14.61321151.20523077 7.8656923 6.74751923 14.0755962 14.61321157 13.8703654 7.8651346-.2046731 14.0755961-6.7469615 13.870923-14.6126538-.2024423-7.73965388-6.5395-13.87594234-14.2356538-13.87594234-.1254808 0-.2515192.00167308-.3775577.00501923" mask="url(#c)" transform="translate(409 185)"/><g transform="translate(409 166)"><path d="m29.4065936 14.3082227c.2072585 7.8533637-6.0810888 14.3853978-14.0455757 14.5903068-7.96561649.2043523-14.59054711-5.9952613-14.79780561-13.8491818-.20782325-7.85280679 6.08052408-14.3853977 14.04557581-14.58974997 7.9644869-.20490909 14.5899823 5.99526136 14.7978055 13.84862497" fill="#c17f5f" mask="url(#d)" transform="translate(40.096)"/><path d="m29.1573187 34.2498307c.2072585 7.8533636-6.0816536 14.3853977-14.0461405 14.58975-7.96505173.2049091-14.58998235-5.9952614-14.79724086-13.848625-.20782324-7.8528068 6.08052408-14.3853977 14.04557576-14.5903068 7.964487-.2043523 14.5899823 5.9958181 14.7978056 13.8491818" fill="#c48365"/></g></g></svg>