<svg xmlns="http://www.w3.org/2000/svg" xmlns:xlink="http://www.w3.org/1999/xlink" width="448" height="332" viewBox="0 0 448 332">
  <defs>
    <polygon id="workforce-image-2-a" points="0 0 90 0 90 89.388 0 89.388"/>
  </defs>
  <g fill="none" fill-rule="evenodd">
    <path fill="#CB7958" fill-opacity=".85" d="M51.8560011 25.9134187C52.2289335 40.2516696 40.9255011 52.1794965 26.6083552 52.5529947 12.2912093 52.9271113.382070463 41.6059099.00913807829 27.2664223-.364411744 12.927553 10.9396381 1.0009629 25.256784.62684629 39.5739299.253348057 51.4830687 11.5745495 51.8560011 25.9134187M108.805308 67.5341078C109.17824 81.8723587 97.8741902 93.8001855 83.5570443 94.1736837 69.2398984 94.5478004 57.331377 83.2265989 56.9578272 68.8871113 56.5848948 54.5488604 67.8883272 42.6216519 82.2060906 42.2475353 96.5232365 41.8740371 108.432375 53.1952385 108.805308 67.5341078M167.124523 101.27114C167.497456 115.60939 156.193406 127.537217 141.87626 127.910716 127.559114 128.284832 115.650593 116.963012 115.277043 102.624143 114.90411 88.2852739 126.207543 76.3586837 140.525306 75.9845671 154.842452 75.6110689 166.751591 86.9322703 167.124523 101.27114M228.793215 121.311546C229.166148 135.649797 217.862098 147.577624 203.544952 147.951122 189.227806 148.325239 177.319285 137.004037 176.945735 122.664549 176.572802 108.326299 187.876235 96.3990901 202.193998 96.0249735 216.511144 95.6514753 228.420283 106.972677 228.793215 121.311546M287.864038 136.471431C288.23697 150.809682 276.933538 162.737509 262.616392 163.111007 248.299246 163.485124 236.390107 152.163922 236.017175 137.824435 235.643625 123.485565 246.947675 111.558975 261.264821 111.184859 275.581967 110.81136 287.491105 122.132562 287.864038 136.471431M346.839034 147.922182C347.211966 162.260433 335.907917 174.18826 321.590771 174.561758 307.273625 174.935875 295.364486 163.614055 294.991554 149.275186 294.618621 134.936316 305.922054 123.009726 320.239199 122.63561 334.556345 122.262111 346.466102 133.583313 346.839034 147.922182"/>
    <path fill="#00B2A4" fill-opacity=".85" d="M51.8468296 160.612822C51.4739632 146.338353 39.5669307 135.068 25.252317 135.43982 10.9377032 135.812257-.364347292 147.68528.00913646209 161.959748.382002888 176.234832 12.2890354 187.505186 26.6036491 187.132749 40.9182628 186.760929 52.219696 174.886674 51.8468296 160.612822M108.313129 117.643644C107.940262 103.369176 96.0332296 92.0988218 81.7186159 92.4706425 67.4033848 92.8430788 56.1019516 104.716718 56.4748181 118.99057 56.8483018 133.265654 68.754717 144.536008 83.0693307 144.163572 97.3839444 143.791751 108.685995 131.918112 108.313129 117.643644M164.788132 81.0745222C164.415265 66.8006696 152.508233 55.5303159 138.193619 55.9021366 123.879005 56.2745729 112.576955 68.1475963 112.950439 82.4220645 113.323305 96.6965327 125.230338 107.966886 139.544951 107.59445 153.859565 107.222629 165.160998 95.3489904 164.788132 81.0745222M225.320095 57.9481355C224.947228 43.6736673 213.040196 32.4033136 198.725582 32.7751343 184.410351 33.1475706 173.108918 45.0212096 173.481784 59.2950622 173.855268 73.570146 185.761683 84.8404997 200.076297 84.4680634 214.39091 84.0962427 225.692961 72.2226037 225.320095 57.9481355M283.512012 39.8090712C283.139145 25.534603 271.232113 14.2642492 256.917499 14.63607 242.602886 15.0085063 231.300835 26.8815297 231.673701 41.1559979 232.047185 55.430466 243.9536 66.7014354 258.268214 66.3289991 272.583445 65.9571783 283.884878 54.0829237 283.512012 39.8090712M341.800479 25.3617433C341.427613 11.0872752 329.520581-.183078611 315.205967.188742105 300.891353.561178419 289.589303 12.4348174 289.962786 26.70867 290.335653 40.9837538 302.242068 52.2541075 316.557299 51.8816712 330.871913 51.5098505 342.173346 39.6362115 341.800479 25.3617433" transform="translate(5 144)"/>
    <g transform="translate(358 116)">
      <mask id="workforce-image-2-b" fill="#fff">
        <use xlink:href="#workforce-image-2-a"/>
      </mask>
      <path fill="#D0D3D3" d="M89.9849589,43.5288367 C90.6322192,68.2047551 71.0165342,88.7290408 46.1728356,89.3725102 C21.3285205,90.0153673 0.663041096,70.5331224 0.0157808219,45.8584286 C-0.63209589,21.1831224 18.9829726,0.65822449 43.8272877,0.0153673469 C68.6722192,-0.628102041 89.3370822,18.8535306 89.9849589,43.5288367" mask="url(#workforce-image-2-b)"/>
    </g>
  </g>
</svg>
