<svg height="398" viewBox="0 0 398 398" width="398" xmlns="http://www.w3.org/2000/svg"><g fill="none" fill-rule="evenodd"><path d="m0 190.499988c0-54.952342 44.5476758-99.499988 99.5000245-99.499988 26.3890365 0 51.6972465 10.482996 70.3571135 29.142858 18.659866 18.659888 29.142862 43.968095 29.142862 70.35713 0 54.952342-44.547626 99.500012-99.4999755 99.500012-54.9523487 0-99.5000245-44.54767-99.5000245-99.500012z" fill="#c2c5c6" fill-opacity=".661"/><path d="m99 298.500025c0-54.952349 44.547676-99.500025 99.500025-99.500025 26.389036 0 51.697246 10.482997 70.357113 29.142886 18.659866 18.659866 29.142862 43.968075 29.142862 70.357139 0 54.952348-44.547626 99.499975-99.499975 99.499975-54.952349 0-99.500025-44.547626-99.500025-99.499975z" fill="#7f7f7f" fill-opacity=".754"/><path d="m199 190.499988c0-54.952342 44.547676-99.499988 99.500025-99.499988 26.389036 0 51.697246 10.482996 70.357113 29.142858 18.659866 18.659888 29.142862 43.968095 29.142862 70.35713 0 54.952342-44.547676 99.500012-99.499975 99.500012-54.952349 0-99.500025-44.54767-99.500025-99.500012z" fill="#713116" fill-opacity=".646"/><path d="m99 99.4613782c.0213638-54.9523217 44.586286-99.48270056 99.538617-99.4613782 26.389027.0102472 51.693188 10.5030824 70.345811 29.1701892 18.652626 18.6671067 29.125791 43.9793882 29.115572 70.3684163-.02136 54.9523345-44.586282 99.4827115-99.538612 99.4613945-54.952331-.021335-99.482681-44.586285-99.461388-99.5386194z" fill="#cb7958" fill-opacity=".669"/><path d="m183.797143 78v-6.528h1.416c1.52 0 2.688-.408 3.504-1.224s1.224-1.984 1.224-3.504v-1.416c-.016-1.44-.424-2.528-1.224-3.264s-1.992-1.104-3.576-1.104h-4.68v17.04zm1.008-8.88h-1.008v-5.856h1.008c.592 0 1.024.172 1.296.516s.408.9.408 1.668v1.248c0 .848-.136 1.464-.408 1.848s-.704.576-1.296.576zm7.563428 8.88.624-3.984h3.096l.624 3.984h3.336l-3.312-17.04h-4.368l-3.336 17.04zm3.36-6.408h-2.376l.84-5.376c.176-1.184.28-1.992.312-2.424h.072c.08.704.184 1.512.312 2.424zm8.739429 6.408v-17.04h-3.336v17.04zm6.507429 0c1.792 0 3.156-.52 4.092-1.56s1.404-2.56 1.404-4.56v-5.04c0-1.92-.468-3.38-1.404-4.38s-2.292-1.5-4.068-1.5h-4.512v17.04zm-.12-2.424h-1.032v-12.192h1.032c.768 0 1.324.264 1.668.792s.516 1.368.516 2.52v5.424c0 2.304-.728 3.456-2.184 3.456zm-36.277715 264.832c1.536 0 2.716-.376 3.54-1.128s1.236-1.76 1.236-3.024v-1.296c0-.944-.172-1.736-.516-2.376s-.972-1.24-1.884-1.8l-2.448-1.488c-.816-.512-1.224-1.184-1.224-2.016v-.768c0-.416.116-.76.348-1.032s.556-.408.972-.408c.944 0 1.416.632 1.416 1.896v1.824l3.312-.624v-1.248c0-1.536-.404-2.648-1.212-3.336s-1.98-1.032-3.516-1.032c-1.376 0-2.5.356-3.372 1.068s-1.308 1.74-1.308 3.084v.888c0 .928.18 1.72.54 2.376s.964 1.24 1.812 1.752l2.424 1.488c.512.336.848.66 1.008.972s.24.748.24 1.308v.696c0 .496-.108.896-.324 1.2s-.556.456-1.02.456c-.96 0-1.44-.72-1.44-2.16v-1.944l-3.384.648v1.368c0 1.44.42 2.576 1.26 3.408s2.02 1.248 3.54 1.248zm10.587429 0c1.648 0 2.924-.468 3.828-1.404s1.356-2.268 1.356-3.996v-7.056c0-1.728-.452-3.06-1.356-3.996s-2.18-1.404-3.828-1.404c-1.632 0-2.9.468-3.804 1.404s-1.356 2.268-1.356 3.996v7.056c0 1.728.452 3.06 1.356 3.996s2.172 1.404 3.804 1.404zm0-2.616c-.56 0-.988-.204-1.284-.612s-.444-.996-.444-1.764v-7.872c0-.768.148-1.356.444-1.764s.724-.612 1.284-.612.992.204 1.296.612.456.996.456 1.764v7.872c0 .768-.152 1.356-.456 1.764s-.736.612-1.296.612zm11.211428 2.616c1.552 0 2.76-.412 3.624-1.236s1.296-2.004 1.296-3.54v-1.848l-3.408-.696v2.544c0 .688-.128 1.216-.384 1.584s-.632.552-1.128.552c-.512 0-.904-.212-1.176-.636s-.408-1.044-.408-1.86v-7.704c0-1.6.528-2.4 1.584-2.4.992 0 1.488.712 1.488 2.136v2.28l3.432-.648v-1.728c0-1.536-.416-2.696-1.248-3.48s-2.032-1.176-3.6-1.176c-1.648 0-2.908.452-3.78 1.356s-1.308 2.22-1.308 3.948v7.224c0 1.76.424 3.088 1.272 3.984s2.096 1.344 3.744 1.344zm9.723429-.408v-17.04h-3.336v17.04zm4.395429 0 .624-3.984h3.096l.624 3.984h3.336l-3.312-17.04h-4.368l-3.336 17.04zm3.36-6.408h-2.376l.84-5.376c.176-1.184.28-1.992.312-2.424h.072c.08.704.184 1.512.312 2.424zm12.939428 6.408v-2.928h-4.2v-14.112h-3.336v17.04zm73.394857-135v-2.568h-4.608v-4.92h4.104v-2.568h-4.104v-4.416h4.44v-2.568h-7.776v17.04zm3.699429 0 .624-3.984h3.096l.624 3.984h3.336l-3.312-17.04h-4.368l-3.336 17.04zm3.36-6.408h-2.376l.84-5.376c.176-1.184.28-1.992.312-2.424h.072c.08.704.184 1.512.312 2.424zm8.739428 6.408v-6.936h1.2l1.872 6.936h3.48l-2.4-7.728c.656-.32 1.156-.808 1.5-1.464s.516-1.48.516-2.472v-.816c-.016-1.488-.42-2.62-1.212-3.396s-2.044-1.164-3.756-1.164h-4.536v17.04zm.984-9.072h-.984v-5.664h.984c.64 0 1.092.164 1.356.492s.396.884.396 1.668v1.08c0 .848-.132 1.464-.396 1.848s-.716.576-1.356.576zm9.555429 9.072-.00096-8.58912c-.00256-.32512-.01024-.68608-.02304-1.08288-.016-.496-.032-.88-.048-1.152l-.048-.84h.072c.208.912.456 1.808.744 2.688l3.12 8.976h3.216v-17.04h-2.928v7.056c0 1.12.04 2.376.12 3.768h-.048c-.192-.8-.424-1.648-.696-2.544l-2.856-8.28h-3.576v17.04zm16.995429 0v-2.568h-4.608v-4.92h4.104v-2.568h-4.104v-4.416h4.44v-2.568h-7.776v17.04zm5.667428 0c1.792 0 3.156-.52 4.092-1.56s1.404-2.56 1.404-4.56v-5.04c0-1.92-.468-3.38-1.404-4.38s-2.292-1.5-4.068-1.5h-4.512v17.04zm-.12-2.424h-1.032v-12.192h1.032c.768 0 1.324.264 1.668.792s.516 1.368.516 2.52v5.424c0 2.304-.728 3.456-2.184 3.456zm-299.5634284 2.832c1.6479999 0 2.9239999-.468 3.8279999-1.404s1.356-2.268 1.356-3.996v-7.056c0-1.728-.452-3.06-1.356-3.996s-2.18-1.404-3.8279999-1.404c-1.6320001 0-2.9000001.468-3.8040001 1.404s-1.356 2.268-1.356 3.996v7.056c0 1.728.452 3.06 1.356 3.996s2.172 1.404 3.8040001 1.404zm0-2.616c-.5600001 0-.9880001-.204-1.2840001-.612s-.444-.996-.444-1.764v-7.872c0-.768.148-1.356.444-1.764s.724-.612 1.2840001-.612c.5599999 0 .9919999.204 1.2959999.612s.456.996.456 1.764v7.872c0 .768-.152 1.356-.456 1.764s-.736.612-1.2959999.612zm11.5474285 2.208 1.152-9.72c.048-.384.084-.804.108-1.26s.044-.788.06-.996c0-.32.008-.552.024-.696h.12c.016.144.024.376.024.696.016.208.036.54.06.996s.06.876.108 1.26l1.152 9.72h3.912l1.944-17.04h-3.072l-.888 10.464c-.064.816-.112 1.744-.144 2.784h-.096c-.064-.528-.144-1.384-.24-2.568l-1.224-10.68h-3.192l-1.224 10.68-.24 2.568h-.12c0-.736-.048-1.664-.144-2.784l-.864-10.464h-3.072l1.944 17.04zm12.8674286 0v-8.352c0-.384-.008-.824-.024-1.32s-.032-.88-.048-1.152l-.048-.84h.072c.208.912.456 1.808.744 2.688l3.12 8.976h3.216v-17.04h-2.928v7.056c0 1.12.04 2.376.12 3.768h-.048c-.192-.8-.424-1.648-.696-2.544l-2.856-8.28h-3.576v17.04zm16.9954286 0v-2.568h-4.608v-4.92h4.104v-2.568h-4.104v-4.416h4.44v-2.568h-7.776v17.04zm5.6674286 0c1.792 0 3.156-.52 4.0920001-1.56.936-1.04 1.404-2.56 1.404-4.56v-5.04c0-1.92-.468-3.38-1.404-4.38-.9360001-1-2.2920001-1.5-4.0680001-1.5h-4.512v17.04zm-.12-2.424h-1.032v-12.192h1.032c.768 0 1.324.264 1.668.792s.516 1.368.516 2.52v5.424c0 2.304-.728 3.456-2.184 3.456z" fill="#fff" fill-rule="nonzero"/></g></svg>