<svg width="310" height="302" xmlns="http://www.w3.org/2000/svg"><g fill="none" fill-rule="evenodd"><g fill-rule="nonzero"><path d="m60.986 195 .624-3.984h3.096L65.33 195h3.336l-3.312-17.04h-4.368L57.65 195h3.336zm3.36-6.408H61.97l.84-5.376c.176-1.184.28-1.992.312-2.424h.072c.08.704.184 1.512.312 2.424l.84 5.376zM72.58 195v-8.568c0-2.176-.024-3.72-.072-4.632h.12c.032.448.104 1.032.216 1.752l.096.768L74.765 195h2.4l1.8-10.68c.112-.688.224-1.528.336-2.52h.096c-.048.912-.072 2.456-.072 4.632V195h2.88v-17.04h-4.488l-1.416 8.856-.027.216c-.024.192-.064.48-.117.864-.08.576-.12 1.048-.12 1.416h-.096c-.016-.592-.112-1.424-.288-2.496l-1.44-8.856H69.75V195h2.832zm19.588 0v-2.568H87.56v-4.92h4.104v-2.568H87.56v-4.416H92v-2.568h-7.776V195h7.944zm4.515 0v-6.936h1.2L99.756 195h3.48l-2.4-7.728a3.28 3.28 0 0 0 1.5-1.464c.344-.656.516-1.48.516-2.472v-.816c-.016-1.488-.42-2.62-1.212-3.396-.792-.776-2.044-1.164-3.756-1.164h-4.536V195h3.336zm.984-9.072h-.984v-5.664h.984c.64 0 1.092.164 1.356.492.264.328.396.884.396 1.668v1.08c0 .848-.132 1.464-.396 1.848-.264.384-.716.576-1.356.576zm9.94 9.072v-17.04h-3.337V195h3.336zm6.53.408c1.553 0 2.76-.412 3.625-1.236.864-.824 1.296-2.004 1.296-3.54v-1.848l-3.408-.696v2.544c0 .688-.128 1.216-.384 1.584-.256.368-.632.552-1.128.552-.512 0-.904-.212-1.176-.636-.272-.424-.408-1.044-.408-1.86v-7.704c0-1.6.528-2.4 1.584-2.4.992 0 1.488.712 1.488 2.136v2.28l3.432-.648v-1.728c0-1.536-.416-2.696-1.248-3.48-.832-.784-2.032-1.176-3.6-1.176-1.648 0-2.908.452-3.78 1.356-.872.904-1.308 2.22-1.308 3.948v7.224c0 1.76.424 3.088 1.272 3.984.848.896 2.096 1.344 3.744 1.344zm8.572-.408.624-3.984h3.096l.624 3.984h3.336l-3.312-17.04h-4.368L119.374 195h3.336zm3.36-6.408h-2.376l.84-5.376c.176-1.184.28-1.992.312-2.424h.072c.08.704.184 1.512.312 2.424l.84 5.376zm8.356 6.408v-8.352c0-.384-.008-.824-.024-1.32-.016-.496-.032-.88-.048-1.152l-.048-.84h.072c.208.912.456 1.808.744 2.688l3.12 8.976h3.216v-17.04h-2.928v7.056c0 1.12.04 2.376.12 3.768h-.048a44.7 44.7 0 0 0-.696-2.544l-2.856-8.28h-3.576V195h2.952zm15.007 0 .624-3.984h3.096l.624 3.984h3.336l-3.312-17.04h-4.368L146.097 195h3.336zm3.36-6.408h-2.376l.84-5.376c.176-1.184.28-1.992.312-2.424h.072c.08.704.184 1.512.312 2.424l.84 5.376zm9.891 6.408c1.792 0 3.156-.52 4.092-1.56.936-1.04 1.404-2.56 1.404-4.56v-5.04c0-1.92-.468-3.38-1.404-4.38-.936-1-2.292-1.5-4.068-1.5h-4.512V195h4.488zm-.12-2.424h-1.032v-12.192h1.032c.768 0 1.324.264 1.668.792.344.528.516 1.368.516 2.52v5.424c0 2.304-.728 3.456-2.184 3.456zM175.839 195l3.24-17.04h-3.432l-1.608 11.112a40.974 40.974 0 0 0-.264 2.88h-.12a29.25 29.25 0 0 0-.288-2.88l-1.608-11.112h-3.432l3.264 17.04h4.248zm12.028 0v-2.568h-4.608v-4.92h4.104v-2.568h-4.104v-4.416h4.44v-2.568h-7.776V195h7.944zm4.515 0v-6.936h1.2l1.872 6.936h3.48l-2.4-7.728a3.28 3.28 0 0 0 1.5-1.464c.344-.656.516-1.48.516-2.472v-.816c-.016-1.488-.42-2.62-1.212-3.396-.792-.776-2.044-1.164-3.756-1.164h-4.536V195h3.336zm.984-9.072h-.984v-5.664h.984c.64 0 1.092.164 1.356.492.264.328.396.884.396 1.668v1.08c0 .848-.132 1.464-.396 1.848-.264.384-.716.576-1.356.576zM205.034 195v-14.208h3.24v-2.832h-9.792v2.832h3.24V195h3.312zm7.347 0v-17.04h-3.336V195h3.336zm5.98.408c1.536 0 2.716-.376 3.54-1.128.824-.752 1.236-1.76 1.236-3.024v-1.296c0-.944-.172-1.736-.516-2.376-.344-.64-.972-1.24-1.884-1.8l-2.448-1.488c-.816-.512-1.224-1.184-1.224-2.016v-.768c0-.416.116-.76.348-1.032.232-.272.556-.408.972-.408.944 0 1.416.632 1.416 1.896v1.824l3.312-.624v-1.248c0-1.536-.404-2.648-1.212-3.336-.808-.688-1.98-1.032-3.516-1.032-1.376 0-2.5.356-3.372 1.068-.872.712-1.308 1.74-1.308 3.084v.888c0 .928.18 1.72.54 2.376.36.656.964 1.24 1.812 1.752l2.424 1.488c.512.336.848.66 1.008.972.16.312.24.748.24 1.308v.696c0 .496-.108.896-.324 1.2-.216.304-.556.456-1.02.456-.96 0-1.44-.72-1.44-2.16v-1.944l-3.384.648v1.368c0 1.44.42 2.576 1.26 3.408.84.832 2.02 1.248 3.54 1.248zm9.267-.408v-17.04h-3.336V195h3.336zm4.971 0v-8.352c0-.384-.008-.824-.024-1.32-.016-.496-.032-.88-.048-1.152l-.048-.84h.072c.208.912.456 1.808.744 2.688l3.12 8.976h3.216v-17.04h-2.928v7.056c0 1.12.04 2.376.12 3.768h-.048a44.7 44.7 0 0 0-.696-2.544l-2.856-8.28h-3.576V195h2.952zm12.556.408c.912 0 1.656-.252 2.232-.756.576-.504.96-1.196 1.152-2.076l.168 2.424h2.4v-9.336h-5.064v2.544h1.896v2.16c0 .752-.136 1.348-.408 1.788-.272.44-.688.66-1.248.66s-.984-.232-1.272-.696c-.288-.464-.432-1.128-.432-1.992v-7.416c0-1.776.544-2.664 1.632-2.664.976 0 1.464.672 1.464 2.016v1.848l3.408-.624v-1.32c0-1.392-.42-2.476-1.26-3.252-.84-.776-2.028-1.164-3.564-1.164-1.648 0-2.912.492-3.792 1.476-.88.984-1.32 2.38-1.32 4.188v6.768c0 1.744.344 3.084 1.032 4.02.688.936 1.68 1.404 2.976 1.404zM110.323 225v-7.464h4.104v-2.568h-4.104v-4.416h4.44v-2.592h-7.776V225h3.336zm13.371 0v-2.568h-4.608v-4.92h4.104v-2.568h-4.104v-4.416h4.44v-2.568h-7.776V225h7.944zm5.668 0c1.792 0 3.156-.52 4.092-1.56.936-1.04 1.404-2.56 1.404-4.56v-5.04c0-1.92-.468-3.38-1.404-4.38-.936-1-2.292-1.5-4.068-1.5h-4.512V225h4.488zm-.12-2.424h-1.032v-12.192h1.032c.768 0 1.324.264 1.668.792.344.528.516 1.368.516 2.52v5.424c0 2.304-.728 3.456-2.184 3.456zM144.317 225v-2.568h-4.608v-4.92h4.104v-2.568h-4.104v-4.416h4.44v-2.568h-7.776V225h7.944zm4.516 0v-6.936h1.2l1.872 6.936h3.48l-2.4-7.728a3.28 3.28 0 0 0 1.5-1.464c.344-.656.516-1.48.516-2.472v-.816c-.016-1.488-.42-2.62-1.212-3.396-.792-.776-2.044-1.164-3.756-1.164h-4.536V225h3.336zm.984-9.072h-.984v-5.664h.984c.64 0 1.092.164 1.356.492.264.328.396.884.396 1.668v1.08c0 .848-.132 1.464-.396 1.848-.264.384-.716.576-1.356.576zm9.219 9.072.624-3.984h3.096l.624 3.984h3.336l-3.312-17.04h-4.368L155.7 225h3.336zm3.36-6.408h-2.376l.84-5.376c.176-1.184.28-1.992.312-2.424h.072c.08.704.184 1.512.312 2.424l.84 5.376zm9.34 6.408v-14.208h3.24v-2.832h-9.793v2.832h3.24V225h3.312zm7.347 0v-17.04h-3.336V225h3.336zm6.675.408c1.648 0 2.924-.468 3.828-1.404.904-.936 1.356-2.268 1.356-3.996v-7.056c0-1.728-.452-3.06-1.356-3.996-.904-.936-2.18-1.404-3.828-1.404-1.632 0-2.9.468-3.804 1.404-.904.936-1.356 2.268-1.356 3.996v7.056c0 1.728.452 3.06 1.356 3.996.904.936 2.172 1.404 3.804 1.404zm0-2.616c-.56 0-.988-.204-1.284-.612-.296-.408-.444-.996-.444-1.764v-7.872c0-.768.148-1.356.444-1.764.296-.408.724-.612 1.284-.612s.992.204 1.296.612c.304.408.456.996.456 1.764v7.872c0 .768-.152 1.356-.456 1.764-.304.408-.736.612-1.296.612zM195.41 225v-8.352c0-.384-.008-.824-.024-1.32-.016-.496-.032-.88-.048-1.152l-.048-.84h.072c.208.912.456 1.808.744 2.688l3.12 8.976h3.216v-17.04h-2.928v7.056c0 1.12.04 2.376.12 3.768h-.048a44.7 44.7 0 0 0-.696-2.544l-2.856-8.28h-3.576V225h2.952z" fill="#CB7958"/><path d="M48.105 255v-8.352c0-.384-.008-.824-.024-1.32-.016-.496-.032-.88-.048-1.152l-.048-.84h.072c.208.912.456 1.808.744 2.688L51.92 255h3.216v-17.04h-2.928v7.056c0 1.12.04 2.376.12 3.768h-.048a44.7 44.7 0 0 0-.696-2.544l-2.856-8.28h-3.576V255h2.952zm11.427 0 .624-3.984h3.096l.624 3.984h3.336L63.9 237.96h-4.368L56.196 255h3.336zm3.36-6.408h-2.376l.84-5.376c.176-1.184.28-1.992.312-2.424h.072c.08.704.184 1.512.312 2.424l.84 5.376zm9.291 6.816c1.536 0 2.716-.376 3.54-1.128.824-.752 1.236-1.76 1.236-3.024v-1.296c0-.944-.172-1.736-.516-2.376-.344-.64-.972-1.24-1.884-1.8l-2.448-1.488c-.816-.512-1.224-1.184-1.224-2.016v-.768c0-.416.116-.76.348-1.032.232-.272.556-.408.972-.408.944 0 1.416.632 1.416 1.896v1.824l3.312-.624v-1.248c0-1.536-.404-2.648-1.212-3.336-.808-.688-1.98-1.032-3.516-1.032-1.376 0-2.5.356-3.372 1.068-.872.712-1.308 1.74-1.308 3.084v.888c0 .928.18 1.72.54 2.376.36.656.964 1.24 1.812 1.752l2.424 1.488c.512.336.848.66 1.008.972.16.312.24.748.24 1.308v.696c0 .496-.108.896-.324 1.2-.216.304-.556.456-1.02.456-.96 0-1.44-.72-1.44-2.16v-1.944l-3.384.648v1.368c0 1.44.42 2.576 1.26 3.408.84.832 2.02 1.248 3.54 1.248zm9.268-.408v-7.416h3.096V255h3.336v-17.04h-3.336v7.056H81.45v-7.056h-3.336V255h3.336zm14.787 0 3.24-17.04h-3.432l-1.608 11.112a40.974 40.974 0 0 0-.264 2.88h-.12a29.25 29.25 0 0 0-.288-2.88l-1.608-11.112h-3.432L91.99 255h4.248zm7.42 0v-17.04h-3.336V255h3.336zm9.555 0v-2.928h-4.2V237.96h-3.336V255h7.536zm8.572 0v-2.928h-4.2V237.96h-3.336V255h7.536zm8.979 0v-2.568h-4.608v-4.92h4.104v-2.568h-4.104v-4.416h4.44v-2.568h-7.776V255h7.944zm1.995-9.408c.912-.32 1.572-.804 1.98-1.452.408-.648.612-1.5.612-2.556v-3.624h-3.6v3.888h1.464v.096c0 .544-.084.96-.252 1.248-.168.288-.508.544-1.02.768l.816 1.632zm8.404 9.816c1.536 0 2.716-.376 3.54-1.128.824-.752 1.236-1.76 1.236-3.024v-1.296c0-.944-.172-1.736-.516-2.376-.344-.64-.972-1.24-1.884-1.8l-2.448-1.488c-.816-.512-1.224-1.184-1.224-2.016v-.768c0-.416.116-.76.348-1.032.232-.272.556-.408.972-.408.944 0 1.416.632 1.416 1.896v1.824l3.312-.624v-1.248c0-1.536-.404-2.648-1.212-3.336-.808-.688-1.98-1.032-3.516-1.032-1.376 0-2.5.356-3.372 1.068-.872.712-1.308 1.74-1.308 3.084v.888c0 .928.18 1.72.54 2.376.36.656.964 1.24 1.812 1.752l2.424 1.488c.512.336.848.66 1.008.972.16.312.24.748.24 1.308v.696c0 .496-.108.896-.324 1.2-.216.304-.556.456-1.02.456-.96 0-1.44-.72-1.44-2.16v-1.944l-3.384.648v1.368c0 1.44.42 2.576 1.26 3.408.84.832 2.02 1.248 3.54 1.248zM153.05 255l.624-3.984h3.096l.624 3.984h3.336l-3.312-17.04h-4.368L149.714 255h3.336zm3.36-6.408h-2.376l.84-5.376c.176-1.184.28-1.992.312-2.424h.072c.08.704.184 1.512.312 2.424l.84 5.376zM166.3 255c1.792 0 3.156-.52 4.092-1.56.936-1.04 1.404-2.56 1.404-4.56v-5.04c0-1.92-.468-3.38-1.404-4.38-.936-1-2.292-1.5-4.068-1.5h-4.512V255h4.488zm-.12-2.424h-1.032v-12.192h1.032c.768 0 1.324.264 1.668.792.344.528.516 1.368.516 2.52v5.424c0 2.304-.728 3.456-2.184 3.456zM177.8 255c1.792 0 3.156-.52 4.092-1.56.936-1.04 1.404-2.56 1.404-4.56v-5.04c0-1.92-.468-3.38-1.404-4.38-.936-1-2.292-1.5-4.068-1.5h-4.512V255h4.488zm-.12-2.424h-1.032v-12.192h1.032c.768 0 1.324.264 1.668.792.344.528.516 1.368.516 2.52v5.424c0 2.304-.728 3.456-2.184 3.456zM189.924 255v-6.12l3.576-10.92h-3.48l-1.392 5.688c-.112.496-.224 1.248-.336 2.256h-.048c-.112-1.008-.232-1.76-.36-2.256l-1.44-5.688h-3.48l3.624 10.92V255h3.336zm10.35 0 .625-3.984h3.096l.624 3.984h3.336l-3.312-17.04h-4.368L196.939 255h3.336zm3.36-6.408h-2.375l.84-5.376c.176-1.184.28-1.992.312-2.424h.072c.08.704.184 1.512.312 2.424l.84 5.376zm9.892 6.408 1.152-9.72c.048-.384.084-.804.108-1.26.024-.456.044-.788.06-.996 0-.32.008-.552.024-.696h.12c.016.144.024.376.024.696.016.208.036.54.06.996.024.456.06.876.108 1.26l1.152 9.72h3.912l1.944-17.04h-3.072l-.888 10.464a59.308 59.308 0 0 0-.144 2.784h-.096a73.227 73.227 0 0 1-.24-2.568l-1.224-10.68h-3.192l-1.224 10.68-.24 2.568h-.12c0-.736-.048-1.664-.144-2.784l-.864-10.464h-3.072l1.944 17.04h3.912zm11.692 0 .624-3.984h3.096l.624 3.984h3.336l-3.312-17.04h-4.368L221.882 255h3.336zm3.36-6.408h-2.376l.84-5.376c.176-1.184.28-1.992.312-2.424h.072c.08.704.184 1.512.312 2.424l.84 5.376zm8.74 6.408v-6.936h1.2l1.871 6.936h3.48l-2.4-7.728a3.28 3.28 0 0 0 1.5-1.464c.344-.656.516-1.48.516-2.472v-.816c-.016-1.488-.42-2.62-1.212-3.396-.792-.776-2.044-1.164-3.756-1.164h-4.536V255h3.336zm.983-9.072h-.984v-5.664h.984c.64 0 1.092.164 1.356.492.264.328.396.884.396 1.668v1.08c0 .848-.132 1.464-.396 1.848-.264.384-.716.576-1.356.576zM249.393 255c1.792 0 3.156-.52 4.092-1.56.936-1.04 1.404-2.56 1.404-4.56v-5.04c0-1.92-.468-3.38-1.404-4.38-.936-1-2.292-1.5-4.068-1.5h-4.512V255h4.488zm-.12-2.424h-1.032v-12.192h1.032c.768 0 1.324.264 1.668.792.344.528.516 1.368.516 2.52v5.424c0 2.304-.728 3.456-2.184 3.456zm11.091 2.832c1.536 0 2.716-.376 3.54-1.128.824-.752 1.236-1.76 1.236-3.024v-1.296c0-.944-.172-1.736-.516-2.376-.344-.64-.972-1.24-1.884-1.8l-2.448-1.488c-.816-.512-1.224-1.184-1.224-2.016v-.768c0-.416.116-.76.348-1.032.232-.272.556-.408.972-.408.944 0 1.416.632 1.416 1.896v1.824l3.312-.624v-1.248c0-1.536-.404-2.648-1.212-3.336-.808-.688-1.98-1.032-3.516-1.032-1.376 0-2.5.356-3.372 1.068-.872.712-1.308 1.74-1.308 3.084v.888c0 .928.18 1.72.54 2.376.36.656.964 1.24 1.812 1.752l2.424 1.488c.512.336.848.66 1.008.972.16.312.24.748.24 1.308v.696c0 .496-.108.896-.324 1.2-.216.304-.556.456-1.02.456-.96 0-1.44-.72-1.44-2.16v-1.944l-3.384.648v1.368c0 1.44.42 2.576 1.26 3.408.84.832 2.02 1.248 3.54 1.248z" fill="#3E3E3E"/></g><path d="M153.086 100v-7.848h-16.632c3.072-3.504 5.412-6.264 7.02-8.28a68.11 68.11 0 0 0 4.284-5.976c1.728-2.64 3.024-5.16 3.888-7.56.864-2.4 1.296-4.752 1.296-7.056v-1.944c0-4.368-1.116-7.536-3.348-9.504-2.232-1.968-5.652-2.952-10.26-2.952-4.368 0-7.788 1.164-10.26 3.492-2.472 2.328-3.708 5.58-3.708 9.756V65.8l9.792 1.224v-5.04c0-3.648 1.272-5.472 3.816-5.472 1.296 0 2.256.408 2.88 1.224.624.816.936 2.088.936 3.816v1.512c0 2.256-.336 4.392-1.008 6.408-.672 2.016-1.752 4.176-3.24 6.48-1.44 2.256-3.168 4.656-5.184 7.2-2.016 2.544-4.68 5.76-7.992 9.648v7.2h27.72zm11.242 0 4.248-16.488c.384-1.584.72-3.648 1.008-6.192h.216c.336 3.072.672 5.136 1.008 6.192L175.2 100h10.584L177 72.928l8.064-24.048h-10.368l-3.816 12.888c-.24.864-.504 2.352-.792 4.464l-.288 1.8h-.144c-.048-.24-.144-1.02-.288-2.34a22.301 22.301 0 0 0-.792-3.924l-3.6-12.888h-10.512l8.208 23.976L153.816 100h10.512zm-96.702 30.315c3.339 0 5.313-1.953 5.313-4.431 0-2.163-.924-3.276-4.473-4.473-3.234-1.092-3.717-1.428-3.717-2.373 0-.966.735-1.743 2.394-1.743 1.869 0 2.583 1.008 2.94 2.31l2.415-.588c-.483-2.793-2.751-4.032-5.355-4.032-3.108 0-4.83 1.953-4.83 4.074 0 1.911 1.155 3.255 4.305 4.242 3.381 1.05 3.885 1.533 3.885 2.73 0 1.218-1.05 1.995-2.856 1.995-2.247 0-2.961-1.197-3.318-3.549l-2.604.567c.441 3.507 2.541 5.271 5.901 5.271zm9.621-13.272v-2.373h-2.478v2.373h2.478zM77.205 130v-11.13h-2.394V130h2.394zm5.295 0v-15.33h-2.478V130H82.5zm7.983 0 4.473-11.13h-2.457l-2.982 7.686h-.042l-2.982-7.686h-2.478L88.488 130h1.995zm10.062.315c2.352 0 3.759-1.218 4.62-2.604l-1.722-1.407c-.483.756-1.239 1.89-2.94 1.89-1.764 0-2.709-1.239-2.772-3.045h7.77v-.714c0-3.654-2.163-5.88-5.061-5.88-2.919 0-5.124 2.268-5.124 5.88s2.205 5.88 5.229 5.88zm2.625-6.972h-5.418c.084-1.281.966-2.667 2.688-2.667 1.785 0 2.646 1.176 2.73 2.667zm6.765 6.657v-6.195c0-1.932.693-2.772 1.953-2.772.378 0 .651.105.882.168l.378-2.331a2.55 2.55 0 0 0-.987-.21c-.945 0-1.869.525-2.31 1.386h-.042v-1.176h-2.268V130h2.394zm10.8 0 .861-2.52h5.943l.882 2.52h2.457l-5.292-14.7h-2.016l-5.292 14.7h2.457zm6.069-4.641h-4.473l2.226-6.468h.042l2.205 6.468zm8.76 4.641 2.919-8.358h.042l2.709 8.358h2.31l2.667-11.13h-2.31l-1.785 7.728h-.042l-2.478-7.728h-2.163l-2.646 7.749h-.042l-1.575-7.749h-2.352l2.457 11.13h2.289zm15.564.315c2.163 0 3.045-1.26 3.15-1.428h.042V130h2.037v-7.203c0-3.066-2.016-4.242-4.494-4.242-2.583 0-4.011 1.47-4.452 3.234l2.037.777c.273-.987.777-1.953 2.478-1.953 1.428 0 2.037.609 2.037 1.323 0 .798-.567 1.05-2.982 1.659-2.688.651-3.78 1.512-3.78 3.465 0 1.68 1.155 3.255 3.927 3.255zm.21-2.079c-1.197 0-1.827-.441-1.827-1.344 0-.609.252-1.176 1.953-1.596 2.205-.588 2.415-.882 2.541-1.155h.042v2.226c0 .945-.798 1.869-2.709 1.869zm9.978 1.764v-6.195c0-1.932.693-2.772 1.953-2.772.378 0 .651.105.882.168l.378-2.331a2.55 2.55 0 0 0-.987-.21c-.945 0-1.869.525-2.31 1.386h-.042v-1.176h-2.268V130h2.394zm8.928.315c1.911 0 2.898-1.197 3.045-1.386h.042V130h2.226v-15.33h-2.394v5.271h-.042c-.189-.231-1.071-1.386-2.898-1.386-2.499 0-4.809 2.142-4.809 5.88 0 3.57 1.89 5.88 4.83 5.88zm.378-2.163c-1.785 0-2.814-1.281-2.814-3.717s1.029-3.717 2.814-3.717c1.638 0 2.541 1.218 2.541 2.499v2.52c0 1.281-.966 2.415-2.541 2.415zM187.785 130l3.255-10.08h.042L194.4 130h2.583l2.814-14.7h-2.478l-1.995 10.353h-.042l-3.465-10.353h-1.407l-3.486 10.353h-.042l-1.995-10.353h-2.52l2.814 14.7h2.604zm16.425-12.957v-2.373h-2.478v2.373h2.478zM204.168 130v-11.13h-2.394V130h2.394zm5.211 0v-6.909c0-1.428.924-2.331 2.394-2.331 1.575 0 2.163.945 2.163 2.583V130h2.373v-7.287c0-2.625-1.533-4.158-3.969-4.158-1.26 0-2.415.63-3.003 1.386h-.042v-1.071h-2.31V130h2.394zm11.994 0v-6.909c0-1.428.924-2.331 2.394-2.331 1.575 0 2.163.945 2.163 2.583V130h2.373v-7.287c0-2.625-1.533-4.158-3.969-4.158-1.26 0-2.415.63-3.003 1.386h-.042v-1.071h-2.31V130h2.394zm14.094.315c2.352 0 3.759-1.218 4.62-2.604l-1.722-1.407c-.483.756-1.239 1.89-2.94 1.89-1.764 0-2.709-1.239-2.772-3.045h7.77v-.714c0-3.654-2.163-5.88-5.061-5.88-2.919 0-5.124 2.268-5.124 5.88s2.205 5.88 5.229 5.88zm2.625-6.972h-5.418c.084-1.281.966-2.667 2.688-2.667 1.785 0 2.646 1.176 2.73 2.667zm6.765 6.657v-6.195c0-1.932.693-2.772 1.953-2.772.378 0 .651.105.882.168l.378-2.331a2.55 2.55 0 0 0-.987-.21c-.945 0-1.869.525-2.31 1.386h-.042v-1.176h-2.268V130h2.394z" fill="#00B2A4" fill-rule="nonzero"/><path stroke="#00B2A4" stroke-width="2" d="M1 1h308v300H1z"/></g></svg>