<svg width="310" height="302" xmlns="http://www.w3.org/2000/svg"><g fill="none" fill-rule="evenodd"><path d="m77.817 132 3.456-29.16c.144-1.152.252-2.412.324-3.78.072-1.368.132-2.364.18-2.988 0-.96.024-1.656.072-2.088h.36c.048.432.072 1.128.072 2.088.048.624.108 1.62.18 2.988.072 1.368.18 2.628.324 3.78L86.241 132h11.736l5.832-51.12h-9.216l-2.664 31.392a177.925 177.925 0 0 0-.432 8.352h-.288c-.192-1.584-.432-4.152-.72-7.704l-3.672-32.04h-9.576l-3.672 32.04-.72 7.704h-.36c0-2.208-.144-4.992-.432-8.352L69.465 80.88H60.25L66.081 132h11.736zm39.754 0V80.88h-10.008V132h10.008zm14.915 0v-25.056c0-1.152-.024-2.472-.072-3.96-.048-1.488-.096-2.64-.144-3.456l-.144-2.52h.216a90.883 90.883 0 0 0 2.232 8.064l9.36 26.928h9.648V80.88h-8.784v21.168c0 3.36.12 7.128.36 11.304h-.144a134.1 134.1 0 0 0-2.088-7.632l-8.568-24.84H123.63V132h8.856zm36.01 0v-25.056c0-1.152-.024-2.472-.072-3.96-.048-1.488-.096-2.64-.144-3.456l-.144-2.52h.216a90.883 90.883 0 0 0 2.232 8.064l9.36 26.928h9.648V80.88h-8.784v21.168c0 3.36.12 7.128.36 11.304h-.144a134.1 134.1 0 0 0-2.088-7.632l-8.568-24.84H159.64V132h8.856zm50.986 0v-7.704h-13.824v-14.76h12.312v-7.704h-12.312V88.584h13.32V80.88H195.65V132h23.832zm13.547 0v-20.808h3.6L242.245 132h10.44l-7.2-23.184c1.968-.96 3.468-2.424 4.5-4.392 1.032-1.968 1.548-4.44 1.548-7.416V94.56c-.048-4.464-1.26-7.86-3.636-10.188-2.376-2.328-6.132-3.492-11.268-3.492H223.02V132h10.008zm2.952-27.216h-2.952V87.792h2.952c1.92 0 3.276.492 4.068 1.476.792.984 1.188 2.652 1.188 5.004v3.24c0 2.544-.396 4.392-1.188 5.544-.792 1.152-2.148 1.728-4.068 1.728z" fill="#00B2A4" fill-rule="nonzero"/><g fill-rule="nonzero"><path d="M79.979 187v-14.208h3.24v-2.832h-9.792v2.832h3.24V187h3.312zm7.347 0v-7.416h3.096V187h3.336v-17.04h-3.336v7.056h-3.096v-7.056H83.99V187h3.336zm16.396 0v-2.568h-4.608v-4.92h4.104v-2.568h-4.104v-4.416h4.44v-2.568h-7.776V187h7.944zm9.583 0c1.552 0 2.724-.404 3.516-1.212.792-.808 1.188-1.948 1.188-3.42v-.504c0-2.048-.8-3.336-2.4-3.864.688-.208 1.224-.596 1.608-1.164.384-.568.576-1.268.576-2.1v-.576c0-1.312-.384-2.34-1.152-3.084-.768-.744-1.928-1.116-3.48-1.116h-4.68V187h4.824zm-.528-9.792h-.96v-4.944h.936c.592 0 1.012.156 1.26.468.248.312.372.82.372 1.524v.552c0 .832-.12 1.44-.36 1.824-.24.384-.656.576-1.248.576zm.192 7.488h-1.152v-5.376h1.08c.592 0 1.02.188 1.284.564.264.376.396.988.396 1.836v.6c0 .8-.124 1.396-.372 1.788-.248.392-.66.588-1.236.588zM127.828 187v-2.616h-5.544a83.052 83.052 0 0 0 2.34-2.76 22.703 22.703 0 0 0 1.428-1.992c.576-.88 1.008-1.72 1.296-2.52.288-.8.432-1.584.432-2.352v-.648c0-1.456-.372-2.512-1.116-3.168-.744-.656-1.884-.984-3.42-.984-1.456 0-2.596.388-3.42 1.164-.824.776-1.236 1.86-1.236 3.252v1.224l3.264.408v-1.68c0-1.216.424-1.824 1.272-1.824.432 0 .752.136.96.408.208.272.312.696.312 1.272v.504a6.71 6.71 0 0 1-.336 2.136c-.224.672-.584 1.392-1.08 2.16a29.186 29.186 0 0 1-1.728 2.4c-.672.848-1.56 1.92-2.664 3.216v2.4h9.24zm6.123 0c1.552 0 2.724-.404 3.516-1.212.792-.808 1.188-1.948 1.188-3.42v-.504c0-2.048-.8-3.336-2.4-3.864.688-.208 1.224-.596 1.608-1.164.384-.568.576-1.268.576-2.1v-.576c0-1.312-.384-2.34-1.152-3.084-.768-.744-1.928-1.116-3.48-1.116h-4.68V187h4.824zm-.528-9.792h-.96v-4.944h.936c.592 0 1.012.156 1.26.468.248.312.372.82.372 1.524v.552c0 .832-.12 1.44-.36 1.824-.24.384-.656.576-1.248.576zm.192 7.488h-1.152v-5.376h1.08c.592 0 1.02.188 1.284.564.264.376.396.988.396 1.836v.6c0 .8-.124 1.396-.372 1.788-.248.392-.66.588-1.236.588zm12.8 2.304-.001-8.945c-.003-1.978-.027-3.397-.072-4.255h.12c.032.448.104 1.032.216 1.752l.096.768 1.824 10.68h2.4l1.8-10.68c.112-.688.224-1.528.336-2.52h.096c-.048.912-.072 2.456-.072 4.632V187h2.88v-17.04h-4.488l-1.416 8.856-.026.216c-.025.192-.064.48-.118.864-.08.576-.12 1.048-.12 1.416h-.096c-.016-.592-.112-1.424-.288-2.496l-1.44-8.856h-4.464V187h2.832zm14.019 0 .624-3.984h3.096l.624 3.984h3.336l-3.312-17.04h-4.368L157.098 187h3.336zm3.36-6.408h-2.376l.84-5.376c.176-1.184.28-1.992.312-2.424h.072c.08.704.184 1.512.312 2.424l.84 5.376zm8.74 6.408v-6.936h1.2l1.871 6.936h3.48l-2.4-7.728a3.28 3.28 0 0 0 1.5-1.464c.344-.656.516-1.48.516-2.472v-.816c-.016-1.488-.42-2.62-1.212-3.396-.792-.776-2.044-1.164-3.756-1.164h-4.536V187h3.336zm.983-9.072h-.984v-5.664h.984c.64 0 1.092.164 1.356.492.264.328.396.884.396 1.668v1.08c0 .848-.132 1.464-.396 1.848-.264.384-.716.576-1.356.576zm9.94 9.072v-4.968l1.224-2.64 2.088 7.608h3.552l-3.192-10.392 3.048-6.648h-3.432l-3.288 7.968v-7.968h-3.336V187h3.336zm15.795 0v-2.568h-4.608v-4.92h4.104v-2.568h-4.104v-4.416h4.44v-2.568h-7.776V187h7.944zm6.963 0v-14.208h3.24v-2.832h-9.792v2.832h3.24V187h3.312zm7.348 0v-17.04h-3.336V187h3.336zm4.971 0v-8.352c0-.384-.008-.824-.024-1.32-.016-.496-.032-.88-.048-1.152l-.048-.84h.072c.208.912.456 1.808.744 2.688l3.12 8.976h3.216v-17.04h-2.928v7.056c0 1.12.04 2.376.12 3.768h-.048a44.7 44.7 0 0 0-.696-2.544l-2.856-8.28h-3.576V187h2.952zm12.556.408c.912 0 1.656-.252 2.232-.756.576-.504.96-1.196 1.152-2.076l.168 2.424h2.4v-9.336h-5.064v2.544h1.896v2.16c0 .752-.136 1.348-.408 1.788-.272.44-.688.66-1.248.66s-.984-.232-1.272-.696c-.288-.464-.432-1.128-.432-1.992v-7.416c0-1.776.544-2.664 1.632-2.664.976 0 1.464.672 1.464 2.016v1.848l3.408-.624v-1.32c0-1.392-.42-2.476-1.26-3.252-.84-.776-2.028-1.164-3.564-1.164-1.648 0-2.912.492-3.792 1.476-.88.984-1.32 2.38-1.32 4.188v6.768c0 1.744.344 3.084 1.032 4.02.688.936 1.68 1.404 2.976 1.404zM86.4 217v-2.568h-4.607v-4.92h4.104v-2.568h-4.104v-4.416h4.44v-2.568h-7.776V217H86.4zm8.716 0v-2.928h-4.2V199.96H87.58V217h7.536zm8.98 0v-2.568h-4.609v-4.92h4.104v-2.568h-4.104v-4.416h4.44v-2.568h-7.776V217h7.944zm7.755 0 3.24-17.04h-3.432l-1.608 11.112a40.974 40.974 0 0 0-.264 2.88h-.12a29.25 29.25 0 0 0-.288-2.88l-1.608-11.112h-3.432l3.264 17.04h4.248zm5.74 0 .623-3.984h3.096l.624 3.984h3.336l-3.312-17.04h-4.368L114.254 217h3.336zm3.36-6.408h-2.377l.84-5.376c.176-1.184.28-1.992.312-2.424h.072c.08.704.184 1.512.312 2.424l.84 5.376zM130.29 217v-14.208h3.24v-2.832h-9.792v2.832h3.24V217h3.312zm7.347 0v-17.04h-3.336V217h3.336zm6.676.408c1.648 0 2.924-.468 3.828-1.404.904-.936 1.356-2.268 1.356-3.996v-7.056c0-1.728-.452-3.06-1.356-3.996-.904-.936-2.18-1.404-3.828-1.404-1.632 0-2.9.468-3.804 1.404-.904.936-1.356 2.268-1.356 3.996v7.056c0 1.728.452 3.06 1.356 3.996.904.936 2.172 1.404 3.804 1.404zm0-2.616c-.56 0-.988-.204-1.284-.612-.296-.408-.444-.996-.444-1.764v-7.872c0-.768.148-1.356.444-1.764.296-.408.724-.612 1.284-.612s.992.204 1.296.612c.304.408.456.996.456 1.764v7.872c0 .768-.152 1.356-.456 1.764-.304.408-.736.612-1.296.612zm9.651 2.208v-8.352c0-.384-.008-.824-.024-1.32-.016-.496-.032-.88-.048-1.152l-.048-.84h.072c.208.912.456 1.808.744 2.688l3.12 8.976h3.216v-17.04h-2.928v7.056c0 1.12.04 2.376.12 3.768h-.048a44.7 44.7 0 0 0-.696-2.544l-2.856-8.28h-3.576V217h2.952zm15.007 0 .624-3.984h3.096l.624 3.984h3.336l-3.312-17.04h-4.368L165.635 217h3.336zm3.36-6.408h-2.376l.84-5.376c.176-1.184.28-1.992.312-2.424h.072c.08.704.184 1.512.312 2.424l.84 5.376zm9.891 6.408 1.152-9.72c.048-.384.084-.804.108-1.26.024-.456.044-.788.06-.996 0-.32.008-.552.024-.696h.12c.016.144.024.376.024.696.016.208.036.54.06.996.024.456.06.876.108 1.26l1.152 9.72h3.912l1.944-17.04h-3.072l-.888 10.464a59.308 59.308 0 0 0-.144 2.784h-.096a73.227 73.227 0 0 1-.24-2.568l-1.224-10.68h-3.192l-1.224 10.68-.24 2.568h-.12c0-.736-.048-1.664-.144-2.784l-.864-10.464h-3.072L178.31 217h3.912zm11.692 0 .624-3.984h3.096l.624 3.984h3.336l-3.312-17.04h-4.368L190.578 217h3.336zm3.36-6.408h-2.376l.84-5.376c.176-1.184.28-1.992.312-2.424h.072c.08.704.184 1.512.312 2.424l.84 5.376zm8.74 6.408v-6.936h1.2l1.871 6.936h3.48l-2.4-7.728a3.28 3.28 0 0 0 1.5-1.464c.344-.656.516-1.48.516-2.472v-.816c-.016-1.488-.42-2.62-1.212-3.396-.792-.776-2.044-1.164-3.756-1.164h-4.536V217h3.336zm.983-9.072h-.984v-5.664h.984c.64 0 1.092.164 1.356.492.264.328.396.884.396 1.668v1.08c0 .848-.132 1.464-.396 1.848-.264.384-.716.576-1.356.576zM218.09 217c1.792 0 3.156-.52 4.092-1.56.936-1.04 1.404-2.56 1.404-4.56v-5.04c0-1.92-.468-3.38-1.404-4.38-.936-1-2.292-1.5-4.068-1.5H213.6V217h4.488zm-.12-2.424h-1.032v-12.192h1.032c.768 0 1.324.264 1.668.792.344.528.516 1.368.516 2.52v5.424c0 2.304-.728 3.456-2.184 3.456zm11.091 2.832c1.536 0 2.716-.376 3.54-1.128.824-.752 1.236-1.76 1.236-3.024v-1.296c0-.944-.172-1.736-.516-2.376-.344-.64-.972-1.24-1.884-1.8l-2.448-1.488c-.816-.512-1.224-1.184-1.224-2.016v-.768c0-.416.116-.76.348-1.032.232-.272.556-.408.972-.408.944 0 1.416.632 1.416 1.896v1.824l3.312-.624v-1.248c0-1.536-.404-2.648-1.212-3.336-.808-.688-1.98-1.032-3.516-1.032-1.376 0-2.5.356-3.372 1.068-.872.712-1.308 1.74-1.308 3.084v.888c0 .928.18 1.72.54 2.376.36.656.964 1.24 1.812 1.752l2.424 1.488c.512.336.848.66 1.008.972.16.312.24.748.24 1.308v.696c0 .496-.108.896-.324 1.2-.216.304-.556.456-1.02.456-.96 0-1.44-.72-1.44-2.16v-1.944l-3.384.648v1.368c0 1.44.42 2.576 1.26 3.408.84.832 2.02 1.248 3.54 1.248z" fill="#CB7958"/><path d="M100.194 247.408c1.536 0 2.716-.376 3.54-1.128.824-.752 1.236-1.76 1.236-3.024v-1.296c0-.944-.172-1.736-.516-2.376-.344-.64-.972-1.24-1.884-1.8l-2.448-1.488c-.816-.512-1.224-1.184-1.224-2.016v-.768c0-.416.116-.76.348-1.032.232-.272.556-.408.972-.408.944 0 1.416.632 1.416 1.896v1.824l3.312-.624v-1.248c0-1.536-.404-2.648-1.212-3.336-.808-.688-1.98-1.032-3.516-1.032-1.376 0-2.5.356-3.372 1.068-.872.712-1.308 1.74-1.308 3.084v.888c0 .928.18 1.72.54 2.376.36.656.964 1.24 1.812 1.752l2.424 1.488c.512.336.848.66 1.008.972.16.312.24.748.24 1.308v.696c0 .496-.108.896-.324 1.2-.216.304-.556.456-1.02.456-.96 0-1.44-.72-1.44-2.16v-1.944l-3.384.648v1.368c0 1.44.42 2.576 1.26 3.408.84.832 2.02 1.248 3.54 1.248zm9.267-.408v-17.04h-3.336V247h3.336zm9.556 0v-2.928h-4.2V229.96h-3.336V247h7.536zm6.075 0 3.24-17.04H124.9l-1.608 11.112a40.974 40.974 0 0 0-.264 2.88h-.12a29.25 29.25 0 0 0-.288-2.88l-1.608-11.112h-3.432l3.264 17.04h4.248zm12.027 0v-2.568h-4.608v-4.92h4.104v-2.568h-4.104v-4.416h4.44v-2.568h-7.776V247h7.944zm4.516 0v-6.936h1.2l1.872 6.936h3.48l-2.4-7.728a3.28 3.28 0 0 0 1.5-1.464c.344-.656.516-1.48.516-2.472v-.816c-.016-1.488-.42-2.62-1.212-3.396-.792-.776-2.044-1.164-3.756-1.164h-4.536V247h3.336zm.984-9.072h-.984v-5.664h.984c.64 0 1.092.164 1.356.492.264.328.396.884.396 1.668v1.08c0 .848-.132 1.464-.396 1.848-.264.384-.716.576-1.356.576zm15.27 9.072 1.153-9.72c.048-.384.084-.804.108-1.26.024-.456.044-.788.06-.996 0-.32.008-.552.024-.696h.12c.016.144.024.376.024.696.016.208.036.54.06.996.024.456.06.876.108 1.26l1.152 9.72h3.912l1.944-17.04h-3.072l-.888 10.464a59.308 59.308 0 0 0-.144 2.784h-.096a73.227 73.227 0 0 1-.24-2.568l-1.224-10.68h-3.192l-1.224 10.68-.24 2.568h-.12c0-.736-.048-1.664-.144-2.784l-.864-10.464h-3.072l1.944 17.04h3.912zm13.252 0v-17.04h-3.336V247h3.336zm4.972 0v-8.352c0-.384-.008-.824-.024-1.32-.016-.496-.032-.88-.048-1.152l-.048-.84h.072c.208.912.456 1.808.744 2.688l3.12 8.976h3.216v-17.04h-2.928v7.056c0 1.12.04 2.376.12 3.768h-.048a44.7 44.7 0 0 0-.696-2.544l-2.856-8.28h-3.576V247h2.952zm12.003 0v-8.352c0-.384-.008-.824-.024-1.32-.016-.496-.032-.88-.048-1.152l-.048-.84h.072c.208.912.456 1.808.744 2.688l3.12 8.976h3.216v-17.04h-2.928v7.056c0 1.12.04 2.376.12 3.768h-.048a44.7 44.7 0 0 0-.696-2.544l-2.856-8.28h-3.576V247h2.952zm16.995 0v-2.568h-4.608v-4.92h4.104v-2.568h-4.104v-4.416h4.44v-2.568h-7.776V247h7.944zm4.516 0v-6.936h1.2l1.872 6.936h3.48l-2.4-7.728a3.28 3.28 0 0 0 1.5-1.464c.344-.656.516-1.48.516-2.472v-.816c-.016-1.488-.42-2.62-1.212-3.396-.792-.776-2.044-1.164-3.756-1.164h-4.536V247h3.336zm.984-9.072h-.984v-5.664h.984c.64 0 1.092.164 1.356.492.264.328.396.884.396 1.668v1.08c0 .848-.132 1.464-.396 1.848-.264.384-.716.576-1.356.576z" fill="#333839"/></g><path stroke="#00B2A4" stroke-width="2" d="M1 1h308v300H1z"/></g></svg>