<svg width="310" height="302" xmlns="http://www.w3.org/2000/svg"><g fill="none" fill-rule="evenodd"><path d="M150.234 100V89.056h5.112v-7.56h-5.112V49.96h-11.448l-13.68 31.896v7.2h15.696V100h9.432zm-9.36-18.504h-8.208c.576-.816 1.224-2.16 1.944-4.032l4.392-11.016c.912-2.256 1.56-4.272 1.944-6.048h.144a81.206 81.206 0 0 0-.216 6.192v14.904zM165.508 100l4.248-16.488c.384-1.584.72-3.648 1.008-6.192h.216c.336 3.072.672 5.136 1.008 6.192L176.38 100h10.584l-8.784-27.072 8.064-24.048h-10.368l-3.816 12.888c-.24.864-.504 2.352-.792 4.464l-.288 1.8h-.144c-.048-.24-.144-1.02-.288-2.34a22.301 22.301 0 0 0-.792-3.924l-3.6-12.888h-10.512l8.208 23.976L154.996 100h10.512zm-37.097 30 3.255-10.08h.042l3.318 10.08h2.583l2.814-14.7h-2.478l-1.995 10.353h-.042l-3.465-10.353h-1.407l-3.486 10.353h-.042l-1.995-10.353h-2.52l2.814 14.7h2.604zm16.425-12.957v-2.373h-2.478v2.373h2.478zM144.794 130v-11.13H142.4V130h2.394zm5.212 0v-6.909c0-1.428.923-2.331 2.393-2.331 1.576 0 2.163.945 2.163 2.583V130h2.373v-7.287c0-2.625-1.532-4.158-3.969-4.158-1.26 0-2.415.63-3.002 1.386h-.042v-1.071h-2.31V130h2.394zM162 130v-6.909c0-1.428.923-2.331 2.393-2.331 1.576 0 2.163.945 2.163 2.583V130h2.373v-7.287c0-2.625-1.532-4.158-3.969-4.158-1.26 0-2.415.63-3.002 1.386h-.042v-1.071h-2.31V130H162zm14.094.315c2.352 0 3.758-1.218 4.62-2.604l-1.722-1.407c-.483.756-1.24 1.89-2.94 1.89-1.764 0-2.71-1.239-2.772-3.045h7.77v-.714c0-3.654-2.163-5.88-5.062-5.88-2.918 0-5.124 2.268-5.124 5.88s2.206 5.88 5.23 5.88zm2.625-6.972H173.3c.084-1.281.966-2.667 2.688-2.667 1.785 0 2.645 1.176 2.73 2.667zm6.764 6.657v-6.195c0-1.932.694-2.772 1.953-2.772.379 0 .651.105.882.168l.378-2.331a2.55 2.55 0 0 0-.987-.21c-.945 0-1.869.525-2.31 1.386h-.042v-1.176h-2.268V130h2.394z" fill="#00B2A4" fill-rule="nonzero"/><g fill-rule="nonzero"><path d="M68.104 195v-17.04h-3.336V195h3.336zm4.971 0v-8.352c0-.384-.008-.824-.024-1.32-.016-.496-.032-.88-.048-1.152l-.048-.84h.072c.208.912.456 1.808.744 2.688l3.12 8.976h3.216v-17.04H77.18v7.056c0 1.12.04 2.376.12 3.768h-.048a44.7 44.7 0 0 0-.696-2.544l-2.856-8.28h-3.576V195h2.952zm13.564.408c1.552 0 2.76-.412 3.624-1.236.864-.824 1.296-2.004 1.296-3.54v-1.848l-3.408-.696v2.544c0 .688-.128 1.216-.384 1.584-.256.368-.632.552-1.128.552-.512 0-.904-.212-1.176-.636-.272-.424-.408-1.044-.408-1.86v-7.704c0-1.6.528-2.4 1.584-2.4.992 0 1.488.712 1.488 2.136v2.28l3.432-.648v-1.728c0-1.536-.416-2.696-1.248-3.48-.832-.784-2.032-1.176-3.6-1.176-1.648 0-2.908.452-3.78 1.356-.872.904-1.308 2.22-1.308 3.948v7.224c0 1.76.424 3.088 1.272 3.984.848.896 2.096 1.344 3.744 1.344zM95.81 195v-3.888h-3.288V195h3.288zm9.127.36c1.536 0 2.696-.412 3.48-1.236.784-.824 1.176-2.044 1.176-3.66v-2.208c0-1.488-.292-2.62-.876-3.396-.584-.776-1.452-1.164-2.604-1.164-.624 0-1.172.128-1.644.384a2.642 2.642 0 0 0-1.092 1.104l.24-4.2h5.328v-2.664h-7.872l-.48 9.264 2.952.264c.08-.528.244-.932.492-1.212.248-.28.572-.42.972-.42.464 0 .8.184 1.008.552.208.368.312.976.312 1.824v1.92c0 .832-.108 1.436-.324 1.812-.216.376-.564.564-1.044.564-.896 0-1.344-.68-1.344-2.04v-.72l-3.264.36v.696c0 1.312.404 2.336 1.212 3.072.808.736 1.932 1.104 3.372 1.104zm10.252 0c1.52 0 2.708-.46 3.564-1.38.856-.92 1.284-2.268 1.284-4.044v-6.552c0-1.776-.428-3.124-1.284-4.044-.856-.92-2.044-1.38-3.564-1.38s-2.7.46-3.54 1.38c-.84.92-1.26 2.268-1.26 4.044v6.552c0 1.776.42 3.124 1.26 4.044.84.92 2.02 1.38 3.54 1.38zm0-2.52c-.496 0-.876-.208-1.14-.624-.264-.416-.396-1.04-.396-1.872v-7.392c0-.816.132-1.432.396-1.848.264-.416.644-.624 1.14-.624a1.3 1.3 0 0 1 1.152.624c.272.416.408 1.04.408 1.872v7.392c0 .832-.136 1.452-.408 1.86-.272.408-.656.612-1.152.612zm10.779 2.52c1.52 0 2.708-.46 3.564-1.38.856-.92 1.284-2.268 1.284-4.044v-6.552c0-1.776-.428-3.124-1.284-4.044-.856-.92-2.044-1.38-3.564-1.38s-2.7.46-3.54 1.38c-.84.92-1.26 2.268-1.26 4.044v6.552c0 1.776.42 3.124 1.26 4.044.84.92 2.02 1.38 3.54 1.38zm0-2.52c-.496 0-.876-.208-1.14-.624-.264-.416-.396-1.04-.396-1.872v-7.392c0-.816.132-1.432.396-1.848.264-.416.644-.624 1.14-.624a1.3 1.3 0 0 1 1.152.624c.272.416.408 1.04.408 1.872v7.392c0 .832-.136 1.452-.408 1.86-.272.408-.656.612-1.152.612zm10.78 2.52c1.52 0 2.707-.46 3.563-1.38.856-.92 1.284-2.268 1.284-4.044v-6.552c0-1.776-.428-3.124-1.284-4.044-.856-.92-2.044-1.38-3.564-1.38s-2.7.46-3.54 1.38c-.84.92-1.26 2.268-1.26 4.044v6.552c0 1.776.42 3.124 1.26 4.044.84.92 2.02 1.38 3.54 1.38zm0-2.52c-.497 0-.877-.208-1.14-.624-.265-.416-.397-1.04-.397-1.872v-7.392c0-.816.132-1.432.396-1.848.264-.416.644-.624 1.14-.624a1.3 1.3 0 0 1 1.152.624c.272.416.408 1.04.408 1.872v7.392c0 .832-.136 1.452-.408 1.86-.272.408-.656.612-1.152.612zm7.059-7.248c.912-.32 1.572-.804 1.98-1.452.408-.648.612-1.5.612-2.556v-3.624h-3.6v3.888h1.464v.096c0 .544-.084.96-.252 1.248-.168.288-.508.544-1.02.768l.816 1.632zm8.403 9.816c1.536 0 2.716-.376 3.54-1.128.824-.752 1.236-1.76 1.236-3.024v-1.296c0-.944-.172-1.736-.516-2.376-.344-.64-.972-1.24-1.884-1.8l-2.448-1.488c-.816-.512-1.224-1.184-1.224-2.016v-.768c0-.416.116-.76.348-1.032.232-.272.556-.408.972-.408.944 0 1.416.632 1.416 1.896v1.824l3.312-.624v-1.248c0-1.536-.404-2.648-1.212-3.336-.808-.688-1.98-1.032-3.516-1.032-1.376 0-2.5.356-3.372 1.068-.872.712-1.308 1.74-1.308 3.084v.888c0 .928.18 1.72.54 2.376.36.656.964 1.24 1.812 1.752l2.424 1.488c.512.336.848.66 1.008.972.16.312.24.748.24 1.308v.696c0 .496-.108.896-.324 1.2-.216.304-.556.456-1.02.456-.96 0-1.44-.72-1.44-2.16v-1.944l-3.384.648v1.368c0 1.44.42 2.576 1.26 3.408.84.832 2.02 1.248 3.54 1.248z" fill="#CB7958"/><path d="m164.097 195 .624-3.984h3.096l.624 3.984h3.336l-3.312-17.04h-4.368L160.761 195h3.336zm3.36-6.408h-2.376l.84-5.376c.176-1.184.28-1.992.312-2.424h.072c.08.704.184 1.512.312 2.424l.84 5.376zm8.236 6.408v-8.945c-.003-1.978-.027-3.397-.072-4.255h.12c.032.448.104 1.032.216 1.752l.096.768 1.824 10.68h2.4l1.8-10.68c.112-.688.224-1.528.336-2.52h.096c-.048.912-.072 2.456-.072 4.632V195h2.88v-17.04h-4.488l-1.416 8.856c-.016.144-.064.504-.144 1.08-.08.576-.12 1.048-.12 1.416h-.096c-.016-.592-.112-1.424-.288-2.496l-1.44-8.856h-4.464V195h2.832zm19.587 0v-2.568h-4.608v-4.92h4.104v-2.568h-4.104v-4.416h4.44v-2.568h-7.776V195h7.944zm4.515 0v-6.936h1.2l1.872 6.936h3.48l-2.4-7.728a3.28 3.28 0 0 0 1.5-1.464c.344-.656.516-1.48.516-2.472v-.816c-.016-1.488-.42-2.62-1.212-3.396-.792-.776-2.044-1.164-3.756-1.164h-4.536V195h3.336zm.984-9.072h-.984v-5.664h.984c.64 0 1.092.164 1.356.492.264.328.396.884.396 1.668v1.08c0 .848-.132 1.464-.396 1.848-.264.384-.716.576-1.356.576zm9.94 9.072v-17.04h-3.336V195h3.336zm6.531.408c1.552 0 2.76-.412 3.624-1.236.864-.824 1.296-2.004 1.296-3.54v-1.848l-3.408-.696v2.544c0 .688-.128 1.216-.384 1.584-.256.368-.632.552-1.128.552-.512 0-.904-.212-1.176-.636-.272-.424-.408-1.044-.408-1.86v-7.704c0-1.6.528-2.4 1.584-2.4.992 0 1.488.712 1.488 2.136v2.28l3.432-.648v-1.728c0-1.536-.416-2.696-1.248-3.48-.832-.784-2.032-1.176-3.6-1.176-1.648 0-2.908.452-3.78 1.356-.872.904-1.308 2.22-1.308 3.948v7.224c0 1.76.424 3.088 1.272 3.984.848.896 2.096 1.344 3.744 1.344zm8.572-.408.624-3.984h3.096l.624 3.984h3.336l-3.312-17.04h-4.368L222.486 195h3.336zm3.36-6.408h-2.376l.84-5.376c.176-1.184.28-1.992.312-2.424h.072c.08.704.184 1.512.312 2.424l.84 5.376zm5.163-3c.912-.32 1.572-.804 1.98-1.452.408-.648.612-1.5.612-2.556v-3.624h-3.6v3.888h1.464v.096c0 .544-.084.96-.252 1.248-.168.288-.508.544-1.02.768l.816 1.632zm8.404 9.816c1.536 0 2.716-.376 3.54-1.128.824-.752 1.236-1.76 1.236-3.024v-1.296c0-.944-.172-1.736-.516-2.376-.344-.64-.972-1.24-1.884-1.8l-2.448-1.488c-.816-.512-1.224-1.184-1.224-2.016v-.768c0-.416.116-.76.348-1.032.232-.272.556-.408.972-.408.944 0 1.416.632 1.416 1.896v1.824l3.312-.624v-1.248c0-1.536-.404-2.648-1.212-3.336-.808-.688-1.98-1.032-3.516-1.032-1.376 0-2.5.356-3.372 1.068-.872.712-1.308 1.74-1.308 3.084v.888c0 .928.18 1.72.54 2.376.36.656.964 1.24 1.812 1.752l2.424 1.488c.512.336.848.66 1.008.972.16.312.24.748.24 1.308v.696c0 .496-.108.896-.324 1.2-.216.304-.556.456-1.02.456-.96 0-1.44-.72-1.44-2.16v-1.944l-3.384.648v1.368c0 1.44.42 2.576 1.26 3.408.84.832 2.02 1.248 3.54 1.248zM85.599 225v-7.464h4.103v-2.568h-4.104v-4.416h4.44v-2.592h-7.776V225h3.336zm6.723 0 .624-3.984h3.096l.624 3.984h3.336l-3.312-17.04h-4.368L88.986 225h3.336zm3.36-6.408h-2.376l.84-5.376c.176-1.184.28-1.992.312-2.424h.072c.08.704.184 1.512.312 2.424l.84 5.376zm9.291 6.816c1.536 0 2.716-.376 3.54-1.128.824-.752 1.236-1.76 1.236-3.024v-1.296c0-.944-.172-1.736-.516-2.376-.344-.64-.972-1.24-1.884-1.8l-2.448-1.488c-.816-.512-1.224-1.184-1.224-2.016v-.768c0-.416.116-.76.348-1.032.232-.272.556-.408.972-.408.944 0 1.416.632 1.416 1.896v1.824l3.312-.624v-1.248c0-1.536-.404-2.648-1.212-3.336-.808-.688-1.98-1.032-3.516-1.032-1.376 0-2.5.356-3.372 1.068-.872.712-1.308 1.74-1.308 3.084v.888c0 .928.18 1.72.54 2.376.36.656.964 1.24 1.812 1.752l2.424 1.488c.512.336.848.66 1.008.972.16.312.24.748.24 1.308v.696c0 .496-.108.896-.324 1.2-.216.304-.556.456-1.02.456-.96 0-1.44-.72-1.44-2.16v-1.944l-3.384.648v1.368c0 1.44.42 2.576 1.26 3.408.84.832 2.02 1.248 3.54 1.248zm11.284-.408v-14.208h3.24v-2.832h-9.792v2.832h3.24V225h3.312zm11.955 0v-2.568h-4.608v-4.92h4.104v-2.568h-4.104v-4.416h4.44v-2.568h-7.776V225h7.944zm5.067.408c1.536 0 2.716-.376 3.54-1.128.824-.752 1.236-1.76 1.236-3.024v-1.296c0-.944-.172-1.736-.516-2.376-.344-.64-.972-1.24-1.884-1.8l-2.448-1.488c-.816-.512-1.224-1.184-1.224-2.016v-.768c0-.416.116-.76.348-1.032.232-.272.556-.408.972-.408.944 0 1.416.632 1.416 1.896v1.824l3.312-.624v-1.248c0-1.536-.404-2.648-1.212-3.336-.808-.688-1.98-1.032-3.516-1.032-1.376 0-2.5.356-3.372 1.068-.872.712-1.308 1.74-1.308 3.084v.888c0 .928.18 1.72.54 2.376.36.656.964 1.24 1.812 1.752l2.424 1.488c.512.336.848.66 1.008.972.16.312.24.748.24 1.308v.696c0 .496-.108.896-.324 1.2-.216.304-.556.456-1.02.456-.96 0-1.44-.72-1.44-2.16v-1.944l-3.384.648v1.368c0 1.44.42 2.576 1.26 3.408.84.832 2.02 1.248 3.54 1.248zm11.284-.408v-14.208h3.24v-2.832h-9.792v2.832h3.24V225h3.312zm8.02-5.208v-2.928h-5.737v2.928h5.736zm5.379 5.616c.912 0 1.656-.252 2.232-.756.576-.504.96-1.196 1.152-2.076l.168 2.424h2.4v-9.336h-5.064v2.544h1.896v2.16c0 .752-.136 1.348-.408 1.788-.272.44-.688.66-1.248.66s-.984-.232-1.272-.696c-.288-.464-.432-1.128-.432-1.992v-7.416c0-1.776.544-2.664 1.632-2.664.976 0 1.464.672 1.464 2.016v1.848l3.408-.624v-1.32c0-1.392-.42-2.476-1.26-3.252-.84-.776-2.028-1.164-3.564-1.164-1.648 0-2.912.492-3.792 1.476-.88.984-1.32 2.38-1.32 4.188v6.768c0 1.744.344 3.084 1.032 4.02.688.936 1.68 1.404 2.976 1.404zm11.02-.408v-6.936h1.2l1.871 6.936h3.48l-2.4-7.728a3.28 3.28 0 0 0 1.5-1.464c.344-.656.516-1.48.516-2.472v-.816c-.016-1.488-.42-2.62-1.212-3.396-.792-.776-2.044-1.164-3.756-1.164h-4.536V225h3.336zm.983-9.072h-.984v-5.664h.984c.64 0 1.092.164 1.356.492.264.328.396.884.396 1.668v1.08c0 .848-.132 1.464-.396 1.848-.264.384-.716.576-1.356.576zm11.212 9.48c1.648 0 2.924-.468 3.828-1.404.904-.936 1.356-2.268 1.356-3.996v-7.056c0-1.728-.452-3.06-1.356-3.996-.904-.936-2.18-1.404-3.828-1.404-1.632 0-2.9.468-3.804 1.404-.904.936-1.356 2.268-1.356 3.996v7.056c0 1.728.452 3.06 1.356 3.996.904.936 2.172 1.404 3.804 1.404zm0-2.616c-.56 0-.988-.204-1.284-.612-.296-.408-.444-.996-.444-1.764v-7.872c0-.768.148-1.356.444-1.764.296-.408.724-.612 1.284-.612s.992.204 1.296.612c.304.408.456.996.456 1.764v7.872c0 .768-.152 1.356-.456 1.764-.304.408-.736.612-1.296.612zM192.724 225l1.152-9.72c.048-.384.084-.804.108-1.26.024-.456.044-.788.06-.996 0-.32.008-.552.024-.696h.12c.016.144.024.376.024.696.016.208.036.54.06.996.024.456.06.876.108 1.26l1.152 9.72h3.912l1.944-17.04h-3.072l-.888 10.464a59.308 59.308 0 0 0-.144 2.784h-.096a73.227 73.227 0 0 1-.24-2.568l-1.224-10.68h-3.192l-1.224 10.68-.24 2.568h-.12c0-.736-.048-1.664-.144-2.784l-.864-10.464h-3.072l1.944 17.04h3.912zm13.251 0v-17.04h-3.336V225h3.336zm4.972 0v-8.352c0-.384-.008-.824-.024-1.32-.016-.496-.032-.88-.048-1.152l-.048-.84h.072c.208.912.456 1.808.744 2.688l3.12 8.976h3.216v-17.04h-2.928v7.056c0 1.12.04 2.376.12 3.768h-.048a44.7 44.7 0 0 0-.696-2.544l-2.856-8.28h-3.576V225h2.952zm12.555.408c.912 0 1.656-.252 2.232-.756.576-.504.96-1.196 1.152-2.076l.168 2.424h2.4v-9.336h-5.064v2.544h1.896v2.16c0 .752-.136 1.348-.408 1.788-.272.44-.688.66-1.248.66s-.984-.232-1.272-.696c-.288-.464-.432-1.128-.432-1.992v-7.416c0-1.776.544-2.664 1.632-2.664.976 0 1.464.672 1.464 2.016v1.848l3.408-.624v-1.32c0-1.392-.42-2.476-1.26-3.252-.84-.776-2.028-1.164-3.564-1.164-1.648 0-2.912.492-3.792 1.476-.88.984-1.32 2.38-1.32 4.188v6.768c0 1.744.344 3.084 1.032 4.02.688.936 1.68 1.404 2.976 1.404zM79.08 255v-6.528h1.416c1.52 0 2.688-.408 3.504-1.224.816-.816 1.224-1.984 1.224-3.504v-1.416c-.016-1.44-.424-2.528-1.224-3.264-.8-.736-1.992-1.104-3.576-1.104h-4.68V255h3.336zm1.008-8.88h-1.008v-5.856h1.008c.592 0 1.024.172 1.296.516.272.344.408.9.408 1.668v1.248c0 .848-.136 1.464-.408 1.848-.272.384-.704.576-1.296.576zM89.57 255v-6.936h1.2L92.642 255h3.48l-2.4-7.728a3.28 3.28 0 0 0 1.5-1.464c.344-.656.516-1.48.516-2.472v-.816c-.016-1.488-.42-2.62-1.212-3.396-.792-.776-2.044-1.164-3.756-1.164h-4.536V255h3.336zm.984-9.072h-.984v-5.664h.984c.64 0 1.092.164 1.356.492.264.328.396.884.396 1.668v1.08c0 .848-.132 1.464-.396 1.848-.264.384-.716.576-1.356.576zm9.94 9.072v-17.04h-3.336V255h3.336zm8.355 0 3.24-17.04h-3.432l-1.608 11.112a40.974 40.974 0 0 0-.264 2.88h-.12a29.25 29.25 0 0 0-.288-2.88l-1.608-11.112h-3.432l3.264 17.04h4.248zm5.74 0 .624-3.984h3.096l.624 3.984h3.336l-3.312-17.04h-4.368L111.253 255h3.336zm3.36-6.408h-2.376l.84-5.376c.176-1.184.28-1.992.312-2.424h.072c.08.704.184 1.512.312 2.424l.84 5.376zm9.339 6.408v-14.208h3.24v-2.832h-9.792v2.832h3.24V255h3.312zm11.955 0v-2.568h-4.608v-4.92h4.104v-2.568h-4.104v-4.416h4.44v-2.568H131.3V255h7.944zm9.271.408c1.552 0 2.76-.412 3.624-1.236.864-.824 1.296-2.004 1.296-3.54v-1.848l-3.408-.696v2.544c0 .688-.128 1.216-.384 1.584-.256.368-.632.552-1.128.552-.512 0-.904-.212-1.176-.636-.272-.424-.408-1.044-.408-1.86v-7.704c0-1.6.528-2.4 1.584-2.4.992 0 1.488.712 1.488 2.136v2.28l3.432-.648v-1.728c0-1.536-.416-2.696-1.248-3.48-.832-.784-2.032-1.176-3.6-1.176-1.648 0-2.908.452-3.78 1.356-.872.904-1.308 2.22-1.308 3.948v7.224c0 1.76.424 3.088 1.272 3.984.848.896 2.096 1.344 3.744 1.344zm11.044 0c1.648 0 2.924-.468 3.828-1.404.904-.936 1.356-2.268 1.356-3.996v-7.056c0-1.728-.452-3.06-1.356-3.996-.904-.936-2.18-1.404-3.828-1.404-1.632 0-2.9.468-3.804 1.404-.904.936-1.356 2.268-1.356 3.996v7.056c0 1.728.452 3.06 1.356 3.996.904.936 2.172 1.404 3.804 1.404zm0-2.616c-.56 0-.988-.204-1.284-.612-.296-.408-.444-.996-.444-1.764v-7.872c0-.768.148-1.356.444-1.764.296-.408.724-.612 1.284-.612s.992.204 1.296.612c.304.408.456.996.456 1.764v7.872c0 .768-.152 1.356-.456 1.764-.304.408-.736.612-1.296.612zm9.531 2.208v-8.568c0-2.176-.024-3.72-.072-4.632h.12c.032.448.104 1.032.216 1.752l.096.768 1.824 10.68h2.4l1.8-10.68c.112-.688.224-1.528.336-2.52h.096c-.048.912-.072 2.456-.072 4.632V255h2.88v-17.04h-4.488l-1.416 8.856c-.016.144-.064.504-.144 1.08-.08.576-.12 1.048-.12 1.416h-.096c-.016-.592-.112-1.424-.288-2.496l-1.44-8.856h-4.464V255h2.832zm14.98 0v-6.528h1.416c1.52 0 2.688-.408 3.504-1.224.816-.816 1.224-1.984 1.224-3.504v-1.416c-.016-1.44-.424-2.528-1.224-3.264-.8-.736-1.992-1.104-3.576-1.104h-4.68V255h3.336zm1.008-8.88h-1.008v-5.856h1.008c.592 0 1.024.172 1.296.516.272.344.408.9.408 1.668v1.248c0 .848-.136 1.464-.408 1.848-.272.384-.704.576-1.296.576zm7.563 8.88.624-3.984h3.096l.624 3.984h3.336l-3.312-17.04h-4.368L189.304 255h3.336zm3.36-6.408h-2.376l.84-5.376c.176-1.184.28-1.992.312-2.424h.072c.08.704.184 1.512.312 2.424l.84 5.376zm8.355 6.408v-8.352c0-.384-.008-.824-.024-1.32-.016-.496-.032-.88-.048-1.152l-.048-.84h.072c.208.912.456 1.808.744 2.688l3.12 8.976h3.216v-17.04h-2.928v7.056c0 1.12.04 2.376.12 3.768h-.048a44.7 44.7 0 0 0-.696-2.544l-2.856-8.28h-3.576V255h2.952zm12.388 0v-17.04h-3.336V255h3.336zm9.963 0v-2.568h-4.608v-4.92h4.104v-2.568h-4.104v-4.416h4.44v-2.568h-7.776V255h7.944zm5.068.408c1.536 0 2.716-.376 3.54-1.128.824-.752 1.236-1.76 1.236-3.024v-1.296c0-.944-.172-1.736-.516-2.376-.344-.64-.972-1.24-1.884-1.8l-2.448-1.488c-.816-.512-1.224-1.184-1.224-2.016v-.768c0-.416.116-.76.348-1.032.232-.272.556-.408.972-.408.944 0 1.416.632 1.416 1.896v1.824l3.312-.624v-1.248c0-1.536-.404-2.648-1.212-3.336-.808-.688-1.98-1.032-3.516-1.032-1.376 0-2.5.356-3.372 1.068-.872.712-1.308 1.74-1.308 3.084v.888c0 .928.18 1.72.54 2.376.36.656.964 1.24 1.812 1.752l2.424 1.488c.512.336.848.66 1.008.972.16.312.24.748.24 1.308v.696c0 .496-.108.896-.324 1.2-.216.304-.556.456-1.02.456-.96 0-1.44-.72-1.44-2.16v-1.944l-3.384.648v1.368c0 1.44.42 2.576 1.26 3.408.84.832 2.02 1.248 3.54 1.248z" fill="#3E3E3E"/></g><path stroke="#00B2A4" stroke-width="2" d="M1 1h308v300H1z"/></g></svg>