<svg width="310" height="302" xmlns="http://www.w3.org/2000/svg"><g fill="none" fill-rule="evenodd"><path d="M62.515 132v-22.392h12.312v-7.704H62.515V88.656h13.32V80.88H52.507V132h10.008zm26.29 0V80.88H78.797V132h10.008zm14.914 0v-25.056c0-1.152-.024-2.472-.072-3.96-.048-1.488-.096-2.64-.144-3.456l-.144-2.52h.216a90.883 90.883 0 0 0 2.232 8.064l9.36 26.928h9.648V80.88h-8.784v21.168c0 3.36.12 7.128.36 11.304h-.144a134.1 134.1 0 0 0-2.088-7.632l-8.568-24.84H94.863V132h8.856zm34.283 0 1.872-11.952h9.288L151.034 132h10.008l-9.936-51.12h-13.104L127.994 132h10.008zm10.08-19.224h-7.128l2.52-16.128c.528-3.552.84-5.976.936-7.272h.216c.24 2.112.552 4.536.936 7.272l2.52 16.128zM186.9 132v-8.784h-12.6V80.88h-10.008V132H186.9zm13.114 0V80.88h-10.008V132h10.008zm17.939 1.224c4.608 0 8.148-1.128 10.62-3.384 2.472-2.256 3.708-5.28 3.708-9.072v-3.888c0-2.832-.516-5.208-1.548-7.128s-2.916-3.72-5.652-5.4l-7.344-4.464c-2.448-1.536-3.672-3.552-3.672-6.048v-2.304c0-1.248.348-2.28 1.044-3.096.696-.816 1.668-1.224 2.916-1.224 2.832 0 4.248 1.896 4.248 5.688v5.472l9.936-1.872V92.76c0-4.608-1.212-7.944-3.636-10.008-2.424-2.064-5.94-3.096-10.548-3.096-4.128 0-7.5 1.068-10.116 3.204-2.616 2.136-3.924 5.22-3.924 9.252v2.664c0 2.784.54 5.16 1.62 7.128s2.892 3.72 5.436 5.256l7.272 4.464c1.536 1.008 2.544 1.98 3.024 2.916.48.936.72 2.244.72 3.924v2.088c0 1.488-.324 2.688-.972 3.6-.648.912-1.668 1.368-3.06 1.368-2.88 0-4.32-2.16-4.32-6.48v-5.832l-10.152 1.944v4.104c0 4.32 1.26 7.728 3.78 10.224 2.52 2.496 6.06 3.744 10.62 3.744zm33.85-1.224V89.376h9.72V80.88h-29.376v8.496h9.72V132h9.936z" fill="#00B2A4" fill-rule="nonzero"/><g fill-rule="nonzero"><path d="m38.628 199-.001-8.59c-.003-.324-.01-.685-.023-1.082-.016-.496-.032-.88-.048-1.152l-.048-.84h.072c.208.912.456 1.808.744 2.688l3.12 8.976h3.216v-17.04h-2.928v7.056c0 1.12.04 2.376.12 3.768h-.048a44.7 44.7 0 0 0-.696-2.544l-2.856-8.28h-3.576V199h2.952zm11.427 0 .624-3.984h3.096L54.4 199h3.336l-3.312-17.04h-4.368L46.72 199h3.336zm3.36-6.408H51.04l.84-5.376c.176-1.184.28-1.992.312-2.424h.072c.08.704.184 1.512.312 2.424l.84 5.376zm9.292 6.816c1.536 0 2.716-.376 3.54-1.128.824-.752 1.236-1.76 1.236-3.024v-1.296c0-.944-.172-1.736-.516-2.376-.344-.64-.972-1.24-1.884-1.8l-2.448-1.488c-.816-.512-1.224-1.184-1.224-2.016v-.768c0-.416.116-.76.348-1.032.232-.272.556-.408.972-.408.944 0 1.416.632 1.416 1.896v1.824l3.312-.624v-1.248c0-1.536-.404-2.648-1.212-3.336-.808-.688-1.98-1.032-3.516-1.032-1.376 0-2.5.356-3.372 1.068-.872.712-1.308 1.74-1.308 3.084v.888c0 .928.18 1.72.54 2.376.36.656.964 1.24 1.812 1.752l2.424 1.488c.512.336.848.66 1.008.972.16.312.24.748.24 1.308v.696c0 .496-.108.896-.324 1.2-.216.304-.556.456-1.02.456-.96 0-1.44-.72-1.44-2.16v-1.944l-3.384.648v1.368c0 1.44.42 2.576 1.26 3.408.84.832 2.02 1.248 3.54 1.248zm9.267-.408v-7.416h3.096V199h3.336v-17.04H75.07v7.056h-3.096v-7.056h-3.336V199h3.336zm14.788 0 3.24-17.04H86.57l-1.608 11.112a40.974 40.974 0 0 0-.264 2.88h-.12a29.25 29.25 0 0 0-.288-2.88l-1.608-11.112H79.25L82.514 199h4.248zm7.42 0v-17.04h-3.337V199h3.336zm9.555 0v-2.928h-4.2V181.96H96.2V199h7.536zm8.571 0v-2.928h-4.2V181.96h-3.336V199h7.536zm8.98 0v-2.568h-4.609v-4.92h4.104v-2.568h-4.104v-4.416h4.44v-2.568h-7.776V199h7.944zm9.582 0c1.552 0 2.724-.404 3.516-1.212.792-.808 1.188-1.948 1.188-3.42v-.504c0-2.048-.8-3.336-2.4-3.864.688-.208 1.224-.596 1.608-1.164.384-.568.576-1.268.576-2.1v-.576c0-1.312-.384-2.34-1.152-3.084-.768-.744-1.928-1.116-3.48-1.116h-4.68V199h4.824zm-.528-9.792h-.96v-4.944h.936c.592 0 1.012.156 1.26.468.248.312.372.82.372 1.524v.552c0 .832-.12 1.44-.36 1.824-.24.384-.656.576-1.248.576zm.192 7.488h-1.152v-5.376h1.08c.592 0 1.02.188 1.284.564.264.376.396.988.396 1.836v.6c0 .8-.124 1.396-.372 1.788-.248.392-.66.588-1.236.588zm11.044 2.712c1.536 0 2.728-.404 3.576-1.212.848-.808 1.272-1.924 1.272-3.348V181.96h-3.312v12.744c0 .608-.136 1.076-.408 1.404-.272.328-.648.492-1.128.492-.496 0-.876-.164-1.14-.492-.264-.328-.396-.796-.396-1.404V181.96h-3.336v12.888c0 1.424.424 2.54 1.272 3.348.848.808 2.048 1.212 3.6 1.212zm10.683 0c1.536 0 2.716-.376 3.54-1.128.824-.752 1.236-1.76 1.236-3.024v-1.296c0-.944-.172-1.736-.516-2.376-.344-.64-.972-1.24-1.884-1.8l-2.448-1.488c-.816-.512-1.224-1.184-1.224-2.016v-.768c0-.416.116-.76.348-1.032.232-.272.556-.408.972-.408.944 0 1.416.632 1.416 1.896v1.824l3.312-.624v-1.248c0-1.536-.404-2.648-1.212-3.336-.808-.688-1.98-1.032-3.516-1.032-1.376 0-2.5.356-3.372 1.068-.872.712-1.308 1.74-1.308 3.084v.888c0 .928.18 1.72.54 2.376.36.656.964 1.24 1.812 1.752l2.424 1.488c.512.336.848.66 1.008.972.16.312.24.748.24 1.308v.696c0 .496-.108.896-.324 1.2-.216.304-.556.456-1.02.456-.96 0-1.44-.72-1.44-2.16v-1.944l-3.384.648v1.368c0 1.44.42 2.576 1.26 3.408.84.832 2.02 1.248 3.54 1.248zm9.268-.408v-17.04h-3.336V199h3.336zm4.971 0v-8.352c0-.384-.008-.824-.024-1.32-.016-.496-.032-.88-.048-1.152l-.048-.84h.072c.208.912.456 1.808.744 2.688l3.12 8.976h3.216v-17.04h-2.928v7.056c0 1.12.04 2.376.12 3.768h-.048a44.7 44.7 0 0 0-.696-2.544l-2.856-8.28h-3.576V199h2.952zm16.995 0v-2.568h-4.608v-4.92h4.104v-2.568h-4.104v-4.416h4.44v-2.568h-7.776V199h7.944zm5.068.408c1.536 0 2.716-.376 3.54-1.128.824-.752 1.236-1.76 1.236-3.024v-1.296c0-.944-.172-1.736-.516-2.376-.344-.64-.972-1.24-1.884-1.8l-2.448-1.488c-.816-.512-1.224-1.184-1.224-2.016v-.768c0-.416.116-.76.348-1.032.232-.272.556-.408.972-.408.944 0 1.416.632 1.416 1.896v1.824l3.312-.624v-1.248c0-1.536-.404-2.648-1.212-3.336-.808-.688-1.98-1.032-3.516-1.032-1.376 0-2.5.356-3.372 1.068-.872.712-1.308 1.74-1.308 3.084v.888c0 .928.18 1.72.54 2.376.36.656.964 1.24 1.812 1.752l2.424 1.488c.512.336.848.66 1.008.972.16.312.24.748.24 1.308v.696c0 .496-.108.896-.324 1.2-.216.304-.556.456-1.02.456-.96 0-1.44-.72-1.44-2.16v-1.944l-3.384.648v1.368c0 1.44.42 2.576 1.26 3.408.84.832 2.02 1.248 3.54 1.248zm9.94 0c1.535 0 2.715-.376 3.54-1.128.823-.752 1.235-1.76 1.235-3.024v-1.296c0-.944-.172-1.736-.516-2.376-.344-.64-.972-1.24-1.884-1.8l-2.448-1.488c-.816-.512-1.224-1.184-1.224-2.016v-.768c0-.416.116-.76.348-1.032.232-.272.556-.408.972-.408.944 0 1.416.632 1.416 1.896v1.824l3.312-.624v-1.248c0-1.536-.404-2.648-1.212-3.336-.808-.688-1.98-1.032-3.516-1.032-1.376 0-2.5.356-3.372 1.068-.872.712-1.308 1.74-1.308 3.084v.888c0 .928.18 1.72.54 2.376.36.656.964 1.24 1.812 1.752l2.424 1.488c.512.336.848.66 1.008.972.16.312.24.748.24 1.308v.696c0 .496-.108.896-.324 1.2-.216.304-.556.456-1.02.456-.96 0-1.44-.72-1.44-2.16v-1.944l-3.384.648v1.368c0 1.44.42 2.576 1.26 3.408.84.832 2.02 1.248 3.54 1.248zm10.014-.144c2.72 0 4.08-1.272 4.08-3.816V181.96h-3.312v12.744c0 1.056-.48 1.584-1.44 1.584-.288 0-.6-.032-.936-.096v2.928a8 8 0 0 0 1.608.144zm10.612.144c1.648 0 2.924-.468 3.828-1.404.904-.936 1.356-2.268 1.356-3.996v-7.056c0-1.728-.452-3.06-1.356-3.996-.904-.936-2.18-1.404-3.828-1.404-1.632 0-2.9.468-3.804 1.404-.904.936-1.356 2.268-1.356 3.996v7.056c0 1.728.452 3.06 1.356 3.996.904.936 2.172 1.404 3.804 1.404zm0-2.616c-.56 0-.988-.204-1.284-.612-.296-.408-.444-.996-.444-1.764v-7.872c0-.768.148-1.356.444-1.764.296-.408.724-.612 1.284-.612s.992.204 1.296.612c.304.408.456.996.456 1.764v7.872c0 .768-.152 1.356-.456 1.764-.304.408-.736.612-1.296.612zm11.427 2.616c1.536 0 2.728-.404 3.576-1.212.848-.808 1.272-1.924 1.272-3.348V181.96h-3.312v12.744c0 .608-.136 1.076-.408 1.404-.272.328-.648.492-1.128.492-.496 0-.876-.164-1.14-.492-.264-.328-.396-.796-.396-1.404V181.96h-3.336v12.888c0 1.424.424 2.54 1.272 3.348.848.808 2.048 1.212 3.6 1.212zm10.06-.408v-6.936h1.2l1.871 6.936h3.48l-2.4-7.728a3.28 3.28 0 0 0 1.5-1.464c.344-.656.516-1.48.516-2.472v-.816c-.016-1.488-.42-2.62-1.212-3.396-.792-.776-2.044-1.164-3.756-1.164h-4.536V199h3.336zm.983-9.072h-.984v-5.664h.984c.64 0 1.092.164 1.356.492.264.328.396.884.396 1.668v1.08c0 .848-.132 1.464-.396 1.848-.264.384-.716.576-1.356.576zm9.556 9.072v-8.352c0-.384-.008-.824-.024-1.32-.016-.496-.032-.88-.048-1.152l-.048-.84h.072c.208.912.456 1.808.744 2.688l3.12 8.976h3.216v-17.04h-2.928v7.056c0 1.12.04 2.376.12 3.768h-.048a44.7 44.7 0 0 0-.696-2.544l-2.856-8.28h-3.576V199h2.952zm11.427 0 .624-3.984h3.096l.624 3.984h3.336l-3.312-17.04h-4.368L259.246 199h3.336zm3.36-6.408h-2.376l.84-5.376c.176-1.184.28-1.992.312-2.424h.072c.08.704.184 1.512.312 2.424l.84 5.376zm12.94 6.408v-2.928h-4.2V181.96h-3.336V199h7.536zm.555-9.408c.912-.32 1.572-.804 1.98-1.452.408-.648.612-1.5.612-2.556v-3.624h-3.6v3.888h1.464v.096c0 .544-.084.96-.252 1.248-.168.288-.508.544-1.02.768l.816 1.632zm8.404 9.816c1.536 0 2.716-.376 3.54-1.128.824-.752 1.236-1.76 1.236-3.024v-1.296c0-.944-.172-1.736-.516-2.376-.344-.64-.972-1.24-1.884-1.8l-2.448-1.488c-.816-.512-1.224-1.184-1.224-2.016v-.768c0-.416.116-.76.348-1.032.232-.272.556-.408.972-.408.944 0 1.416.632 1.416 1.896v1.824l3.312-.624v-1.248c0-1.536-.404-2.648-1.212-3.336-.808-.688-1.98-1.032-3.516-1.032-1.376 0-2.5.356-3.372 1.068-.872.712-1.308 1.74-1.308 3.084v.888c0 .928.18 1.72.54 2.376.36.656.964 1.24 1.812 1.752l2.424 1.488c.512.336.848.66 1.008.972.16.312.24.748.24 1.308v.696c0 .496-.108.896-.324 1.2-.216.304-.556.456-1.02.456-.96 0-1.44-.72-1.44-2.16v-1.944l-3.384.648v1.368c0 1.44.42 2.576 1.26 3.408.84.832 2.02 1.248 3.54 1.248z" fill="#CB7958"/><path d="M62.517 229c1.552 0 2.724-.404 3.516-1.212.792-.808 1.188-1.948 1.188-3.42v-.504c0-2.048-.8-3.336-2.4-3.864.688-.208 1.224-.596 1.608-1.164.384-.568.576-1.268.576-2.1v-.576c0-1.312-.384-2.34-1.152-3.084-.768-.744-1.928-1.116-3.48-1.116h-4.68V229h4.824zm-.528-9.792h-.96v-4.944h.936c.592 0 1.012.156 1.26.468.248.312.372.82.372 1.524v.552c0 .832-.12 1.44-.36 1.824-.24.384-.656.576-1.248.576zm.192 7.488h-1.152v-5.376h1.08c.592 0 1.02.188 1.284.564.264.376.396.988.396 1.836v.6c0 .8-.124 1.396-.372 1.788-.248.392-.66.588-1.236.588zM76.512 229v-2.568h-4.608v-4.92h4.104v-2.568h-4.104v-4.416h4.44v-2.568h-7.776V229h7.944zm5.067.408c1.536 0 2.716-.376 3.54-1.128.824-.752 1.236-1.76 1.236-3.024v-1.296c0-.944-.172-1.736-.516-2.376-.344-.64-.972-1.24-1.884-1.8l-2.448-1.488c-.816-.512-1.224-1.184-1.224-2.016v-.768c0-.416.116-.76.348-1.032.232-.272.556-.408.972-.408.944 0 1.416.632 1.416 1.896v1.824l3.312-.624v-1.248c0-1.536-.404-2.648-1.212-3.336-.808-.688-1.98-1.032-3.516-1.032-1.376 0-2.5.356-3.372 1.068-.872.712-1.308 1.74-1.308 3.084v.888c0 .928.18 1.72.54 2.376.36.656.964 1.24 1.812 1.752l2.424 1.488c.512.336.848.66 1.008.972.16.312.24.748.24 1.308v.696c0 .496-.108.896-.324 1.2-.216.304-.556.456-1.02.456-.96 0-1.44-.72-1.44-2.16v-1.944l-3.384.648v1.368c0 1.44.42 2.576 1.26 3.408.84.832 2.02 1.248 3.54 1.248zM92.863 229v-14.208h3.24v-2.832H86.31v2.832h3.24V229h3.312zm10.927 0v-17.04h-3.336V229h3.336zm4.971 0v-8.352c0-.384-.008-.824-.024-1.32-.016-.496-.032-.88-.048-1.152l-.048-.84h.072c.208.912.456 1.808.744 2.688l3.12 8.976h3.216v-17.04h-2.928v7.056c0 1.12.04 2.376.12 3.768h-.048a44.7 44.7 0 0 0-.696-2.544l-2.856-8.28h-3.576V229h2.952zm17.455 0c1.552 0 2.724-.404 3.516-1.212.792-.808 1.188-1.948 1.188-3.42v-.504c0-2.048-.8-3.336-2.4-3.864.688-.208 1.224-.596 1.608-1.164.384-.568.576-1.268.576-2.1v-.576c0-1.312-.384-2.34-1.152-3.084-.768-.744-1.928-1.116-3.48-1.116h-4.68V229h4.824zm-.528-9.792h-.96v-4.944h.936c.592 0 1.012.156 1.26.468.248.312.372.82.372 1.524v.552c0 .832-.12 1.44-.36 1.824-.24.384-.656.576-1.248.576zm.192 7.488h-1.152v-5.376h1.08c.592 0 1.02.188 1.284.564.264.376.396.988.396 1.836v.6c0 .8-.124 1.396-.372 1.788-.248.392-.66.588-1.236.588zm11.043 2.712c1.536 0 2.728-.404 3.576-1.212.848-.808 1.272-1.924 1.272-3.348V211.96h-3.312v12.744c0 .608-.136 1.076-.408 1.404-.272.328-.648.492-1.128.492-.496 0-.876-.164-1.14-.492-.264-.328-.396-.796-.396-1.404V211.96h-3.336v12.888c0 1.424.424 2.54 1.272 3.348.848.808 2.048 1.212 3.6 1.212zm10.684 0c1.536 0 2.716-.376 3.54-1.128.824-.752 1.236-1.76 1.236-3.024v-1.296c0-.944-.172-1.736-.516-2.376-.344-.64-.972-1.24-1.884-1.8l-2.448-1.488c-.816-.512-1.224-1.184-1.224-2.016v-.768c0-.416.116-.76.348-1.032.232-.272.556-.408.972-.408.944 0 1.416.632 1.416 1.896v1.824l3.312-.624v-1.248c0-1.536-.404-2.648-1.212-3.336-.808-.688-1.98-1.032-3.516-1.032-1.376 0-2.5.356-3.372 1.068-.872.712-1.308 1.74-1.308 3.084v.888c0 .928.18 1.72.54 2.376.36.656.964 1.24 1.812 1.752l2.424 1.488c.512.336.848.66 1.008.972.16.312.24.748.24 1.308v.696c0 .496-.108.896-.324 1.2-.216.304-.556.456-1.02.456-.96 0-1.44-.72-1.44-2.16v-1.944l-3.384.648v1.368c0 1.44.42 2.576 1.26 3.408.84.832 2.02 1.248 3.54 1.248zm9.267-.408v-17.04h-3.336V229h3.336zm4.972 0v-8.352c0-.384-.008-.824-.024-1.32-.016-.496-.032-.88-.048-1.152l-.048-.84h.072c.208.912.456 1.808.744 2.688l3.12 8.976h3.216v-17.04h-2.928v7.056c0 1.12.04 2.376.12 3.768h-.048a44.7 44.7 0 0 0-.696-2.544l-2.856-8.28h-3.576V229h2.952zm16.995 0v-2.568h-4.608v-4.92h4.104v-2.568h-4.104v-4.416h4.44v-2.568h-7.776V229h7.944zm5.068.408c1.536 0 2.716-.376 3.54-1.128.824-.752 1.236-1.76 1.236-3.024v-1.296c0-.944-.172-1.736-.516-2.376-.344-.64-.972-1.24-1.884-1.8l-2.448-1.488c-.816-.512-1.224-1.184-1.224-2.016v-.768c0-.416.116-.76.348-1.032.232-.272.556-.408.972-.408.944 0 1.416.632 1.416 1.896v1.824l3.312-.624v-1.248c0-1.536-.404-2.648-1.212-3.336-.808-.688-1.98-1.032-3.516-1.032-1.376 0-2.5.356-3.372 1.068-.872.712-1.308 1.74-1.308 3.084v.888c0 .928.18 1.72.54 2.376.36.656.964 1.24 1.812 1.752l2.424 1.488c.512.336.848.66 1.008.972.16.312.24.748.24 1.308v.696c0 .496-.108.896-.324 1.2-.216.304-.556.456-1.02.456-.96 0-1.44-.72-1.44-2.16v-1.944l-3.384.648v1.368c0 1.44.42 2.576 1.26 3.408.84.832 2.02 1.248 3.54 1.248zm9.939 0c1.536 0 2.716-.376 3.54-1.128.824-.752 1.236-1.76 1.236-3.024v-1.296c0-.944-.172-1.736-.516-2.376-.344-.64-.972-1.24-1.884-1.8l-2.448-1.488c-.816-.512-1.224-1.184-1.224-2.016v-.768c0-.416.116-.76.348-1.032.232-.272.556-.408.972-.408.944 0 1.416.632 1.416 1.896v1.824l3.312-.624v-1.248c0-1.536-.404-2.648-1.212-3.336-.808-.688-1.98-1.032-3.516-1.032-1.376 0-2.5.356-3.372 1.068-.872.712-1.308 1.74-1.308 3.084v.888c0 .928.18 1.72.54 2.376.36.656.964 1.24 1.812 1.752l2.424 1.488c.512.336.848.66 1.008.972.16.312.24.748.24 1.308v.696c0 .496-.108.896-.324 1.2-.216.304-.556.456-1.02.456-.96 0-1.44-.72-1.44-2.16v-1.944l-3.384.648v1.368c0 1.44.42 2.576 1.26 3.408.84.832 2.02 1.248 3.54 1.248zm11.887-.408.624-3.984h3.096l.624 3.984h3.336l-3.312-17.04h-4.368L202.399 229h3.336zm3.36-6.408h-2.376l.84-5.376c.176-1.184.28-1.992.312-2.424h.072c.08.704.184 1.512.312 2.424l.84 5.376zm9.891 6.408 1.152-9.72c.048-.384.084-.804.108-1.26.024-.456.044-.788.06-.996 0-.32.008-.552.024-.696h.12c.016.144.024.376.024.696.016.208.036.54.06.996.024.456.06.876.108 1.26l1.152 9.72h3.912l1.944-17.04h-3.072l-.888 10.464a59.308 59.308 0 0 0-.144 2.784h-.096a73.227 73.227 0 0 1-.24-2.568l-1.224-10.68h-3.192l-1.224 10.68-.24 2.568h-.12c0-.736-.048-1.664-.144-2.784l-.864-10.464h-3.072l1.944 17.04h3.912zm11.692 0 .624-3.984h3.096l.624 3.984h3.336l-3.312-17.04h-4.368L227.342 229h3.336zm3.36-6.408h-2.376l.84-5.376c.176-1.184.28-1.992.312-2.424h.072c.08.704.184 1.512.312 2.424l.84 5.376zm8.74 6.408v-6.936h1.2l1.871 6.936h3.48l-2.4-7.728a3.28 3.28 0 0 0 1.5-1.464c.344-.656.516-1.48.516-2.472v-.816c-.016-1.488-.42-2.62-1.212-3.396-.792-.776-2.044-1.164-3.756-1.164h-4.536V229h3.336zm.983-9.072h-.984v-5.664h.984c.64 0 1.092.164 1.356.492.264.328.396.884.396 1.668v1.08c0 .848-.132 1.464-.396 1.848-.264.384-.716.576-1.356.576zM254.853 229c1.792 0 3.156-.52 4.092-1.56.936-1.04 1.404-2.56 1.404-4.56v-5.04c0-1.92-.468-3.38-1.404-4.38-.936-1-2.292-1.5-4.068-1.5h-4.512V229h4.488zm-.12-2.424H253.7v-12.192h1.032c.768 0 1.324.264 1.668.792.344.528.516 1.368.516 2.52v5.424c0 2.304-.728 3.456-2.184 3.456zm11.091 2.832c1.536 0 2.716-.376 3.54-1.128.824-.752 1.236-1.76 1.236-3.024v-1.296c0-.944-.172-1.736-.516-2.376-.344-.64-.972-1.24-1.884-1.8l-2.448-1.488c-.816-.512-1.224-1.184-1.224-2.016v-.768c0-.416.116-.76.348-1.032.232-.272.556-.408.972-.408.944 0 1.416.632 1.416 1.896v1.824l3.312-.624v-1.248c0-1.536-.404-2.648-1.212-3.336-.808-.688-1.98-1.032-3.516-1.032-1.376 0-2.5.356-3.372 1.068-.872.712-1.308 1.74-1.308 3.084v.888c0 .928.18 1.72.54 2.376.36.656.964 1.24 1.812 1.752l2.424 1.488c.512.336.848.66 1.008.972.16.312.24.748.24 1.308v.696c0 .496-.108.896-.324 1.2-.216.304-.556.456-1.02.456-.96 0-1.44-.72-1.44-2.16v-1.944l-3.384.648v1.368c0 1.44.42 2.576 1.26 3.408.84.832 2.02 1.248 3.54 1.248z" fill="#3E3E3E"/></g><path stroke="#00B2A4" stroke-width="2" d="M1 1h308v300H1z"/></g></svg>