<svg width="310" height="302" xmlns="http://www.w3.org/2000/svg"><g fill="none" fill-rule="evenodd"><path d="M154.086 100v-7.848h-16.632c3.072-3.504 5.412-6.264 7.02-8.28a68.11 68.11 0 0 0 4.284-5.976c1.728-2.64 3.024-5.16 3.888-7.56.864-2.4 1.296-4.752 1.296-7.056v-1.944c0-4.368-1.116-7.536-3.348-9.504-2.232-1.968-5.652-2.952-10.26-2.952-4.368 0-7.788 1.164-10.26 3.492-2.472 2.328-3.708 5.58-3.708 9.756V65.8l9.792 1.224v-5.04c0-3.648 1.272-5.472 3.816-5.472 1.296 0 2.256.408 2.88 1.224.624.816.936 2.088.936 3.816v1.512c0 2.256-.336 4.392-1.008 6.408-.672 2.016-1.752 4.176-3.24 6.48-1.44 2.256-3.168 4.656-5.184 7.2-2.016 2.544-4.68 5.76-7.992 9.648v7.2h27.72zm11.242 0 4.248-16.488c.384-1.584.72-3.648 1.008-6.192h.216c.336 3.072.672 5.136 1.008 6.192L176.2 100h10.584L178 72.928l8.064-24.048h-10.368l-3.816 12.888c-.24.864-.504 2.352-.792 4.464l-.288 1.8h-.144c-.048-.24-.144-1.02-.288-2.34a22.301 22.301 0 0 0-.792-3.924l-3.6-12.888h-10.512l8.208 23.976L154.816 100h10.512zm-39.681 30v-5.88h6.09v-2.184h-6.09v-4.347h6.699V115.3h-9.177V130h2.478zm11.217-12.957v-2.373h-2.478v2.373h2.478zM136.822 130v-11.13h-2.394V130h2.394zm5.211 0v-6.909c0-1.428.924-2.331 2.394-2.331 1.575 0 2.163.945 2.163 2.583V130h2.373v-7.287c0-2.625-1.533-4.158-3.969-4.158-1.26 0-2.415.63-3.003 1.386h-.042v-1.071h-2.31V130h2.394zm12.792.315c2.163 0 3.045-1.26 3.15-1.428h.042V130h2.037v-7.203c0-3.066-2.016-4.242-4.494-4.242-2.583 0-4.011 1.47-4.452 3.234l2.037.777c.273-.987.777-1.953 2.478-1.953 1.428 0 2.037.609 2.037 1.323 0 .798-.567 1.05-2.982 1.659-2.688.651-3.78 1.512-3.78 3.465 0 1.68 1.155 3.255 3.927 3.255zm.21-2.079c-1.197 0-1.827-.441-1.827-1.344 0-.609.252-1.176 1.953-1.596 2.205-.588 2.415-.882 2.541-1.155h.042v2.226c0 .945-.798 1.869-2.709 1.869zM165.097 130v-15.33h-2.478V130h2.478zm5.253-12.957v-2.373h-2.478v2.373h2.478zM170.308 130v-11.13h-2.394V130h2.394zm6.933.315c3.15 0 4.431-1.848 4.431-3.402 0-1.617-.693-2.646-3.507-3.444s-3.276-.987-3.276-1.722c0-.609.651-1.197 1.911-1.197 1.533 0 2.184.798 2.541 1.848l2.016-.588c-.504-1.869-1.89-3.255-4.557-3.255-2.667 0-4.095 1.617-4.095 3.297 0 1.68 1.218 2.541 3.738 3.255 2.373.672 3.066.882 3.066 1.764 0 .861-.84 1.428-2.352 1.428-1.575 0-2.499-.903-2.688-2.541l-2.184.525c.273 2.016 1.68 4.032 4.956 4.032zm11.574-.315v-2.31h-.882c-1.218 0-1.449-.504-1.449-1.659v-5.103h2.772v-2.058h-2.793v-2.73h-2.268v2.73h-1.743v2.058h1.68v5.355c0 2.457.819 3.717 3.612 3.717h1.071z" fill="#00B2A4" fill-rule="nonzero"/><g fill-rule="nonzero"><path d="m30.628 195-.001-8.59c-.003-.324-.01-.685-.023-1.082-.016-.496-.032-.88-.048-1.152l-.048-.84h.072c.208.912.456 1.808.744 2.688l3.12 8.976h3.216v-17.04h-2.928v7.056c0 1.12.04 2.376.12 3.768h-.048a44.7 44.7 0 0 0-.696-2.544l-2.856-8.28h-3.576V195h2.952zm11.427 0 .624-3.984h3.096L46.4 195h3.336l-3.312-17.04h-4.368L38.72 195h3.336zm3.36-6.408H43.04l.84-5.376c.176-1.184.28-1.992.312-2.424h.072c.08.704.184 1.512.312 2.424l.84 5.376zm9.292 6.816c1.536 0 2.716-.376 3.54-1.128.824-.752 1.236-1.76 1.236-3.024v-1.296c0-.944-.172-1.736-.516-2.376-.344-.64-.972-1.24-1.884-1.8l-2.448-1.488c-.816-.512-1.224-1.184-1.224-2.016v-.768c0-.416.116-.76.348-1.032.232-.272.556-.408.972-.408.944 0 1.416.632 1.416 1.896v1.824l3.312-.624v-1.248c0-1.536-.404-2.648-1.212-3.336-.808-.688-1.98-1.032-3.516-1.032-1.376 0-2.5.356-3.372 1.068-.872.712-1.308 1.74-1.308 3.084v.888c0 .928.18 1.72.54 2.376.36.656.964 1.24 1.812 1.752l2.424 1.488c.512.336.848.66 1.008.972.16.312.24.748.24 1.308v.696c0 .496-.108.896-.324 1.2-.216.304-.556.456-1.02.456-.96 0-1.44-.72-1.44-2.16v-1.944l-3.384.648v1.368c0 1.44.42 2.576 1.26 3.408.84.832 2.02 1.248 3.54 1.248zm9.267-.408v-7.416h3.096V195h3.336v-17.04H67.07v7.056h-3.096v-7.056h-3.336V195h3.336zm14.788 0 3.24-17.04H78.57l-1.608 11.112a40.974 40.974 0 0 0-.264 2.88h-.12a29.25 29.25 0 0 0-.288-2.88l-1.608-11.112H71.25L74.514 195h4.248zm7.42 0v-17.04h-3.337V195h3.336zm9.555 0v-2.928h-4.2V177.96H88.2V195h7.536zm8.571 0v-2.928h-4.2V177.96h-3.336V195h7.536zm8.98 0v-2.568h-4.609v-4.92h4.104v-2.568h-4.104v-4.416h4.44v-2.568h-7.776V195h7.944zm9.582 0c1.552 0 2.724-.404 3.516-1.212.792-.808 1.188-1.948 1.188-3.42v-.504c0-2.048-.8-3.336-2.4-3.864.688-.208 1.224-.596 1.608-1.164.384-.568.576-1.268.576-2.1v-.576c0-1.312-.384-2.34-1.152-3.084-.768-.744-1.928-1.116-3.48-1.116h-4.68V195h4.824zm-.528-9.792h-.96v-4.944h.936c.592 0 1.012.156 1.26.468.248.312.372.82.372 1.524v.552c0 .832-.12 1.44-.36 1.824-.24.384-.656.576-1.248.576zm.192 7.488h-1.152v-5.376h1.08c.592 0 1.02.188 1.284.564.264.376.396.988.396 1.836v.6c0 .8-.124 1.396-.372 1.788-.248.392-.66.588-1.236.588zm11.044 2.712c1.536 0 2.728-.404 3.576-1.212.848-.808 1.272-1.924 1.272-3.348V177.96h-3.312v12.744c0 .608-.136 1.076-.408 1.404-.272.328-.648.492-1.128.492-.496 0-.876-.164-1.14-.492-.264-.328-.396-.796-.396-1.404V177.96h-3.336v12.888c0 1.424.424 2.54 1.272 3.348.848.808 2.048 1.212 3.6 1.212zm10.683 0c1.536 0 2.716-.376 3.54-1.128.824-.752 1.236-1.76 1.236-3.024v-1.296c0-.944-.172-1.736-.516-2.376-.344-.64-.972-1.24-1.884-1.8l-2.448-1.488c-.816-.512-1.224-1.184-1.224-2.016v-.768c0-.416.116-.76.348-1.032.232-.272.556-.408.972-.408.944 0 1.416.632 1.416 1.896v1.824l3.312-.624v-1.248c0-1.536-.404-2.648-1.212-3.336-.808-.688-1.98-1.032-3.516-1.032-1.376 0-2.5.356-3.372 1.068-.872.712-1.308 1.74-1.308 3.084v.888c0 .928.18 1.72.54 2.376.36.656.964 1.24 1.812 1.752l2.424 1.488c.512.336.848.66 1.008.972.16.312.24.748.24 1.308v.696c0 .496-.108.896-.324 1.2-.216.304-.556.456-1.02.456-.96 0-1.44-.72-1.44-2.16v-1.944l-3.384.648v1.368c0 1.44.42 2.576 1.26 3.408.84.832 2.02 1.248 3.54 1.248zm9.268-.408v-17.04h-3.336V195h3.336zm4.971 0v-8.352c0-.384-.008-.824-.024-1.32-.016-.496-.032-.88-.048-1.152l-.048-.84h.072c.208.912.456 1.808.744 2.688l3.12 8.976h3.216v-17.04h-2.928v7.056c0 1.12.04 2.376.12 3.768h-.048a44.7 44.7 0 0 0-.696-2.544l-2.856-8.28h-3.576V195h2.952zm16.995 0v-2.568h-4.608v-4.92h4.104v-2.568h-4.104v-4.416h4.44v-2.568h-7.776V195h7.944zm5.068.408c1.536 0 2.716-.376 3.54-1.128.824-.752 1.236-1.76 1.236-3.024v-1.296c0-.944-.172-1.736-.516-2.376-.344-.64-.972-1.24-1.884-1.8l-2.448-1.488c-.816-.512-1.224-1.184-1.224-2.016v-.768c0-.416.116-.76.348-1.032.232-.272.556-.408.972-.408.944 0 1.416.632 1.416 1.896v1.824l3.312-.624v-1.248c0-1.536-.404-2.648-1.212-3.336-.808-.688-1.98-1.032-3.516-1.032-1.376 0-2.5.356-3.372 1.068-.872.712-1.308 1.74-1.308 3.084v.888c0 .928.18 1.72.54 2.376.36.656.964 1.24 1.812 1.752l2.424 1.488c.512.336.848.66 1.008.972.16.312.24.748.24 1.308v.696c0 .496-.108.896-.324 1.2-.216.304-.556.456-1.02.456-.96 0-1.44-.72-1.44-2.16v-1.944l-3.384.648v1.368c0 1.44.42 2.576 1.26 3.408.84.832 2.02 1.248 3.54 1.248zm9.94 0c1.535 0 2.715-.376 3.54-1.128.823-.752 1.235-1.76 1.235-3.024v-1.296c0-.944-.172-1.736-.516-2.376-.344-.64-.972-1.24-1.884-1.8l-2.448-1.488c-.816-.512-1.224-1.184-1.224-2.016v-.768c0-.416.116-.76.348-1.032.232-.272.556-.408.972-.408.944 0 1.416.632 1.416 1.896v1.824l3.312-.624v-1.248c0-1.536-.404-2.648-1.212-3.336-.808-.688-1.98-1.032-3.516-1.032-1.376 0-2.5.356-3.372 1.068-.872.712-1.308 1.74-1.308 3.084v.888c0 .928.18 1.72.54 2.376.36.656.964 1.24 1.812 1.752l2.424 1.488c.512.336.848.66 1.008.972.16.312.24.748.24 1.308v.696c0 .496-.108.896-.324 1.2-.216.304-.556.456-1.02.456-.96 0-1.44-.72-1.44-2.16v-1.944l-3.384.648v1.368c0 1.44.42 2.576 1.26 3.408.84.832 2.02 1.248 3.54 1.248zm10.014-.144c2.72 0 4.08-1.272 4.08-3.816V177.96h-3.312v12.744c0 1.056-.48 1.584-1.44 1.584-.288 0-.6-.032-.936-.096v2.928a8 8 0 0 0 1.608.144zm10.612.144c1.648 0 2.924-.468 3.828-1.404.904-.936 1.356-2.268 1.356-3.996v-7.056c0-1.728-.452-3.06-1.356-3.996-.904-.936-2.18-1.404-3.828-1.404-1.632 0-2.9.468-3.804 1.404-.904.936-1.356 2.268-1.356 3.996v7.056c0 1.728.452 3.06 1.356 3.996.904.936 2.172 1.404 3.804 1.404zm0-2.616c-.56 0-.988-.204-1.284-.612-.296-.408-.444-.996-.444-1.764v-7.872c0-.768.148-1.356.444-1.764.296-.408.724-.612 1.284-.612s.992.204 1.296.612c.304.408.456.996.456 1.764v7.872c0 .768-.152 1.356-.456 1.764-.304.408-.736.612-1.296.612zm11.427 2.616c1.536 0 2.728-.404 3.576-1.212.848-.808 1.272-1.924 1.272-3.348V177.96h-3.312v12.744c0 .608-.136 1.076-.408 1.404-.272.328-.648.492-1.128.492-.496 0-.876-.164-1.14-.492-.264-.328-.396-.796-.396-1.404V177.96h-3.336v12.888c0 1.424.424 2.54 1.272 3.348.848.808 2.048 1.212 3.6 1.212zm10.06-.408v-6.936h1.2l1.871 6.936h3.48l-2.4-7.728a3.28 3.28 0 0 0 1.5-1.464c.344-.656.516-1.48.516-2.472v-.816c-.016-1.488-.42-2.62-1.212-3.396-.792-.776-2.044-1.164-3.756-1.164h-4.536V195h3.336zm.983-9.072h-.984v-5.664h.984c.64 0 1.092.164 1.356.492.264.328.396.884.396 1.668v1.08c0 .848-.132 1.464-.396 1.848-.264.384-.716.576-1.356.576zm9.556 9.072v-8.352c0-.384-.008-.824-.024-1.32-.016-.496-.032-.88-.048-1.152l-.048-.84h.072c.208.912.456 1.808.744 2.688l3.12 8.976h3.216v-17.04h-2.928v7.056c0 1.12.04 2.376.12 3.768h-.048a44.7 44.7 0 0 0-.696-2.544l-2.856-8.28h-3.576V195h2.952zm11.427 0 .624-3.984h3.096l.624 3.984h3.336l-3.312-17.04h-4.368L251.246 195h3.336zm3.36-6.408h-2.376l.84-5.376c.176-1.184.28-1.992.312-2.424h.072c.08.704.184 1.512.312 2.424l.84 5.376zm12.94 6.408v-2.928h-4.2V177.96h-3.336V195h7.536zm.555-9.408c.912-.32 1.572-.804 1.98-1.452.408-.648.612-1.5.612-2.556v-3.624h-3.6v3.888h1.464v.096c0 .544-.084.96-.252 1.248-.168.288-.508.544-1.02.768l.816 1.632zm8.404 9.816c1.536 0 2.716-.376 3.54-1.128.824-.752 1.236-1.76 1.236-3.024v-1.296c0-.944-.172-1.736-.516-2.376-.344-.64-.972-1.24-1.884-1.8l-2.448-1.488c-.816-.512-1.224-1.184-1.224-2.016v-.768c0-.416.116-.76.348-1.032.232-.272.556-.408.972-.408.944 0 1.416.632 1.416 1.896v1.824l3.312-.624v-1.248c0-1.536-.404-2.648-1.212-3.336-.808-.688-1.98-1.032-3.516-1.032-1.376 0-2.5.356-3.372 1.068-.872.712-1.308 1.74-1.308 3.084v.888c0 .928.18 1.72.54 2.376.36.656.964 1.24 1.812 1.752l2.424 1.488c.512.336.848.66 1.008.972.16.312.24.748.24 1.308v.696c0 .496-.108.896-.324 1.2-.216.304-.556.456-1.02.456-.96 0-1.44-.72-1.44-2.16v-1.944l-3.384.648v1.368c0 1.44.42 2.576 1.26 3.408.84.832 2.02 1.248 3.54 1.248z" fill="#CB7958"/><path d="M72.091 225c1.552 0 2.724-.404 3.516-1.212.792-.808 1.188-1.948 1.188-3.42v-.504c0-2.048-.8-3.336-2.4-3.864.688-.208 1.224-.596 1.608-1.164.384-.568.576-1.268.576-2.1v-.576c0-1.312-.384-2.34-1.152-3.084-.768-.744-1.928-1.116-3.48-1.116h-4.68V225h4.824zm-.528-9.792h-.96v-4.944h.936c.592 0 1.012.156 1.26.468.248.312.372.82.372 1.524v.552c0 .832-.12 1.44-.36 1.824-.24.384-.656.576-1.248.576zm.192 7.488h-1.152v-5.376h1.08c.592 0 1.02.188 1.284.564.264.376.396.988.396 1.836v.6c0 .8-.124 1.396-.372 1.788-.248.392-.66.588-1.236.588zM86.087 225v-2.568h-4.608v-4.92h4.104v-2.568h-4.104v-4.416h4.44v-2.568h-7.776V225h7.944zm5.067.408c1.536 0 2.716-.376 3.54-1.128.824-.752 1.236-1.76 1.236-3.024v-1.296c0-.944-.172-1.736-.516-2.376-.344-.64-.972-1.24-1.884-1.8l-2.448-1.488c-.816-.512-1.224-1.184-1.224-2.016v-.768c0-.416.116-.76.348-1.032.232-.272.556-.408.972-.408.944 0 1.416.632 1.416 1.896v1.824l3.312-.624v-1.248c0-1.536-.404-2.648-1.212-3.336-.808-.688-1.98-1.032-3.516-1.032-1.376 0-2.5.356-3.372 1.068-.872.712-1.308 1.74-1.308 3.084v.888c0 .928.18 1.72.54 2.376.36.656.964 1.24 1.812 1.752l2.424 1.488c.512.336.848.66 1.008.972.16.312.24.748.24 1.308v.696c0 .496-.108.896-.324 1.2-.216.304-.556.456-1.02.456-.96 0-1.44-.72-1.44-2.16v-1.944l-3.384.648v1.368c0 1.44.42 2.576 1.26 3.408.84.832 2.02 1.248 3.54 1.248zm11.284-.408v-14.208h3.24v-2.832h-9.792v2.832h3.24V225h3.312zm10.927 0v-6.528h1.416c1.52 0 2.688-.408 3.504-1.224.816-.816 1.224-1.984 1.224-3.504v-1.416c-.016-1.44-.424-2.528-1.224-3.264-.8-.736-1.992-1.104-3.576-1.104h-4.68V225h3.336zm1.008-8.88h-1.008v-5.856h1.008c.592 0 1.024.172 1.296.516.272.344.408.9.408 1.668v1.248c0 .848-.136 1.464-.408 1.848-.272.384-.704.576-1.296.576zm13.683 8.88v-2.928h-4.2V207.96h-3.336V225h7.536zm4.083 0 .624-3.984h3.096l.624 3.984h3.336l-3.312-17.04h-4.368L128.803 225h3.336zm3.36-6.408h-2.376l.84-5.376c.176-1.184.28-1.992.312-2.424h.072c.08.704.184 1.512.312 2.424l.84 5.376zm9.58 6.816c1.552 0 2.76-.412 3.624-1.236.864-.824 1.296-2.004 1.296-3.54v-1.848l-3.408-.696v2.544c0 .688-.128 1.216-.384 1.584-.256.368-.632.552-1.128.552-.512 0-.904-.212-1.176-.636-.272-.424-.408-1.044-.408-1.86v-7.704c0-1.6.528-2.4 1.584-2.4.992 0 1.488.712 1.488 2.136v2.28l3.432-.648v-1.728c0-1.536-.416-2.696-1.248-3.48-.832-.784-2.032-1.176-3.6-1.176-1.648 0-2.908.452-3.78 1.356-.872.904-1.308 2.22-1.308 3.948v7.224c0 1.76.424 3.088 1.272 3.984.848.896 2.096 1.344 3.744 1.344zM159.41 225v-2.568h-4.608v-4.92h4.104v-2.568h-4.104v-4.416h4.44v-2.568h-7.776V225h7.944zm5.068.408c1.536 0 2.716-.376 3.54-1.128.824-.752 1.236-1.76 1.236-3.024v-1.296c0-.944-.172-1.736-.516-2.376-.344-.64-.972-1.24-1.884-1.8l-2.448-1.488c-.816-.512-1.224-1.184-1.224-2.016v-.768c0-.416.116-.76.348-1.032.232-.272.556-.408.972-.408.944 0 1.416.632 1.416 1.896v1.824l3.312-.624v-1.248c0-1.536-.404-2.648-1.212-3.336-.808-.688-1.98-1.032-3.516-1.032-1.376 0-2.5.356-3.372 1.068-.872.712-1.308 1.74-1.308 3.084v.888c0 .928.18 1.72.54 2.376.36.656.964 1.24 1.812 1.752l2.424 1.488c.512.336.848.66 1.008.972.16.312.24.748.24 1.308v.696c0 .496-.108.896-.324 1.2-.216.304-.556.456-1.02.456-.96 0-1.44-.72-1.44-2.16v-1.944l-3.384.648v1.368c0 1.44.42 2.576 1.26 3.408.84.832 2.02 1.248 3.54 1.248zm14.815-.408v-14.208h3.24v-2.832h-9.792v2.832h3.24V225h3.312zm8.379.408c1.648 0 2.924-.468 3.828-1.404.904-.936 1.356-2.268 1.356-3.996v-7.056c0-1.728-.452-3.06-1.356-3.996-.904-.936-2.18-1.404-3.828-1.404-1.632 0-2.9.468-3.804 1.404-.904.936-1.356 2.268-1.356 3.996v7.056c0 1.728.452 3.06 1.356 3.996.904.936 2.172 1.404 3.804 1.404zm0-2.616c-.56 0-.988-.204-1.284-.612-.296-.408-.444-.996-.444-1.764v-7.872c0-.768.148-1.356.444-1.764.296-.408.724-.612 1.284-.612s.992.204 1.296.612c.304.408.456.996.456 1.764v7.872c0 .768-.152 1.356-.456 1.764-.304.408-.736.612-1.296.612zM203.039 225l1.152-9.72c.048-.384.084-.804.108-1.26.024-.456.044-.788.06-.996 0-.32.008-.552.024-.696h.12c.016.144.024.376.024.696.016.208.036.54.06.996.024.456.06.876.108 1.26l1.152 9.72h3.912l1.944-17.04h-3.072l-.888 10.464a59.308 59.308 0 0 0-.144 2.784h-.096a73.227 73.227 0 0 1-.24-2.568l-1.224-10.68h-3.192l-1.224 10.68-.24 2.568h-.12c0-.736-.048-1.664-.144-2.784l-.864-10.464h-3.072l1.944 17.04h3.912zm14.331.408c1.648 0 2.924-.468 3.828-1.404.904-.936 1.356-2.268 1.356-3.996v-7.056c0-1.728-.452-3.06-1.356-3.996-.904-.936-2.18-1.404-3.828-1.404-1.632 0-2.9.468-3.804 1.404-.904.936-1.356 2.268-1.356 3.996v7.056c0 1.728.452 3.06 1.356 3.996.904.936 2.172 1.404 3.804 1.404zm0-2.616c-.56 0-.988-.204-1.284-.612-.296-.408-.444-.996-.444-1.764v-7.872c0-.768.148-1.356.444-1.764.296-.408.724-.612 1.284-.612s.992.204 1.296.612c.304.408.456.996.456 1.764v7.872c0 .768-.152 1.356-.456 1.764-.304.408-.736.612-1.296.612zM227.406 225v-6.936h1.2l1.872 6.936h3.48l-2.4-7.728a3.28 3.28 0 0 0 1.5-1.464c.344-.656.516-1.48.516-2.472v-.816c-.016-1.488-.42-2.62-1.212-3.396-.792-.776-2.044-1.164-3.756-1.164h-4.536V225h3.336zm.984-9.072h-.984v-5.664h.984c.64 0 1.092.164 1.356.492.264.328.396.884.396 1.668v1.08c0 .848-.132 1.464-.396 1.848-.264.384-.716.576-1.356.576zm9.94 9.072v-4.968l1.223-2.64 2.088 7.608h3.552l-3.192-10.392 3.048-6.648h-3.432l-3.288 7.968v-7.968h-3.336V225h3.336z" fill="#3E3E3E"/></g><path stroke="#00B2A4" stroke-width="2" d="M1 1h308v300H1z"/></g></svg>