<svg viewBox="0 0 480.28 436.23" xmlns="http://www.w3.org/2000/svg"><path d="m177.54 334.61c8.26 2.47 16.91 3.77 25.69 3.77 22.38 0 43.81-8.28 60.35-23.31 1.03-.93 2.03-1.89 3.01-2.86 14.68-14.63 23.85-33.78 25.94-54.36.24-2.4.39-4.84.44-7.27-1.04-48.6-40.9-87.82-89.74-87.82-4.12 0-8.26.28-12.3.83-21.27 2.9-40.85 13.45-55.14 29.69-13.97 15.88-21.82 36.16-22.28 57.29.46 21.38 8.47 41.83 22.72 57.8 11.18 12.52 25.54 21.54 41.31 26.26z" fill="none"/><path d="m190.94 163.58c4.04-.55 8.18-.83 12.3-.83 48.85 0 88.7 39.22 89.74 87.82.01-.65.02-1.3.02-1.95 0-41.76-28.67-76.96-67.36-86.93-2.15-.55-4.33-1.03-6.54-1.43-5.15-.92-10.46-1.4-15.87-1.4-4.12 0-8.26.28-12.3.83-21.27 2.9-40.85 13.45-55.14 29.69-14.4 16.37-22.33 37.41-22.33 59.25 0 .65.03 1.29.04 1.94.46-21.13 8.32-41.41 22.28-57.29 14.29-16.24 33.87-26.78 55.14-29.69z" fill="#e9e9ea"/><path d="m370.09 265.71c-1.26 12.37-3.88 24.46-7.76 36.08-8.62 25.79-23.45 49.26-43.47 68.31-.94.89-1.88 1.77-2.84 2.64-2.9 2.63-5.88 5.16-8.93 7.57-29.51 23.3-65.96 36.01-103.85 36.01-47.74 0-93.35-20.44-125.16-56.07-27.01-30.27-42.07-69.16-42.54-109.71 0 .65-.02 1.31-.02 1.96 0 41.25 15.11 80.9 42.56 111.65 31.8 35.63 77.42 56.07 125.16 56.07 41.81 0 81.86-15.48 112.78-43.58 30.69-27.9 49.9-65.91 54.08-107.04.57-5.65.86-11.4.86-17.11 0-.67-.02-1.33-.02-1.99-.06 5.08-.33 10.18-.84 15.2z" fill="#e9e9ea"/><path d="m240.23 84.96c2.67.6 5.32 1.26 7.94 1.99-2.63-.73-5.28-1.39-7.94-1.99z" fill="#673420"/><path d="m364.9 203.68c.73 2.63 1.39 5.28 1.99 7.94-.6-2.67-1.26-5.32-1.99-7.94z" fill="#673420"/><path d="m331.31 261.77-38.77-3.94z" fill="#673420"/><path d="m363.77 199.75c-7.9-26.06-22.13-49.94-41.93-69.74-20.79-20.79-46.07-35.45-73.66-43.07 27.59 7.62 52.87 22.28 73.66 43.07 19.8 19.8 34.04 43.67 41.93 69.74z" fill="#673420"/><path d="m224.01 82.16c2.74.34 5.46.74 8.16 1.21-2.7-.47-5.42-.87-8.16-1.21z" fill="#673420"/><path d="m197.18 81c2.02-.07 4.04-.11 6.05-.11-2.02 0-4.04.04-6.05.11z" fill="#673420"/><path d="m136.24 308.35c-14.25-15.96-22.26-36.42-22.72-57.8-.01-.65-.04-1.29-.04-1.94 0-21.84 7.93-42.88 22.33-59.25 14.29-16.24 33.87-26.78 55.14-29.69l-10.54-77.24c-39.84 5.44-76.47 25.13-103.13 55.44-26.92 30.61-41.75 69.93-41.75 110.73 0 .65.01 1.29.02 1.94.47 40.55 15.52 79.44 42.54 109.71l58.16-51.91z" fill="#673420"/><path d="m293 248.61c0-41.76-28.67-76.96-67.36-86.93 38.69 9.98 67.36 45.17 67.36 86.93z" fill="#673420"/><path d="m362.33 301.79c3.88-11.62 6.51-23.71 7.76-36.08-1.26 12.37-3.88 24.46-7.76 36.08z" fill="#673420"/><path d="m219.11 160.25c2.21.4 4.39.87 6.54 1.43-2.15-.55-4.33-1.03-6.54-1.43z" fill="#673420"/><path d="m331.31 261.77-38.78-3.94c-2.09 20.59-11.26 39.74-25.94 54.36-.98.98-1.98 1.93-3.01 2.86-16.54 15.03-37.97 23.31-60.35 23.31-8.78 0-17.43-1.29-25.69-3.77-15.77-4.72-30.13-13.74-41.31-26.26l-58.16 51.91c31.8 35.63 77.42 56.07 125.16 56.07 37.89 0 74.33-12.71 103.85-36.01 3.05-2.41 6.03-4.93 8.93-7.57.96-.87 1.91-1.75 2.84-2.64 20.02-19.05 34.85-42.52 43.47-68.31 3.88-11.62 6.51-23.71 7.76-36.08l-38.78-3.94z" fill="#898989"/><path d="m190.94 159.67c4.04-.55 8.18-.83 12.3-.83v-77.95c-2.02 0-4.04.04-6.05.11-5.63.2-11.25.68-16.78 1.43l10.54 77.24z" fill="#c0c2c4"/><path d="m293 248.61c0 .65-.01 1.3-.02 1.95-.05 2.44-.2 4.87-.44 7.27l38.78 3.94 38.78 3.94c.51-5.02.78-10.12.84-15.2 0-.64.02-1.27.02-1.91h-77.95z" fill="#090000"/><path d="m203.24 158.84c5.41 0 10.72.48 15.87 1.4 2.21.4 4.39.87 6.54 1.43 38.69 9.98 67.36 45.17 67.36 86.93h77.95c0-12.6-1.38-24.99-4.07-36.99-.6-2.67-1.26-5.32-1.99-7.94-.36-1.31-.74-2.62-1.14-3.93-7.9-26.06-22.13-49.94-41.93-69.74-20.79-20.79-46.07-35.45-73.66-43.07-2.63-.73-5.28-1.39-7.94-1.99-2.67-.6-5.35-1.13-8.06-1.6s-5.42-.87-8.16-1.21c-6.84-.84-13.77-1.27-20.77-1.27v77.95z" fill="#bf7d5e"/><path d="m194.13 57.57h.65v17.36h-.65z" fill="#898989"/><path d="m375.39 255.15h23.86v.65h-23.86z" fill="#898989"/><path d="m68.99 215.67c-.39.36-1.09.5-1.76.5h-.28v-2.41h.21c1.1 0 1.98-.62 2.32-1.78h2.02v13h-2.51v-9.32z" fill="#fff"/><path d="m79.3 222.14v2.84h-2.45v-2.84h-4.08v-1.87l3.56-8.29h2.97v8.19h1.33v1.97zm-2.38-7.45h-.04c-.11.52-.26.97-.51 1.57l-1.14 2.86c-.19.47-.32.77-.51 1.05h2.13v-3.87c0-.52.02-1.12.06-1.61z" fill="#fff"/><path d="m88.3 216.19v4.68c0 3.12-1.22 4.4-3.67 4.4-2.23 0-3.48-1.2-3.48-3.12v-.49l2.49-.39v.58c0 .97.39 1.57 1.05 1.57.82 0 1.09-.62 1.1-2.3v-1.53c-.43.49-1.05.73-1.85.73-1.87 0-2.86-1.12-2.86-3.41v-1.46c0-2.38 1.22-3.74 3.57-3.74 2.56 0 3.65 1.33 3.65 4.49zm-2.51 1.33v-2.02c0-1.37-.39-1.95-1.14-1.95s-1.08.5-1.08 1.78v1.44c0 1.07.39 1.61 1.1 1.61.52 0 .88-.26 1.12-.86z" fill="#fff"/><path d="m53.45 236.39c0-3.01.92-6.27 2.62-8.48l1.93.73c-1.48 2.24-2.21 4.88-2.21 7.78s.69 5.44 2.26 7.91l-2 .79c-1.66-2.38-2.6-5.73-2.6-8.74z" fill="#fff"/><path d="m58 239.15v-.6l2.53-.3v.79c0 1.33.36 1.8 1.09 1.8.69 0 1.03-.5 1.03-1.65v-.58c0-1.27-.39-1.81-1.33-1.81h-.45v-1.97h.45c.86 0 1.25-.6 1.25-1.8v-.47c0-1.01-.36-1.38-.99-1.38-.69 0-1.01.45-1.01 1.65v.94l-2.54-.34v-.65c0-2.41 1.33-3.54 3.59-3.54s3.5.99 3.5 3.2v.49c0 1.38-.62 2.51-1.91 2.83 1.38.19 2 1.29 2 2.75v.71c0 2.36-1.27 3.59-3.55 3.59-2.41 0-3.65-1.05-3.65-3.65z" fill="#fff"/><path d="m65.99 239.55v-.54l2.54-.28v.56c0 1.1.37 1.59 1.05 1.59.73 0 1.07-.54 1.07-1.85v-1.5c0-1.33-.32-1.85-1.03-1.85-.62 0-1.01.45-1.14 1.27l-2.3-.21.37-7.22h6.14v2.08h-4.15l-.19 3.27c.39-.73 1.14-1.16 2.13-1.16 1.8 0 2.71 1.24 2.71 3.56v1.72c0 2.53-1.25 3.82-3.63 3.82-2.23 0-3.57-1.2-3.57-3.25z" fill="#fff"/><path d="m76.78 242.52h-2.56v-3.03h2.56z" fill="#fff"/><path d="m85.09 233.73v4.68c0 3.12-1.22 4.4-3.67 4.4-2.23 0-3.48-1.2-3.48-3.12v-.49l2.49-.39v.58c0 .97.39 1.57 1.05 1.57.82 0 1.09-.62 1.1-2.3v-1.53c-.43.49-1.05.73-1.85.73-1.87 0-2.86-1.12-2.86-3.41v-1.46c0-2.38 1.22-3.74 3.57-3.74 2.56 0 3.65 1.33 3.65 4.49zm-2.51 1.33v-2.02c0-1.37-.39-1.95-1.14-1.95s-1.08.51-1.08 1.78v1.44c0 1.07.39 1.61 1.1 1.61.52 0 .88-.26 1.12-.86z" fill="#fff"/><path d="m85.84 233.6v-1.85c0-1.63.99-2.54 2.62-2.54s2.58.92 2.58 2.56v1.83c0 1.65-1.01 2.56-2.6 2.56s-2.6-.94-2.6-2.56zm8.76-4.7h1.61l-7.41 13.88h-1.65zm-5.48 4.72v-1.85c0-.75-.24-1.12-.67-1.12s-.69.36-.69 1.1v1.87c0 .75.24 1.12.69 1.12s.67-.37.67-1.12zm3.12 6.55v-1.85c0-1.63.99-2.54 2.62-2.54s2.58.92 2.58 2.56v1.83c0 1.65-1.01 2.56-2.6 2.56s-2.6-.94-2.6-2.56zm3.27.02v-1.85c0-.75-.24-1.12-.67-1.12s-.69.36-.69 1.1v1.87c0 .75.24 1.12.69 1.12s.67-.37.67-1.12z" fill="#fff"/><path d="m97.44 244.34c1.57-2.47 2.26-5 2.26-7.91s-.73-5.54-2.21-7.78l1.93-.73c1.7 2.21 2.62 5.46 2.62 8.48s-.94 6.36-2.6 8.74l-2-.79z" fill="#fff"/><path d="m189.72 25.02c-.39.36-1.09.5-1.76.5h-.28v-2.41h.21c1.1 0 1.98-.62 2.32-1.78h2.02v13h-2.51v-9.32z"/><path d="m194.04 30.39v-5.11c0-2.81 1.42-4.23 3.74-4.23s3.78 1.42 3.78 4.23v5.11c0 2.81-1.44 4.23-3.78 4.23s-3.74-1.42-3.74-4.23zm4.96.34v-5.76c0-1.33-.45-1.95-1.22-1.95s-1.2.62-1.2 1.93v5.76c0 1.33.45 1.95 1.2 1.95s1.22-.62 1.22-1.93z"/><path d="m174.5 45.74c0-3.01.92-6.27 2.62-8.48l1.93.73c-1.48 2.24-2.21 4.88-2.21 7.78s.69 5.44 2.26 7.91l-2 .79c-1.66-2.38-2.6-5.73-2.6-8.74z"/><path d="m179.22 50c1.65-1.93 2.64-3.16 3.42-4.38.77-1.18 1.1-2.17 1.1-3.35v-.39c0-.92-.34-1.31-.99-1.31s-.99.47-.99 1.42v1.31l-2.54-.32v-.95c0-2.17 1.37-3.44 3.63-3.44s3.54.94 3.54 3.24v.5c0 1.24-.47 2.45-1.35 3.8-.69 1.1-1.5 2.06-2.94 3.7h4.32v2.04h-7.2z"/><path d="m190.26 51.87h-2.56v-3.03h2.56z"/><path d="m197.31 49.03v2.84h-2.45v-2.84h-4.08v-1.87l3.55-8.29h2.98v8.19h1.33v1.96h-1.33zm-2.38-7.45h-.04c-.11.52-.26.97-.51 1.57l-1.14 2.86c-.19.47-.32.77-.5 1.05h2.13v-3.87c0-.52.02-1.12.06-1.61z"/><path d="m198.89 42.95v-1.85c0-1.63.99-2.54 2.62-2.54s2.58.92 2.58 2.56v1.83c0 1.65-1.01 2.56-2.6 2.56s-2.6-.94-2.6-2.56zm8.76-4.7h1.61l-7.41 13.88h-1.65zm-5.48 4.72v-1.85c0-.75-.24-1.12-.67-1.12s-.69.36-.69 1.1v1.87c0 .75.24 1.12.69 1.12s.67-.37.67-1.12zm3.12 6.55v-1.85c0-1.63.99-2.54 2.62-2.54s2.58.92 2.58 2.56v1.83c0 1.65-1.01 2.56-2.6 2.56s-2.6-.94-2.6-2.56zm3.27.02v-1.85c0-.75-.24-1.12-.67-1.12s-.69.36-.69 1.1v1.87c0 .75.24 1.12.69 1.12s.67-.37.67-1.12z"/><path d="m210.49 53.69c1.57-2.47 2.26-5 2.26-7.91s-.73-5.54-2.21-7.78l1.93-.73c1.7 2.21 2.62 5.46 2.62 8.48s-.94 6.36-2.6 8.74l-2-.79z"/><path d="m288.57 147.55c-.39.36-1.09.5-1.76.5h-.28v-2.41h.21c1.1 0 1.98-.62 2.32-1.78h2.02v13h-2.51v-9.32z" fill="#fff"/><path d="m292.89 152.92v-5.11c0-2.81 1.42-4.23 3.74-4.23s3.78 1.42 3.78 4.23v5.11c0 2.81-1.44 4.23-3.78 4.23s-3.74-1.42-3.74-4.23zm4.96.34v-5.76c0-1.33-.45-1.95-1.22-1.95s-1.2.62-1.2 1.93v5.76c0 1.33.45 1.95 1.2 1.95s1.22-.62 1.22-1.93z" fill="#fff"/><path d="m308.78 152.84v.86c0 2.11-1.42 3.44-3.69 3.44s-3.7-1.25-3.7-3.42v-.92c0-1.16.62-2.04 1.76-2.49-1.05-.56-1.59-1.4-1.59-2.82v-.73c0-1.95 1.38-3.18 3.5-3.18s3.48 1.16 3.48 3.12v.8c0 1.1-.45 1.83-1.48 2.38 1.18.58 1.72 1.42 1.72 2.96zm-2.54-.21c0-.88-.32-1.2-1.24-1.55l-.22-.09c-.62.32-.84.77-.84 1.57v1.27c0 .95.41 1.42 1.18 1.42s1.12-.47 1.12-1.4zm-2.23-4.96c0 .77.39 1.14 1.18 1.44l.21.08c.5-.3.71-.73.71-1.44v-1.09c0-.92-.36-1.35-1.05-1.35s-1.05.41-1.05 1.33z" fill="#fff"/><path d="m273.01 168.27c0-3.01.92-6.27 2.62-8.47l1.93.73c-1.48 2.24-2.21 4.88-2.21 7.78s.69 5.44 2.26 7.91l-2 .79c-1.66-2.38-2.6-5.73-2.6-8.74z" fill="#fff"/><path d="m277.73 172.54c1.65-1.93 2.64-3.16 3.42-4.38.77-1.18 1.1-2.17 1.1-3.35v-.39c0-.92-.34-1.31-.99-1.31s-.99.47-.99 1.42v1.31l-2.54-.32v-.95c0-2.17 1.37-3.44 3.63-3.44s3.54.94 3.54 3.24v.5c0 1.24-.47 2.45-1.35 3.8-.69 1.1-1.5 2.06-2.94 3.7h4.32v2.04h-7.2z" fill="#fff"/><path d="m293.09 169.09v1.76c0 2.38-1.2 3.84-3.55 3.84-2.6 0-3.7-1.53-3.7-4.71v-4.43c0-3.05 1.33-4.42 3.72-4.42 2.26 0 3.44.97 3.44 2.94v.45l-2.51.34v-.49c0-.86-.28-1.38-.97-1.38-.84 0-1.18.64-1.18 2.32v1.22c.41-.58 1.03-.9 1.91-.9 1.87 0 2.84 1.18 2.84 3.48zm-2.53.11c0-1.09-.37-1.66-1.09-1.66-.54 0-.92.32-1.14.94v2.1c0 1.63.39 2.21 1.16 2.21.67 0 1.07-.52 1.07-1.87v-1.7z" fill="#fff"/><path d="m296.63 174.41h-2.56v-3.03h2.56z" fill="#fff"/><path d="m297.84 170.46v-5.11c0-2.81 1.42-4.23 3.74-4.23s3.78 1.42 3.78 4.23v5.11c0 2.81-1.44 4.23-3.78 4.23s-3.74-1.42-3.74-4.23zm4.96.34v-5.76c0-1.33-.45-1.95-1.22-1.95s-1.2.62-1.2 1.93v5.76c0 1.33.45 1.95 1.2 1.95s1.22-.62 1.22-1.93z" fill="#fff"/><path d="m306.23 165.48v-1.85c0-1.63.99-2.54 2.62-2.54s2.58.92 2.58 2.56v1.83c0 1.65-1.01 2.56-2.6 2.56s-2.6-.94-2.6-2.56zm8.76-4.7h1.61l-7.41 13.88h-1.65zm-5.48 4.71v-1.85c0-.75-.24-1.12-.67-1.12s-.69.36-.69 1.1v1.87c0 .75.24 1.12.69 1.12s.67-.37.67-1.12zm3.12 6.55v-1.85c0-1.63.99-2.54 2.62-2.54s2.58.92 2.58 2.56v1.83c0 1.65-1.01 2.56-2.6 2.56s-2.6-.94-2.6-2.56zm3.27.02v-1.85c0-.75-.24-1.12-.67-1.12s-.69.36-.69 1.1v1.87c0 .75.24 1.12.69 1.12s.67-.37.67-1.12z" fill="#fff"/><path d="m317.83 176.22c1.57-2.47 2.26-5 2.26-7.91s-.73-5.54-2.21-7.78l1.93-.73c1.7 2.21 2.62 5.46 2.62 8.47s-.94 6.36-2.6 8.74z" fill="#fff"/><path d="m418.99 245.87c-.39.36-1.09.5-1.76.5h-.28v-2.41h.21c1.1 0 1.98-.62 2.32-1.78h2.02v13h-2.51v-9.32z"/><path d="m423.02 251.82v-.6l2.53-.3v.79c0 1.33.36 1.8 1.08 1.8s1.03-.5 1.03-1.65v-.58c0-1.27-.39-1.81-1.33-1.81h-.45v-1.97h.45c.86 0 1.25-.6 1.25-1.8v-.47c0-1.01-.36-1.38-.99-1.38-.69 0-1.01.45-1.01 1.65v.94l-2.54-.34v-.65c0-2.41 1.33-3.54 3.59-3.54s3.5.99 3.5 3.2v.49c0 1.38-.62 2.51-1.91 2.83 1.38.19 2 1.29 2 2.75v.71c0 2.36-1.27 3.59-3.55 3.59-2.41 0-3.65-1.05-3.65-3.65z"/><path d="m404.95 266.59c0-3.01.92-6.27 2.62-8.47l1.93.73c-1.48 2.24-2.21 4.88-2.21 7.78s.69 5.44 2.26 7.91l-2 .79c-1.66-2.38-2.6-5.73-2.6-8.74z"/><path d="m409.5 269.36v-.6l2.53-.3v.79c0 1.33.36 1.8 1.09 1.8s1.03-.5 1.03-1.65v-.58c0-1.27-.39-1.81-1.33-1.81h-.45v-1.97h.45c.86 0 1.25-.6 1.25-1.8v-.47c0-1.01-.36-1.38-.99-1.38-.69 0-1.01.45-1.01 1.65v.94l-2.54-.34v-.65c0-2.41 1.33-3.54 3.59-3.54s3.5.99 3.5 3.2v.49c0 1.38-.62 2.51-1.91 2.83 1.38.19 2 1.29 2 2.75v.71c0 2.36-1.27 3.59-3.55 3.59-2.41 0-3.65-1.05-3.65-3.65z"/><path d="m420.26 272.73h-2.56v-3.03h2.56z"/><path d="m422.2 263.41c-.39.36-1.09.5-1.76.5h-.28v-2.41h.21c1.1 0 1.98-.62 2.32-1.78h2.02v13h-2.51v-9.32z"/><path d="m426.17 263.81v-1.85c0-1.63.99-2.54 2.62-2.54s2.58.92 2.58 2.56v1.83c0 1.65-1.01 2.56-2.6 2.56s-2.6-.94-2.6-2.56zm8.76-4.7h1.61l-7.41 13.88h-1.65zm-5.48 4.71v-1.85c0-.75-.24-1.12-.67-1.12s-.69.36-.69 1.1v1.87c0 .75.24 1.12.69 1.12s.67-.37.67-1.12zm3.12 6.55v-1.85c0-1.63.99-2.54 2.62-2.54s2.58.92 2.58 2.56v1.83c0 1.65-1.01 2.56-2.6 2.56s-2.6-.94-2.6-2.56zm3.27.02v-1.85c0-.75-.24-1.12-.67-1.12s-.69.36-.69 1.1v1.87c0 .75.24 1.12.69 1.12s.67-.37.67-1.12z"/><path d="m437.77 274.54c1.57-2.47 2.26-5 2.26-7.91s-.73-5.54-2.21-7.78l1.93-.73c1.7 2.21 2.62 5.46 2.62 8.47s-.94 6.36-2.6 8.74z"/><path d="m229.09 356.57c-.39.36-1.09.5-1.76.5h-.28v-2.41h.21c1.1 0 1.98-.62 2.32-1.78h2.02v13h-2.51v-9.32z" fill="#fff"/><path d="m233.12 362.52v-.6l2.53-.3v.79c0 1.33.36 1.8 1.08 1.8s1.03-.5 1.03-1.65v-.58c0-1.27-.39-1.81-1.33-1.81h-.45v-1.97h.45c.86 0 1.25-.6 1.25-1.8v-.47c0-1.01-.36-1.38-.99-1.38-.69 0-1.01.45-1.01 1.65v.94l-2.54-.34v-.65c0-2.41 1.33-3.54 3.59-3.54s3.5.99 3.5 3.2v.49c0 1.38-.62 2.51-1.91 2.83 1.38.19 2 1.29 2 2.75v.71c0 2.36-1.27 3.59-3.55 3.59-2.41 0-3.65-1.05-3.65-3.65z" fill="#fff"/><path d="m241.11 362.91v-.54l2.54-.28v.56c0 1.1.37 1.59 1.05 1.59.73 0 1.07-.54 1.07-1.85v-1.5c0-1.33-.32-1.85-1.03-1.85-.62 0-1.01.45-1.14 1.27l-2.3-.21.37-7.22h6.14v2.08h-4.15l-.19 3.27c.39-.73 1.14-1.16 2.13-1.16 1.8 0 2.71 1.24 2.71 3.56v1.72c0 2.53-1.25 3.82-3.63 3.82-2.23 0-3.57-1.2-3.57-3.25z" fill="#fff"/><path d="m213.44 377.29c0-3.01.92-6.27 2.62-8.48l1.93.73c-1.48 2.24-2.21 4.88-2.21 7.78s.69 5.44 2.26 7.91l-2 .79c-1.67-2.38-2.6-5.73-2.6-8.74z" fill="#fff"/><path d="m217.99 380.06v-.6l2.53-.3v.79c0 1.33.36 1.8 1.08 1.8s1.03-.5 1.03-1.65v-.58c0-1.27-.39-1.81-1.33-1.81h-.45v-1.97h.45c.86 0 1.25-.6 1.25-1.8v-.47c0-1.01-.36-1.38-.99-1.38-.69 0-1.01.45-1.01 1.65v.94l-2.54-.34v-.65c0-2.41 1.33-3.54 3.59-3.54s3.5.99 3.5 3.2v.49c0 1.38-.62 2.51-1.91 2.83 1.38.19 2 1.29 2 2.75v.71c0 2.36-1.27 3.59-3.55 3.59-2.41 0-3.65-1.05-3.65-3.65z" fill="#fff"/><path d="m225.94 381.55c1.65-1.93 2.64-3.16 3.42-4.38.77-1.18 1.1-2.17 1.1-3.35v-.39c0-.92-.34-1.31-.99-1.31s-.99.47-.99 1.42v1.31l-2.54-.32v-.95c0-2.17 1.37-3.44 3.63-3.44s3.54.94 3.54 3.24v.5c0 1.24-.47 2.45-1.35 3.8-.69 1.1-1.5 2.06-2.94 3.7h4.32v2.04h-7.2z" fill="#fff"/><path d="m236.98 383.42h-2.56v-3.03h2.56z" fill="#fff"/><path d="m238.01 380.45v-.54l2.54-.28v.56c0 1.1.37 1.59 1.05 1.59.73 0 1.07-.54 1.07-1.85v-1.5c0-1.33-.32-1.85-1.03-1.85-.62 0-1.01.45-1.14 1.27l-2.3-.21.37-7.22h6.14v2.08h-4.15l-.19 3.27c.39-.73 1.14-1.16 2.13-1.16 1.8 0 2.71 1.24 2.71 3.56v1.72c0 2.53-1.25 3.82-3.63 3.82-2.23 0-3.57-1.2-3.57-3.25z" fill="#fff"/><path d="m245.81 374.5v-1.85c0-1.63.99-2.54 2.62-2.54s2.58.92 2.58 2.56v1.83c0 1.65-1.01 2.56-2.6 2.56s-2.6-.94-2.6-2.56zm8.76-4.7h1.61l-7.41 13.88h-1.65zm-5.48 4.72v-1.85c0-.75-.24-1.12-.67-1.12s-.69.36-.69 1.1v1.87c0 .75.24 1.12.69 1.12s.67-.37.67-1.12zm3.12 6.55v-1.85c0-1.63.99-2.54 2.62-2.54s2.58.92 2.58 2.56v1.83c0 1.65-1.01 2.56-2.6 2.56s-2.6-.94-2.6-2.56zm3.27.02v-1.85c0-.75-.24-1.12-.67-1.12s-.69.36-.69 1.1v1.87c0 .75.24 1.12.69 1.12s.67-.37.67-1.12z" fill="#fff"/><path d="m257.41 385.24c1.57-2.47 2.26-5 2.26-7.91s-.73-5.54-2.21-7.78l1.93-.73c1.7 2.21 2.62 5.46 2.62 8.48s-.94 6.36-2.6 8.74l-2-.79z" fill="#fff"/><g fill="#a5a7aa"><path d="m398.01 76.77c-.72-.21-1.24-.46-1.57-.76s-.49-.67-.49-1.12c0-.5.2-.92.6-1.24s.92-.49 1.56-.49c.44 0 .83.08 1.17.25s.61.4.8.7.28.62.28.97h-.84c0-.39-.12-.69-.37-.91s-.59-.33-1.04-.33c-.41 0-.74.09-.97.27s-.35.44-.35.76c0 .26.11.48.33.66s.59.34 1.12.49.94.31 1.24.49.52.39.66.63.22.52.22.84c0 .52-.2.93-.6 1.24s-.94.47-1.61.47c-.44 0-.84-.08-1.22-.25s-.67-.4-.88-.69-.31-.62-.31-.99h.84c0 .38.14.69.43.91s.66.33 1.14.33c.44 0 .78-.09 1.02-.27s.35-.43.35-.74-.11-.55-.33-.72-.61-.34-1.19-.5z"/><path d="m404.24 79.61c-.05-.09-.08-.26-.11-.5-.38.39-.82.59-1.35.59-.47 0-.85-.13-1.15-.4s-.45-.6-.45-1c0-.49.19-.87.56-1.15s.9-.41 1.58-.41h.79v-.37c0-.28-.08-.51-.25-.68s-.42-.25-.75-.25c-.29 0-.53.07-.73.22s-.29.32-.29.53h-.81c0-.24.08-.46.25-.68s.39-.39.68-.52.6-.19.95-.19c.54 0 .97.14 1.28.41s.47.65.48 1.13v2.18c0 .43.06.78.17 1.04v.07h-.85zm-1.34-.62c.25 0 .49-.07.72-.2s.39-.3.49-.51v-.97h-.63c-.99 0-1.49.29-1.49.87 0 .25.08.45.25.59s.39.21.65.21z"/><path d="m407.07 79.61h-.81v-6.71h.81z"/><path d="m410.32 79.69c-.64 0-1.16-.21-1.56-.63s-.6-.98-.6-1.69v-.15c0-.47.09-.89.27-1.26s.43-.66.75-.87.67-.31 1.05-.31c.61 0 1.09.2 1.43.61s.51.98.51 1.74v.34h-3.2c.01.47.15.84.41 1.13s.59.43.99.43c.29 0 .53-.06.73-.17s.37-.27.52-.46l.49.38c-.4.61-.99.91-1.78.91zm-.1-4.24c-.33 0-.6.12-.82.36s-.36.57-.41 1h2.37v-.06c-.02-.41-.13-.73-.33-.95s-.47-.34-.8-.34z"/><path d="m415.86 78.35c0-.22-.08-.39-.25-.51s-.45-.23-.86-.31-.73-.19-.97-.31-.42-.27-.53-.44-.17-.37-.17-.6c0-.39.16-.72.49-.98s.75-.4 1.26-.4c.54 0 .97.14 1.3.42s.5.63.5 1.06h-.81c0-.22-.09-.41-.28-.57s-.42-.24-.71-.24-.52.06-.69.19-.25.3-.25.5.08.34.23.44.43.19.84.28.73.2.98.32.44.28.56.45.18.39.18.64c0 .42-.17.76-.51 1.02s-.78.38-1.32.38c-.38 0-.71-.07-1.01-.2s-.52-.32-.68-.56-.25-.5-.25-.78h.81c.01.27.12.49.33.64s.47.24.8.24c.31 0 .55-.06.74-.19s.28-.29.28-.5z"/><path d="m397.22 93.38 2.08 5.19 2.08-5.19h1.09v6.36h-.84v-2.48l.08-2.67-2.09 5.15h-.64l-2.08-5.14.08 2.66v2.48h-.84v-6.36z"/><path d="m403.83 93.76c0-.13.04-.24.12-.33s.2-.14.36-.14.28.05.36.14.12.2.12.33-.04.24-.12.33-.2.13-.36.13-.28-.04-.36-.13-.12-.2-.12-.33zm.87 5.98h-.81v-4.73h.81z"/><path d="m408.75 98.49c0-.22-.08-.39-.25-.51s-.45-.23-.86-.31-.73-.19-.97-.31-.42-.27-.53-.44-.17-.37-.17-.6c0-.39.16-.72.49-.98s.75-.4 1.26-.4c.54 0 .97.14 1.3.42s.5.63.5 1.06h-.81c0-.22-.09-.41-.28-.57s-.42-.24-.71-.24-.52.06-.69.19-.25.3-.25.5.08.34.23.44.43.19.84.28.73.2.98.32.44.28.56.45.18.39.18.64c0 .42-.17.76-.51 1.02s-.78.38-1.32.38c-.38 0-.71-.07-1.01-.2s-.52-.32-.68-.56-.25-.5-.25-.78h.81c.01.27.12.49.33.64s.47.24.8.24c.31 0 .55-.06.74-.19s.28-.29.28-.5z"/><path d="m412.51 99.17c.29 0 .54-.09.76-.26s.34-.39.36-.66h.76c-.01.27-.11.53-.28.77s-.4.44-.69.59-.59.22-.91.22c-.64 0-1.16-.21-1.54-.64s-.57-1.02-.57-1.76v-.14c0-.46.08-.87.25-1.23s.41-.64.73-.83.69-.3 1.12-.3c.53 0 .97.16 1.32.48s.54.73.56 1.24h-.76c-.02-.31-.14-.56-.35-.75s-.47-.29-.77-.29c-.41 0-.73.15-.95.44s-.34.72-.34 1.28v.15c0 .54.11.96.34 1.26s.54.44.96.44z"/><path d="m400.62 113.52v4.33c0 .6-.19 1.09-.57 1.47s-.88.6-1.52.64h-.22c-.7 0-1.25-.18-1.66-.55s-.62-.89-.63-1.55v-4.34h.83v4.31c0 .46.13.82.38 1.07s.61.38 1.08.38.84-.13 1.09-.38.38-.61.38-1.07v-4.31z"/><path d="m402.58 115.15.03.59c.36-.45.83-.68 1.42-.68 1 0 1.5.56 1.51 1.69v3.12h-.81v-3.13c0-.34-.08-.59-.23-.76s-.39-.24-.71-.24c-.26 0-.49.07-.69.21s-.35.32-.46.55v3.37h-.81v-4.73h.76z"/><path d="m409.67 119.88c-.05-.09-.08-.26-.11-.5-.38.39-.82.59-1.35.59-.47 0-.85-.13-1.15-.4s-.45-.6-.45-1c0-.49.19-.87.56-1.15s.9-.41 1.58-.41h.79v-.37c0-.28-.08-.51-.25-.68s-.42-.25-.75-.25c-.29 0-.53.07-.73.22s-.29.32-.29.53h-.81c0-.24.08-.46.25-.68s.39-.39.68-.52.6-.19.95-.19c.54 0 .97.14 1.28.41s.47.65.48 1.13v2.18c0 .43.06.78.17 1.04v.07h-.85zm-1.34-.62c.25 0 .49-.07.72-.2s.39-.3.49-.51v-.97h-.63c-.99 0-1.49.29-1.49.87 0 .25.08.45.25.59s.39.21.65.21z"/><path d="m412.39 115.15.03.59c.36-.45.83-.68 1.42-.68 1 0 1.5.56 1.51 1.69v3.12h-.81v-3.13c0-.34-.08-.59-.23-.76s-.39-.24-.71-.24c-.26 0-.49.07-.69.21s-.35.32-.46.55v3.37h-.81v-4.73h.76z"/><path d="m419.31 118.63c0-.22-.08-.39-.25-.51s-.45-.23-.86-.31-.73-.19-.97-.31-.42-.27-.53-.44-.17-.37-.17-.6c0-.39.16-.72.49-.98s.75-.4 1.26-.4c.54 0 .97.14 1.3.42s.5.63.5 1.06h-.81c0-.22-.09-.41-.28-.57s-.42-.24-.71-.24-.52.06-.69.19-.25.3-.25.5.08.34.23.44.43.19.84.28.73.2.98.32.44.28.56.45.18.39.18.64c0 .42-.17.76-.51 1.02s-.78.38-1.32.38c-.38 0-.71-.07-1.01-.2s-.52-.32-.68-.56-.25-.5-.25-.78h.81c.01.27.12.49.33.64s.47.24.8.24c.31 0 .55-.06.74-.19s.28-.29.28-.5z"/><path d="m425.36 118.77.91-3.61h.81l-1.38 4.73h-.66l-1.15-3.58-1.12 3.58h-.66l-1.37-4.73h.8l.93 3.54 1.1-3.54h.65l1.12 3.61z"/><path d="m429.86 119.97c-.64 0-1.16-.21-1.56-.63s-.6-.98-.6-1.69v-.15c0-.47.09-.89.27-1.26s.43-.66.75-.87.67-.31 1.05-.31c.61 0 1.09.2 1.43.61s.51.98.51 1.74v.34h-3.2c.01.47.15.84.41 1.13s.59.43.99.43c.29 0 .53-.06.73-.17s.37-.27.52-.46l.49.38c-.4.61-.99.91-1.78.91zm-.1-4.24c-.33 0-.6.12-.82.36s-.36.57-.41 1h2.37v-.06c-.02-.41-.13-.73-.33-.95s-.47-.34-.8-.34z"/><path d="m434.93 115.88c-.12-.02-.25-.03-.4-.03-.53 0-.89.23-1.08.68v3.36h-.81v-4.73h.79v.55c.28-.42.65-.63 1.14-.63.16 0 .28.02.36.06v.75z"/><path d="m437.55 119.97c-.64 0-1.16-.21-1.56-.63s-.6-.98-.6-1.69v-.15c0-.47.09-.89.27-1.26s.43-.66.75-.87.67-.31 1.05-.31c.61 0 1.09.2 1.43.61s.51.98.51 1.74v.34h-3.2c.01.47.15.84.41 1.13s.59.43.99.43c.29 0 .53-.06.73-.17s.37-.27.52-.46l.49.38c-.4.61-.99.91-1.78.91zm-.1-4.24c-.33 0-.6.12-.82.36s-.36.57-.41 1h2.37v-.06c-.02-.41-.13-.73-.33-.95s-.47-.34-.8-.34z"/><path d="m440.13 117.48c0-.73.17-1.31.52-1.75s.79-.66 1.35-.66.99.19 1.32.57v-2.46h.81v6.71h-.74l-.04-.51c-.32.4-.77.59-1.35.59s-.99-.22-1.34-.67-.52-1.03-.52-1.76v-.06zm.81.09c0 .54.11.96.33 1.26s.53.45.92.45c.51 0 .89-.23 1.12-.69v-2.17c-.24-.45-.61-.67-1.11-.67-.4 0-.71.15-.93.46s-.33.76-.33 1.36z"/><path d="m400.82 138c-.08.67-.33 1.19-.75 1.56s-.97.55-1.67.55c-.75 0-1.35-.27-1.81-.81s-.68-1.26-.68-2.16v-.61c0-.59.11-1.11.32-1.56s.51-.79.9-1.03.84-.36 1.35-.36c.68 0 1.22.19 1.63.57s.65.9.71 1.57h-.84c-.07-.51-.23-.88-.47-1.1s-.58-.34-1.02-.34c-.54 0-.96.2-1.26.6s-.46.96-.46 1.69v.62c0 .69.14 1.24.43 1.65s.69.61 1.21.61c.47 0 .82-.11 1.07-.32s.41-.58.5-1.1h.84z"/><path d="m404.76 140.02c-.05-.09-.08-.26-.11-.5-.38.39-.82.59-1.35.59-.47 0-.85-.13-1.15-.4s-.45-.6-.45-1c0-.49.19-.87.56-1.15s.9-.41 1.58-.41h.79v-.37c0-.28-.08-.51-.25-.68s-.42-.25-.75-.25c-.29 0-.53.07-.73.22s-.29.32-.29.53h-.81c0-.24.08-.46.25-.68s.39-.39.68-.52.6-.19.95-.19c.54 0 .97.14 1.28.41s.47.65.48 1.13v2.18c0 .43.06.78.17 1.04v.07h-.85zm-1.34-.62c.25 0 .49-.07.72-.2s.39-.3.49-.51v-.97h-.63c-.99 0-1.49.29-1.49.87 0 .25.08.45.25.59s.39.21.65.21z"/><path d="m407.58 140.02h-.81v-6.71h.81z"/><path d="m409.76 140.02h-.81v-6.71h.81z"/><path d="m413.01 140.11c-.64 0-1.16-.21-1.56-.63s-.6-.98-.6-1.69v-.15c0-.47.09-.89.27-1.26s.43-.66.75-.87.67-.31 1.05-.31c.61 0 1.09.2 1.43.61s.51.98.51 1.74v.34h-3.2c.01.47.15.84.41 1.13s.59.43.99.43c.29 0 .53-.06.73-.17s.37-.27.52-.46l.49.38c-.4.61-.99.91-1.78.91zm-.1-4.24c-.33 0-.6.12-.82.36s-.36.57-.41 1h2.37v-.06c-.02-.41-.13-.73-.33-.95s-.47-.34-.8-.34z"/><path d="m418.08 136.02c-.12-.02-.25-.03-.4-.03-.53 0-.89.23-1.08.68v3.36h-.81v-4.73h.79v.55c.28-.42.65-.63 1.14-.63.16 0 .28.02.36.06v.75z"/><path d="m424.76 137.08h-2.76v2.25h3.2v.69h-4.04v-6.36h4v.69h-3.16v2.05h2.76v.69z"/><path d="m426.89 135.29.03.59c.36-.45.83-.68 1.42-.68 1 0 1.5.56 1.51 1.69v3.12h-.81v-3.13c0-.34-.08-.59-.23-.76s-.39-.24-.71-.24c-.26 0-.49.07-.69.21s-.35.32-.46.55v3.37h-.81v-4.73h.76z"/><path d="m430.86 137.61c0-.73.17-1.31.52-1.75s.79-.66 1.35-.66.99.19 1.32.57v-2.46h.81v6.71h-.74l-.04-.51c-.32.4-.77.59-1.35.59s-.99-.22-1.34-.67-.52-1.03-.52-1.76v-.06zm.81.09c0 .54.11.96.33 1.26s.53.45.92.45c.51 0 .89-.23 1.12-.69v-2.17c-.24-.45-.61-.67-1.11-.67-.4 0-.71.15-.93.46s-.33.76-.33 1.36z"/><path d="m438.07 140.11c-.64 0-1.16-.21-1.56-.63s-.6-.98-.6-1.69v-.15c0-.47.09-.89.27-1.26s.43-.66.75-.87.67-.31 1.05-.31c.61 0 1.09.2 1.43.61s.51.98.51 1.74v.34h-3.2c.01.47.15.84.41 1.13s.59.43.99.43c.29 0 .53-.06.73-.17s.37-.27.52-.46l.49.38c-.4.61-.99.91-1.78.91zm-.1-4.24c-.33 0-.6.12-.82.36s-.36.57-.41 1h2.37v-.06c-.02-.41-.13-.73-.33-.95s-.47-.34-.8-.34z"/><path d="m440.65 137.61c0-.73.17-1.31.52-1.75s.79-.66 1.35-.66.99.19 1.32.57v-2.46h.81v6.71h-.74l-.04-.51c-.32.4-.77.59-1.35.59s-.99-.22-1.34-.67-.52-1.03-.52-1.76v-.06zm.81.09c0 .54.11.96.33 1.26s.53.45.92.45c.51 0 .89-.23 1.12-.69v-2.17c-.24-.45-.61-.67-1.11-.67-.4 0-.71.15-.93.46s-.33.76-.33 1.36z"/><path d="m400.82 158.14c-.08.67-.33 1.19-.75 1.56s-.97.55-1.67.55c-.75 0-1.35-.27-1.81-.81s-.68-1.26-.68-2.16v-.61c0-.59.11-1.11.32-1.56s.51-.79.9-1.03.84-.36 1.35-.36c.68 0 1.22.19 1.63.57s.65.9.71 1.57h-.84c-.07-.51-.23-.88-.47-1.1s-.58-.34-1.02-.34c-.54 0-.96.2-1.26.6s-.46.96-.46 1.69v.62c0 .69.14 1.24.43 1.65s.69.61 1.21.61c.47 0 .82-.11 1.07-.32s.41-.58.5-1.1h.84z"/><path d="m404.76 159.69c-.31.37-.78.55-1.39.55-.5 0-.89-.15-1.15-.44s-.4-.73-.4-1.3v-3.08h.81v3.05c0 .72.29 1.08.87 1.08.62 0 1.03-.23 1.23-.69v-3.44h.81v4.73h-.77l-.02-.47z"/><path d="m409.52 158.9c0-.22-.08-.39-.25-.51s-.45-.23-.86-.31-.73-.19-.97-.31-.42-.27-.53-.44-.17-.37-.17-.6c0-.39.16-.72.49-.98s.75-.4 1.26-.4c.54 0 .97.14 1.3.42s.5.63.5 1.06h-.81c0-.22-.09-.41-.28-.57s-.42-.24-.71-.24-.52.06-.69.19-.25.3-.25.5.08.34.23.44.43.19.84.28.73.2.98.32.44.28.56.45.18.39.18.64c0 .42-.17.76-.51 1.02s-.78.38-1.32.38c-.38 0-.71-.07-1.01-.2s-.52-.32-.68-.56-.25-.5-.25-.78h.81c.01.27.12.49.33.64s.47.24.8.24c.31 0 .55-.06.74-.19s.28-.29.28-.5z"/><path d="m412.48 154.28v1.14h.88v.62h-.88v2.94c0 .19.04.33.12.43s.21.14.4.14c.09 0 .22-.02.38-.05v.65c-.21.06-.42.09-.62.09-.36 0-.63-.11-.82-.33s-.28-.53-.28-.93v-2.93h-.86v-.62h.86v-1.14h.81z"/><path d="m414.01 157.75c0-.46.09-.88.27-1.25s.44-.66.76-.86.7-.3 1.11-.3c.64 0 1.16.22 1.56.67s.6 1.04.6 1.78v.06c0 .46-.09.87-.26 1.24s-.43.65-.76.85-.7.31-1.13.31c-.64 0-1.16-.22-1.56-.67s-.6-1.04-.6-1.77v-.06zm.81.1c0 .52.12.95.36 1.26s.57.48.98.48.74-.16.98-.48.36-.77.36-1.35c0-.52-.12-.94-.37-1.26s-.57-.48-.98-.48-.72.16-.97.48-.37.77-.37 1.36z"/><path d="m420.09 155.43.02.52c.35-.41.81-.61 1.4-.61.66 0 1.11.25 1.35.76.16-.23.36-.41.61-.55s.55-.21.89-.21c1.04 0 1.56.55 1.58 1.65v3.17h-.81v-3.12c0-.34-.08-.59-.23-.76s-.41-.25-.78-.25c-.3 0-.55.09-.75.27s-.31.42-.35.72v3.14h-.81v-3.1c0-.69-.34-1.03-1.01-1.03-.53 0-.89.23-1.09.68v3.45h-.81v-4.73h.76z"/><path d="m429.13 160.24c-.64 0-1.16-.21-1.56-.63s-.6-.98-.6-1.69v-.15c0-.47.09-.89.27-1.26s.43-.66.75-.87.67-.31 1.05-.31c.61 0 1.09.2 1.43.61s.51.98.51 1.74v.34h-3.2c.01.47.15.84.41 1.13s.59.43.99.43c.29 0 .53-.06.73-.17s.37-.27.52-.46l.49.38c-.4.61-.99.91-1.78.91zm-.1-4.24c-.33 0-.6.12-.82.36s-.36.57-.41 1h2.37v-.06c-.02-.41-.13-.73-.33-.95s-.47-.34-.8-.34z"/><path d="m434.2 156.15c-.12-.02-.25-.03-.4-.03-.53 0-.89.23-1.08.68v3.36h-.81v-4.73h.79v.55c.28-.42.65-.63 1.14-.63.16 0 .28.02.36.06v.75z"/><path d="m439.16 157.32c-.72-.21-1.24-.46-1.57-.76s-.49-.67-.49-1.12c0-.5.2-.92.6-1.24s.92-.49 1.56-.49c.44 0 .83.08 1.17.25s.61.4.8.7.28.62.28.97h-.84c0-.39-.12-.69-.37-.91s-.59-.33-1.04-.33c-.41 0-.74.09-.97.27s-.35.44-.35.76c0 .26.11.48.33.66s.59.34 1.12.49.94.31 1.24.49.52.39.66.63.22.52.22.84c0 .52-.2.93-.6 1.24s-.94.47-1.61.47c-.44 0-.84-.08-1.22-.25s-.67-.4-.88-.69-.31-.62-.31-.99h.84c0 .38.14.69.43.91s.66.33 1.14.33c.44 0 .78-.09 1.02-.27s.35-.43.35-.74-.11-.55-.33-.72-.61-.34-1.19-.5z"/><path d="m444.43 160.24c-.64 0-1.16-.21-1.56-.63s-.6-.98-.6-1.69v-.15c0-.47.09-.89.27-1.26s.43-.66.75-.87.67-.31 1.05-.31c.61 0 1.09.2 1.43.61s.51.98.51 1.74v.34h-3.2c.01.47.15.84.41 1.13s.59.43.99.43c.29 0 .53-.06.73-.17s.37-.27.52-.46l.49.38c-.4.61-.99.91-1.78.91zm-.1-4.24c-.33 0-.6.12-.82.36s-.36.57-.41 1h2.37v-.06c-.02-.41-.13-.73-.33-.95s-.47-.34-.8-.34z"/><path d="m449.49 156.15c-.12-.02-.25-.03-.4-.03-.53 0-.89.23-1.08.68v3.36h-.81v-4.73h.79v.55c.28-.42.65-.63 1.14-.63.16 0 .28.02.36.06v.75z"/><path d="m451.87 159.06 1.17-3.63h.83l-1.7 4.73h-.62l-1.71-4.73h.83z"/><path d="m454.65 154.17c0-.13.04-.24.12-.33s.2-.14.36-.14.28.05.36.14.12.2.12.33-.04.24-.12.33-.2.13-.36.13-.28-.04-.36-.13-.12-.2-.12-.33zm.87 5.98h-.81v-4.73h.81z"/><path d="m458.72 159.58c.29 0 .54-.09.76-.26s.34-.39.36-.66h.76c-.01.27-.11.53-.28.77s-.4.44-.69.59-.59.22-.91.22c-.64 0-1.16-.21-1.54-.64s-.57-1.02-.57-1.76v-.14c0-.46.08-.87.25-1.23s.41-.64.73-.83.69-.3 1.12-.3c.53 0 .97.16 1.32.48s.54.73.56 1.24h-.76c-.02-.31-.14-.56-.35-.75s-.47-.29-.77-.29c-.41 0-.73.15-.95.44s-.34.72-.34 1.28v.15c0 .54.11.96.34 1.26s.54.44.96.44z"/><path d="m463.47 160.24c-.64 0-1.16-.21-1.56-.63s-.6-.98-.6-1.69v-.15c0-.47.09-.89.27-1.26s.43-.66.75-.87.67-.31 1.05-.31c.61 0 1.09.2 1.43.61s.51.98.51 1.74v.34h-3.2c.01.47.15.84.41 1.13s.59.43.99.43c.29 0 .53-.06.73-.17s.37-.27.52-.46l.49.38c-.4.61-.99.91-1.78.91zm-.1-4.24c-.33 0-.6.12-.82.36s-.36.57-.41 1h2.37v-.06c-.02-.41-.13-.73-.33-.95s-.47-.34-.8-.34z"/></g><circle cx="380.47" cy="76.42" fill="#bf7d5e" r="5.73"/><circle cx="380.47" cy="157.15" fill="#d2d4d4" r="5.73"/><circle cx="380.47" cy="136.97" fill="#673420" r="5.73"/><circle cx="380.47" cy="116.79" fill="#8a8a8a" r="5.73"/><circle cx="380.47" cy="96.6" fill="#272524" r="5.73"/></svg>