<?xml version="1.0" encoding="utf-8"?>
<!-- Generator: Adobe Illustrator 26.2.1, SVG Export Plug-In . SVG Version: 6.00 Build 0)  -->
<svg version="1.1" id="Layer_1" xmlns="http://www.w3.org/2000/svg" xmlns:xlink="http://www.w3.org/1999/xlink" x="0px" y="0px"
	 viewBox="0 0 462 380" style="enable-background:new 0 0 462 380;" xml:space="preserve">
<style type="text/css">
	.st0{fill:url(#SVGID_1_);}
	.st1{fill:url(#SVGID_00000059991220001121993010000010362934042736640651_);}
	.st2{fill:url(#SVGID_00000149380902054518366590000009854357994642821031_);}
	.st3{fill:#4373B9;}
	.st4{fill:#FFFFFF;}
	.st5{fill:#E52129;}
	.st6{fill-rule:evenodd;clip-rule:evenodd;fill:#2968B2;}
	.st7{fill-rule:evenodd;clip-rule:evenodd;fill:#FFFFFF;}
	.st8{fill:#EC2427;}
	.st9{fill:#439CD6;}
	.st10{fill:url(#SVGID_00000071531322614131401140000011974099518066202037_);}
	.st11{fill:url(#SVGID_00000029004152987955710440000003498232191259115450_);}
	.st12{fill:url(#SVGID_00000102539910405660606410000005285952173169333909_);}
</style>
<g>
	<g>
		
			<linearGradient id="SVGID_1_" gradientUnits="userSpaceOnUse" x1="-499.6003" y1="301.3578" x2="-499.1483" y2="301.3578" gradientTransform="matrix(-63.1201 208.5328 208.5328 63.1201 -94128.8359 85419.6094)">
			<stop  offset="0" style="stop-color:#5660AB"/>
			<stop  offset="0.26" style="stop-color:#883E97"/>
			<stop  offset="0.66" style="stop-color:#E32226"/>
			<stop  offset="1" style="stop-color:#FEDA79"/>
		</linearGradient>
		<path class="st0" d="M233.3,261.3c-13.3,0-14.9,0.1-20.1,0.3c-5.2,0.2-8.7,1.1-11.9,2.3c-3.2,1.2-5.9,2.9-8.6,5.6
			c-2.7,2.7-4.4,5.4-5.6,8.6c-1.2,3.1-2,6.7-2.3,11.9c-0.2,5.2-0.3,6.9-0.3,20.1c0,13.3,0.1,14.9,0.3,20.1c0.2,5.2,1.1,8.7,2.3,11.9
			c1.2,3.2,2.9,5.9,5.6,8.6c2.7,2.7,5.4,4.4,8.6,5.6c3.1,1.2,6.7,2,11.9,2.3c5.2,0.2,6.9,0.3,20.1,0.3c13.3,0,14.9-0.1,20.1-0.3
			c5.2-0.2,8.7-1.1,11.9-2.3c3.2-1.2,5.9-2.9,8.6-5.6c2.7-2.7,4.4-5.4,5.6-8.6c1.2-3.1,2-6.7,2.3-11.9c0.2-5.2,0.3-6.9,0.3-20.1
			c0-13.3-0.1-14.9-0.3-20.1c-0.2-5.2-1.1-8.7-2.3-11.9c-1.2-3.2-2.9-5.9-5.6-8.6c-2.7-2.7-5.4-4.4-8.6-5.6c-3.1-1.2-6.7-2-11.9-2.3
			C248.2,261.4,246.5,261.3,233.3,261.3z M233.3,270.1c13,0,14.6,0,19.7,0.3c4.8,0.2,7.3,1,9.1,1.7c2.3,0.9,3.9,1.9,5.6,3.7
			c1.7,1.7,2.8,3.3,3.7,5.6c0.7,1.7,1.5,4.3,1.7,9.1c0.2,5.1,0.3,6.7,0.3,19.7c0,13,0,14.6-0.3,19.7c-0.2,4.8-1,7.3-1.7,9.1
			c-0.9,2.3-1.9,3.9-3.7,5.6c-1.7,1.7-3.3,2.8-5.6,3.7c-1.7,0.7-4.3,1.5-9.1,1.7c-5.1,0.2-6.7,0.3-19.7,0.3c-13,0-14.6,0-19.7-0.3
			c-4.8-0.2-7.3-1-9.1-1.7c-2.3-0.9-3.9-1.9-5.6-3.7c-1.7-1.7-2.8-3.3-3.7-5.6c-0.7-1.7-1.5-4.3-1.7-9.1c-0.2-5.1-0.3-6.7-0.3-19.7
			c0-13,0-14.6,0.3-19.7c0.2-4.8,1-7.3,1.7-9.1c0.9-2.3,1.9-3.9,3.7-5.6c1.7-1.7,3.3-2.8,5.6-3.7c1.7-0.7,4.3-1.5,9.1-1.7
			C218.7,270.1,220.2,270.1,233.3,270.1z"/>
		
			<linearGradient id="SVGID_00000035528846356304804840000008361975921046449290_" gradientUnits="userSpaceOnUse" x1="-499.6003" y1="301.3578" x2="-499.1483" y2="301.3578" gradientTransform="matrix(-63.1201 208.5328 208.5328 63.1201 -94128.8359 85419.6094)">
			<stop  offset="0" style="stop-color:#5660AB"/>
			<stop  offset="0.26" style="stop-color:#883E97"/>
			<stop  offset="0.66" style="stop-color:#E32226"/>
			<stop  offset="1" style="stop-color:#FEBF10"/>
		</linearGradient>
		<path style="fill:url(#SVGID_00000035528846356304804840000008361975921046449290_);" d="M233.3,326.4c-9,0-16.3-7.3-16.3-16.3
			c0-9,7.3-16.3,16.3-16.3c9,0,16.3,7.3,16.3,16.3C249.6,319.1,242.3,326.4,233.3,326.4z M233.3,285.1c-13.8,0-25.1,11.2-25.1,25.1
			c0,13.8,11.2,25.1,25.1,25.1c13.8,0,25.1-11.2,25.1-25.1C258.4,296.3,247.1,285.1,233.3,285.1z"/>
		
			<linearGradient id="SVGID_00000134971474468369430490000011888658727271477680_" gradientUnits="userSpaceOnUse" x1="-499.6003" y1="301.4377" x2="-499.1483" y2="301.4377" gradientTransform="matrix(-63.1201 208.5328 208.5328 63.1201 -94128.8359 85419.6094)">
			<stop  offset="0" style="stop-color:#5660AB"/>
			<stop  offset="0.26" style="stop-color:#883E97"/>
			<stop  offset="0.66" style="stop-color:#E32226"/>
			<stop  offset="1" style="stop-color:#FEBF10"/>
		</linearGradient>
		<path style="fill:url(#SVGID_00000134971474468369430490000011888658727271477680_);" d="M265.2,284.1c0,3.2-2.6,5.9-5.9,5.9
			s-5.9-2.6-5.9-5.9c0-3.2,2.6-5.9,5.9-5.9S265.2,280.8,265.2,284.1z"/>
	</g>
	<g id="g5891_00000060743210128471229490000012168501149315050372_">
		<path id="background_00000164497393296281133690000011967751055278246552_" class="st6" d="M276.9,32.5c0-6.3-5.1-11.4-11.4-11.4
			h-68.6c-6.3,0-11.4,5.1-11.4,11.4v68.6c0,6.3,5.1,11.4,11.4,11.4h68.6c6.3,0,11.4-5.1,11.4-11.4V32.5z"/>
		<g id="shapes_00000145020808284932656500000008801656657374191234_">
			
				<rect id="rect11_00000075845273116067078450000010438704303834595242_" x="196.3" y="53" class="st7" width="15.3" height="46.1"/>
			<path id="path13-0_00000039092911972651566900000003245510624107561350_" class="st4" d="M204.1,30.8c-5.2,0-8.7,3.4-8.7,8
				c0,4.4,3.3,8,8.5,8h0.1c5.3,0,8.7-3.5,8.7-8C212.6,34.2,209.3,30.8,204.1,30.8z"/>
			<path id="path15_00000122001174897903686830000001302697968297991849_" class="st4" d="M249.3,51.9c-8.1,0-11.8,4.5-13.8,7.6V53
				h-15.3c0.2,4.3,0,46.1,0,46.1h15.3V73.3c0-1.4,0.1-2.8,0.5-3.7c1.1-2.8,3.6-5.6,7.9-5.6c5.5,0,7.8,4.2,7.8,10.4v24.7h15.3V72.7
				C266.9,58.5,259.4,51.9,249.3,51.9z"/>
		</g>
	</g>
	<path class="st3" d="M103.1,125.2l2.6-17.1H89.4V97.1c0-4.7,2.3-9.2,9.6-9.2h7.4V73.4c0,0-6.8-1.2-13.2-1.2
		c-13.5,0-22.3,8.2-22.3,23v13H56v17.1h15v41.2c3,0.5,6.1,0.7,9.2,0.7c3.1,0,6.2-0.2,9.2-0.7v-41.2H103.1z"/>
	<g>
		<path class="st8" d="M124.4,225.1c-1.2-4.3-4.6-7.8-8.9-8.9C107.6,214,76,214,76,214s-31.6,0-39.5,2.1c-4.3,1.2-7.8,4.6-8.9,8.9
			c-2.1,7.9-2.1,24.3-2.1,24.3s0,16.4,2.1,24.3c1.2,4.3,4.6,7.8,8.9,8.9c7.9,2.1,39.5,2.1,39.5,2.1s31.6,0,39.5-2.1
			c4.3-1.2,7.8-4.6,8.9-8.9c2.1-7.9,2.1-24.3,2.1-24.3S126.5,233,124.4,225.1z"/>
		<path class="st4" d="M65.9,264.5l26.2-15.2l-26.2-15.2V264.5L65.9,264.5z"/>
	</g>
	<g>
		<path class="st4" d="M436.1,249.4c0,25.3-20.5,45.8-45.8,45.8c-25.3,0-45.8-20.5-45.8-45.8c0-25.3,20.5-45.8,45.8-45.8
			C415.6,203.6,436.1,224.1,436.1,249.4L436.1,249.4z"/>
		<path class="st5" d="M390.4,203.6c-25.3,0-45.8,20.5-45.8,45.8c0,19.4,12.1,36,29.1,42.6c-0.4-3.6-0.8-9.2,0.2-13.1
			c0.8-3.6,5.4-22.8,5.4-22.8s-1.4-2.7-1.4-6.8c0-6.4,3.7-11.1,8.3-11.1c3.9,0,5.8,2.9,5.8,6.4c0,3.9-2.5,9.8-3.8,15.2
			c-1.1,4.6,2.3,8.3,6.8,8.3c8.1,0,14.4-8.6,14.4-21c0-11-7.9-18.6-19.1-18.6c-13,0-20.7,9.8-20.7,19.9c0,3.9,1.5,8.2,3.4,10.4
			c0.4,0.5,0.4,0.9,0.3,1.3c-0.3,1.4-1.1,4.6-1.3,5.2c-0.2,0.8-0.7,1-1.5,0.6c-5.7-2.7-9.3-11-9.3-17.7c0-14.4,10.5-27.7,30.2-27.7
			c15.9,0,28.2,11.3,28.2,26.4c0,15.8-9.9,28.5-23.8,28.5c-4.6,0-9-2.4-10.5-5.3c0,0-2.3,8.7-2.9,10.9c-1,4-3.8,9-5.7,12
			c4.3,1.3,8.8,2,13.6,2c25.3,0,45.8-20.5,45.8-45.8C436.1,224.1,415.6,203.6,390.4,203.6L390.4,203.6z"/>
	</g>
	<path class="st9" d="M372.7,164c35.1,0,54.3-29.1,54.3-54.3c0-0.8,0-1.6-0.1-2.5c3.7-2.7,7-6,9.5-9.9c-3.5,1.5-7.2,2.6-11,3
		c4-2.4,7-6.1,8.4-10.5c-3.7,2.2-7.8,3.8-12.1,4.6c-3.6-3.8-8.6-6-13.9-6c-10.5,0-19.1,8.6-19.1,19.1c0,1.5,0.2,2.9,0.5,4.3
		c-15.3-0.8-29.6-8-39.3-19.9c-5,8.7-2.4,19.9,5.9,25.5c-3-0.1-6-0.9-8.7-2.4v0.2c0,9,6.4,16.9,15.3,18.7c-2.8,0.8-5.8,0.9-8.6,0.3
		c2.5,7.7,9.7,13.1,17.8,13.2c-6.8,5.3-15.1,8.2-23.7,8.2c-1.5,0-3-0.1-4.5-0.3C352.2,161,362.4,164,372.7,164"/>
</g>
</svg>
