<svg id="Layer_1" data-name="Layer 1" xmlns="http://www.w3.org/2000/svg" xmlns:xlink="http://www.w3.org/1999/xlink" viewBox="0 0 146.09 146.09"><defs><style>.cls-1{fill:url(#linear-gradient);}.cls-2{fill:url(#linear-gradient-2);}</style><linearGradient id="linear-gradient" x1="-3.67" y1="73.04" x2="143.76" y2="73.04" gradientUnits="userSpaceOnUse"><stop offset="0" stop-color="#cb7958"/><stop offset="1" stop-color="#eead8d"/></linearGradient><linearGradient id="linear-gradient-2" x1="-3.67" y1="70.37" x2="143.76" y2="70.37" xlink:href="#linear-gradient"/></defs><title>OA Icons</title><path class="cls-1" d="M102.39,22.22h0a58.71,58.71,0,0,0-58.69,0h0a58.69,58.69,0,0,0,0,101.65h0a58.71,58.71,0,0,0,58.69,0h0a58.69,58.69,0,0,0,0-101.65Zm-5.34,47v30h-48v-30H40.36L73.05,40.88l32.68,28.33Z"/><path class="cls-2" d="M45.73,67.21h5.32v30h44v-30h5.31L73.05,43.53ZM75.13,89A2.95,2.95,0,1,1,71,84.79h0A2.95,2.95,0,0,1,75.13,89Zm3.67-5.84a8.15,8.15,0,0,0-11.51,0l-1.41-1.41a10.13,10.13,0,0,1,14.33,0Zm3.44-3.44a13,13,0,0,0-18.39,0l-1.42-1.42a15,15,0,0,1,21.23,0Zm3.45-3.45a17.88,17.88,0,0,0-25.29,0L59,74.82a19.86,19.86,0,0,1,28.11,0Zm4.86-4.86-1.42,1.42a22.73,22.73,0,0,0-32.17,0l-1.42-1.42a24.76,24.76,0,0,1,35,0Z"/><path class="cls-1" d="M109.57,9.79h0a73,73,0,0,0-73,0h0A73,73,0,0,0,0,73H0A73,73,0,0,0,36.52,136.3h0a73,73,0,0,0,73,0h0A73,73,0,0,0,146.09,73h0A73,73,0,0,0,109.57,9.79Zm-5.18,117.54A62.68,62.68,0,1,1,135.73,73,62.73,62.73,0,0,1,104.39,127.33Z"/></svg>