<svg id="Layer_1" data-name="Layer 1" xmlns="http://www.w3.org/2000/svg" xmlns:xlink="http://www.w3.org/1999/xlink" viewBox="0 0 146.09 146.09"><defs><style>.cls-1{fill:url(#linear-gradient);}.cls-2{fill:url(#linear-gradient-2);}.cls-3{fill:url(#linear-gradient-4);}</style><linearGradient id="linear-gradient" x1="-2.22" y1="59.95" x2="155.21" y2="59.95" gradientUnits="userSpaceOnUse"><stop offset="0" stop-color="#cb7958"/><stop offset="1" stop-color="#eead8d"/></linearGradient><linearGradient id="linear-gradient-2" x1="-2.22" y1="71.47" x2="155.21" y2="71.47" xlink:href="#linear-gradient"/><linearGradient id="linear-gradient-4" x1="-2.22" y1="73.04" x2="155.21" y2="73.04" xlink:href="#linear-gradient"/></defs><title>OA Icons</title><polygon class="cls-1" points="61.69 57.2 53.52 57.2 58.65 62.7 67.28 62.7 61.69 57.2"/><polygon class="cls-2" points="60.51 64.7 73.13 78.25 86.1 64.7 60.51 64.7"/><polygon class="cls-1" points="88.02 62.7 93.28 57.2 64.54 57.2 70.13 62.7 88.02 62.7"/><path class="cls-3" d="M109.57,9.79h0a73,73,0,0,0-73,0h0A73,73,0,0,0,0,73H0A73,73,0,0,0,36.52,136.3h0a73,73,0,0,0,73,0h0A73,73,0,0,0,146.09,73h0A73,73,0,0,0,109.57,9.79Zm-5.18,117.54A62.68,62.68,0,1,1,135.73,73,62.74,62.74,0,0,1,104.39,127.33Z"/><path class="cls-3" d="M102.39,22.22h0a58.71,58.71,0,0,0-58.69,0h0A58.68,58.68,0,0,0,14.36,73h0A58.68,58.68,0,0,0,43.7,123.87h0a58.71,58.71,0,0,0,58.69,0h0A58.68,58.68,0,0,0,131.73,73h0A58.68,58.68,0,0,0,102.39,22.22ZM83.62,103.4v2H62.72v-2h9.4V80.09L48.92,55.2H59.66L56,51.58a3.78,3.78,0,0,1-1.51.32,3.7,3.7,0,0,1-3.7-3.7,3.65,3.65,0,0,1,.5-1.82l-3.14-3.06,1.39-1.43L52.69,45a3.59,3.59,0,0,1,1.78-.48,3.7,3.7,0,0,1,3.7,3.7,3.65,3.65,0,0,1-.65,2.09l5,4.91H98L74.12,80.1v23.3Z"/></svg>