<svg id="Layer_1" data-name="Layer 1" xmlns="http://www.w3.org/2000/svg" xmlns:xlink="http://www.w3.org/1999/xlink" viewBox="0 0 146.09 146.09"><defs><style>.cls-1{fill:url(#linear-gradient);}.cls-2{fill:url(#linear-gradient-2);}.cls-3{fill:url(#linear-gradient-3);}.cls-4{fill:url(#linear-gradient-4);}.cls-5{fill:url(#linear-gradient-5);}</style><linearGradient id="linear-gradient" x1="-1.39" y1="70.78" x2="145.4" y2="75.25" gradientUnits="userSpaceOnUse"><stop offset="0" stop-color="#cb7958"/><stop offset="1" stop-color="#eead8d"/></linearGradient><linearGradient id="linear-gradient-2" x1="-1.54" y1="75.64" x2="145.25" y2="80.11" xlink:href="#linear-gradient"/><linearGradient id="linear-gradient-3" x1="-1.8" y1="84.12" x2="144.99" y2="88.59" xlink:href="#linear-gradient"/><linearGradient id="linear-gradient-4" x1="-2.01" y1="91.1" x2="144.78" y2="95.57" xlink:href="#linear-gradient"/><linearGradient id="linear-gradient-5" x1="-1.39" y1="70.78" x2="145.4" y2="75.25" xlink:href="#linear-gradient"/></defs><title>OA Icons</title><path class="cls-1" d="M109.57,9.79A73,73,0,1,0,146.09,73,73,73,0,0,0,109.57,9.79Zm-5.18,117.54A62.68,62.68,0,1,1,135.73,73,62.74,62.74,0,0,1,104.39,127.33Z"/><rect class="cls-2" x="84.04" y="55.9" width="10" height="45"/><rect class="cls-3" x="68.04" y="71.9" width="10" height="29"/><rect class="cls-4" x="52.04" y="84.9" width="10" height="16"/><path class="cls-5" d="M131.7,71.08a58.71,58.71,0,0,0-21.33-43.32,58.66,58.66,0,0,0-74.65,0A58.71,58.71,0,0,0,14.39,71.08c0,.66,0,1.31,0,2a58.69,58.69,0,1,0,117.37,0C131.73,72.39,131.72,71.74,131.7,71.08ZM86.34,41.19H77.75v-2h11l1,1v11h-2V42.61L51.46,78.9,50,77.48ZM64,102.9H50v-20H64Zm16,0H66v-33H80Zm16,0H82v-49H96Z"/></svg>