<svg id="Layer_1" data-name="Layer 1" xmlns="http://www.w3.org/2000/svg" xmlns:xlink="http://www.w3.org/1999/xlink" viewBox="0 0 146.09 146.09"><defs><style>.cls-1{fill:url(#linear-gradient);}.cls-2{fill:url(#linear-gradient-2);}.cls-3{fill:url(#linear-gradient-4);}.cls-4{fill:url(#linear-gradient-6);}.cls-5{fill:url(#linear-gradient-10);}.cls-6{fill:url(#linear-gradient-11);}.cls-7{fill:url(#linear-gradient-12);}.cls-8{fill:url(#linear-gradient-15);}</style><linearGradient id="linear-gradient" x1="3.05" y1="66.23" x2="144.18" y2="66.23" gradientUnits="userSpaceOnUse"><stop offset="0" stop-color="#cb7958"/><stop offset="1" stop-color="#eead8d"/></linearGradient><linearGradient id="linear-gradient-2" x1="3.05" y1="79.18" x2="144.18" y2="79.18" xlink:href="#linear-gradient"/><linearGradient id="linear-gradient-4" x1="3.05" y1="48.21" x2="144.18" y2="48.21" xlink:href="#linear-gradient"/><linearGradient id="linear-gradient-6" x1="3.05" y1="91.96" x2="144.18" y2="91.96" xlink:href="#linear-gradient"/><linearGradient id="linear-gradient-10" x1="3.05" y1="73.04" x2="144.18" y2="73.04" xlink:href="#linear-gradient"/><linearGradient id="linear-gradient-11" x1="3.05" y1="51.78" x2="144.18" y2="51.78" xlink:href="#linear-gradient"/><linearGradient id="linear-gradient-12" x1="3.05" y1="73.04" x2="144.18" y2="73.04" xlink:href="#linear-gradient"/><linearGradient id="linear-gradient-15" x1="3.05" y1="78.99" x2="144.18" y2="78.99" xlink:href="#linear-gradient"/></defs><title>OA Icons</title><polygon class="cls-1" points="56.73 69.12 62.51 63.33 56.73 63.33 56.73 69.12"/><polygon class="cls-2" points="83.2 82.07 88.99 76.28 83.2 76.28 83.2 82.07"/><polygon class="cls-2" points="56.73 82.07 62.51 76.28 56.73 76.28 56.73 82.07"/><rect class="cls-3" x="57.94" y="45.63" width="3.36" height="5.15"/><polygon class="cls-2" points="69.96 82.07 75.75 76.28 69.96 76.28 69.96 82.07"/><rect class="cls-4" x="83.2" y="89.07" width="5.79" height="5.79"/><polygon class="cls-1" points="69.96 69.12 75.75 63.33 69.96 63.33 69.96 69.12"/><polygon class="cls-1" points="83.2 69.12 88.99 63.33 83.2 63.33 83.2 69.12"/><rect class="cls-4" x="69.96" y="89.07" width="5.79" height="5.79"/><path class="cls-5" d="M102.39,22.22h0a58.71,58.71,0,0,0-58.69,0h0a58.69,58.69,0,0,0,0,101.65h0a58.71,58.71,0,0,0,58.69,0h0a58.69,58.69,0,0,0,0-101.65Zm-3.5,81.41H47.72V47.21h8.22V43.63H63.3v3.58H82.41V43.63h7.37v3.58h9.11Z"/><polygon class="cls-6" points="89.78 52.78 82.41 52.78 82.41 49.21 63.3 49.21 63.3 52.78 55.94 52.78 55.94 49.21 49.72 49.21 49.72 54.36 96.89 54.36 96.89 49.21 89.78 49.21 89.78 52.78"/><path class="cls-7" d="M109.57,9.79h0a73,73,0,0,0-73,0h0A73,73,0,0,0,0,73H0A73,73,0,0,0,36.52,136.3h0a73,73,0,0,0,73,0h0A73,73,0,0,0,146.09,73h0A73,73,0,0,0,109.57,9.79Zm-5.18,117.54A62.68,62.68,0,1,1,135.73,73,62.74,62.74,0,0,1,104.39,127.33Z"/><polygon class="cls-4" points="56.73 94.86 62.51 89.07 56.73 89.07 56.73 94.86"/><rect class="cls-3" x="84.41" y="45.63" width="3.36" height="5.15"/><path class="cls-8" d="M49.72,101.63H96.89V56.36H49.72Zm28-4.77H68V87.07h9.79ZM81.2,61.33H91v9.79H81.2Zm0,13H91v9.79H81.2Zm0,12.79H91v9.79H81.2ZM68,61.33h9.79v9.79H68Zm0,13h9.79v9.79H68Zm-13.23-13h9.78v9.79H54.73Zm0,13h9.78v9.79H54.73Zm0,12.79h9.78v9.79H54.73Z"/></svg>