<svg id="Layer_1" data-name="Layer 1" xmlns="http://www.w3.org/2000/svg" xmlns:xlink="http://www.w3.org/1999/xlink" viewBox="0 0 146.09 146.09"><defs><style>.cls-1{fill:url(#linear-gradient);}.cls-2{fill:url(#linear-gradient-2);}.cls-3{fill:url(#linear-gradient-3);}.cls-4{fill:url(#linear-gradient-4);}</style><linearGradient id="linear-gradient" x1="-3.65" y1="73.14" x2="142.26" y2="73.14" gradientUnits="userSpaceOnUse"><stop offset="0" stop-color="#cb7958"/><stop offset="1" stop-color="#eead8d"/></linearGradient><linearGradient id="linear-gradient-2" x1="-3.65" y1="75.71" x2="142.26" y2="75.71" xlink:href="#linear-gradient"/><linearGradient id="linear-gradient-3" x1="-3.65" y1="63.92" x2="142.26" y2="63.92" xlink:href="#linear-gradient"/><linearGradient id="linear-gradient-4" x1="-3.65" y1="73.04" x2="142.26" y2="73.04" xlink:href="#linear-gradient"/></defs><title>OA Icons</title><path class="cls-1" d="M65.67,64.34,53.41,76.61A3.12,3.12,0,1,0,57.82,81L70.09,68.76Z"/><path class="cls-2" d="M93.89,56.15A14.13,14.13,0,0,0,75.22,55l5.24,5.24a6.69,6.69,0,0,1-8.93,9.93L59.24,82.44a3.1,3.1,0,0,0,0,4.41,3.11,3.11,0,0,0,4.41,0l13-13L78,75.29l-13,13a3.12,3.12,0,0,0,4.41,4.42l13-13,1.42,1.41-13,13a3.13,3.13,0,1,0,4.42,4.42L95.77,78.05a14.17,14.17,0,0,0,0-20Z"/><path class="cls-3" d="M60.68,59.35l1.41-1.41L72.42,68.26A4.68,4.68,0,1,0,79,61.63l-6.82-6.82a14.17,14.17,0,0,0-20,0l-1.88,1.88a14.17,14.17,0,0,0,0,20l.47.46a5,5,0,0,1,1.21-2L64.26,62.93Z"/><path class="cls-4" d="M109.57,9.79h0a73,73,0,0,0-73,0h0A73,73,0,0,0,0,73H0A73,73,0,0,0,36.52,136.3h0a73,73,0,0,0,73,0h0A73,73,0,0,0,146.09,73h0A73,73,0,0,0,109.57,9.79Zm-5.18,117.54A62.68,62.68,0,1,1,135.73,73,62.74,62.74,0,0,1,104.39,127.33Z"/><path class="cls-4" d="M102.39,22.22h0a58.71,58.71,0,0,0-58.69,0h0A58.68,58.68,0,0,0,14.36,73h0A58.68,58.68,0,0,0,43.7,123.87h0a58.71,58.71,0,0,0,58.69,0h0A58.68,58.68,0,0,0,131.73,73h0A58.68,58.68,0,0,0,102.39,22.22ZM97.18,79.46,76.72,99.92a5.1,5.1,0,0,1-8.66-4.4,5.16,5.16,0,0,1-.79.07,5.09,5.09,0,0,1-5-5.9,5,5,0,0,1-5.83-5.83A5,5,0,0,1,52,82.44a5,5,0,0,1-1.4-2.63l-1.69-1.69a16.18,16.18,0,0,1,0-22.85l1.88-1.88a16.18,16.18,0,0,1,22.85,0l.15.16A16.12,16.12,0,0,1,95.3,54.74l1.88,1.87A16.18,16.18,0,0,1,97.18,79.46Z"/></svg>