<svg id="Layer_1" data-name="Layer 1" xmlns="http://www.w3.org/2000/svg" xmlns:xlink="http://www.w3.org/1999/xlink" viewBox="0 0 146.09 146.09"><defs><style>.cls-1{fill:url(#linear-gradient);}.cls-2{fill:url(#linear-gradient-2);}.cls-3{fill:url(#linear-gradient-3);}.cls-4{fill:url(#linear-gradient-4);}.cls-5{fill:url(#linear-gradient-5);}.cls-6{fill:url(#linear-gradient-6);}.cls-7{fill:url(#linear-gradient-7);}</style><linearGradient id="linear-gradient" x1="-3.65" y1="91.26" x2="145.41" y2="91.26" gradientUnits="userSpaceOnUse"><stop offset="0" stop-color="#cb7958"/><stop offset="1" stop-color="#eead8d"/></linearGradient><linearGradient id="linear-gradient-2" x1="-3.65" y1="97.26" x2="145.41" y2="97.26" xlink:href="#linear-gradient"/><linearGradient id="linear-gradient-3" x1="-3.65" y1="103.26" x2="145.41" y2="103.26" xlink:href="#linear-gradient"/><linearGradient id="linear-gradient-4" x1="-3.65" y1="66.26" x2="145.41" y2="66.26" xlink:href="#linear-gradient"/><linearGradient id="linear-gradient-5" x1="-3.65" y1="78.97" x2="145.41" y2="78.97" xlink:href="#linear-gradient"/><linearGradient id="linear-gradient-6" x1="-3.65" y1="73.04" x2="145.41" y2="73.04" xlink:href="#linear-gradient"/><linearGradient id="linear-gradient-7" x1="-3.65" y1="73.04" x2="145.41" y2="73.04" xlink:href="#linear-gradient"/></defs><title>OA Icons</title><rect class="cls-1" x="62.41" y="89.26" width="20" height="4"/><rect class="cls-2" x="64.41" y="95.26" width="16" height="4"/><rect class="cls-3" x="66.41" y="101.26" width="12" height="4"/><path class="cls-4" d="M72.41,45.26a20,20,0,0,0-20,20,20.26,20.26,0,0,0,9.52,17.15l.48.29v4.56h4.83L64.42,68.41l2-.3.1.72,2.81,2.11,3.1-3.09,3.09,3.09,2.81-2.11.11-.72,2,.3L77.57,87.26h4.84V82.59l.47-.29a20,20,0,0,0-10.47-37Z"/><polygon class="cls-5" points="75.31 73.58 72.41 70.67 69.5 73.58 66.93 71.65 69.27 87.26 75.54 87.26 77.89 71.65 75.31 73.58"/><path class="cls-6" d="M102.39,22.22h0a58.71,58.71,0,0,0-58.69,0h0a58.69,58.69,0,0,0,0,101.65h0a58.71,58.71,0,0,0,58.69,0h0a58.69,58.69,0,0,0,0-101.65Zm-18,61.48V95.26h-2v6h-2v6h-16v-6h-2v-6h-2V83.81a22.26,22.26,0,0,1-10-18.55,22,22,0,1,1,34,18.44Z"/><path class="cls-7" d="M109.57,9.79h0a73,73,0,0,0-73,0h0A73,73,0,0,0,0,73H0A73,73,0,0,0,36.52,136.3h0a73,73,0,0,0,73,0h0a73,73,0,0,0,36.52-63.25h0A73,73,0,0,0,109.57,9.79Zm-5.18,117.54A62.68,62.68,0,1,1,135.73,73,62.74,62.74,0,0,1,104.39,127.33Z"/></svg>