<svg id="Layer_1" data-name="Layer 1" xmlns="http://www.w3.org/2000/svg" xmlns:xlink="http://www.w3.org/1999/xlink" viewBox="0 0 146.09 146.09"><defs><style>.cls-1{fill:url(#linear-gradient);}.cls-2{fill:url(#linear-gradient-5);}</style><linearGradient id="linear-gradient" x1="-2.22" y1="73.04" x2="150.3" y2="73.04" gradientUnits="userSpaceOnUse"><stop offset="0" stop-color="#cb7958"/><stop offset="1" stop-color="#eead8d"/></linearGradient><linearGradient id="linear-gradient-5" x1="-2.22" y1="73.04" x2="150.3" y2="73.04" xlink:href="#linear-gradient"/></defs><title>OA Icons</title><circle class="cls-1" cx="73.04" cy="73.04" r="6"/><path class="cls-1" d="M73,43a30,30,0,1,0,21.22,8.79A29.84,29.84,0,0,0,73,43Zm0,54A24,24,0,1,1,97,73,24,24,0,0,1,73,97Z"/><path class="cls-1" d="M73,59A14,14,0,1,0,87,73,14,14,0,0,0,73,59Zm0,22a8,8,0,1,1,8-8A8,8,0,0,1,73,81Z"/><path class="cls-1" d="M73,51.05A22,22,0,1,0,95,73,22,22,0,0,0,73,51.05Zm0,38A16,16,0,1,1,89,73,16,16,0,0,1,73,89Z"/><path class="cls-2" d="M102.39,22.22h0a58.71,58.71,0,0,0-58.69,0h0A58.68,58.68,0,0,0,14.36,73h0A58.68,58.68,0,0,0,43.7,123.87h0a58.71,58.71,0,0,0,58.69,0h0A58.68,58.68,0,0,0,131.73,73h0A58.68,58.68,0,0,0,102.39,22.22ZM95.67,95.67A32,32,0,1,1,105.05,73,31.76,31.76,0,0,1,95.67,95.67Z"/><path class="cls-2" d="M109.57,9.79h0a73,73,0,0,0-73,0h0A73,73,0,0,0,0,73H0A73,73,0,0,0,36.52,136.3h0a73,73,0,0,0,73,0h0A73,73,0,0,0,146.09,73h0A73,73,0,0,0,109.57,9.79Zm-5.18,117.54A62.68,62.68,0,1,1,135.73,73,62.74,62.74,0,0,1,104.39,127.33Z"/></svg>