<svg id="Layer_1" data-name="Layer 1" xmlns="http://www.w3.org/2000/svg" xmlns:xlink="http://www.w3.org/1999/xlink" viewBox="0 0 146.09 146.09"><defs><style>.cls-1{fill:url(#linear-gradient);}.cls-2{fill:url(#linear-gradient-2);}.cls-3{fill:url(#linear-gradient-4);}</style><linearGradient id="linear-gradient" x1="-5.57" y1="70.56" x2="147.54" y2="70.56" gradientUnits="userSpaceOnUse"><stop offset="0" stop-color="#cb7958"/><stop offset="1" stop-color="#eead8d"/></linearGradient><linearGradient id="linear-gradient-2" x1="-5.57" y1="91.56" x2="147.54" y2="91.56" xlink:href="#linear-gradient"/><linearGradient id="linear-gradient-4" x1="-5.57" y1="73.04" x2="147.54" y2="73.04" xlink:href="#linear-gradient"/></defs><title>OA Icons</title><path class="cls-1" d="M41.28,70.56a11,11,0,0,0,11,11H73.62v-22H52.28A11,11,0,0,0,41.28,70.56Z"/><polygon class="cls-2" points="53.98 83.56 62.87 99.56 66.82 99.56 60.59 83.56 53.98 83.56"/><polygon class="cls-1" points="75.62 81.56 85.12 81.56 99.28 92.53 99.28 48.6 85.12 59.56 75.62 59.56 75.62 81.56"/><path class="cls-3" d="M102.39,22.22h0a58.71,58.71,0,0,0-58.69,0h0A58.68,58.68,0,0,0,14.36,73h0A58.68,58.68,0,0,0,43.7,123.87h0a58.71,58.71,0,0,0,58.69,0h0A58.68,58.68,0,0,0,131.73,73h0A58.68,58.68,0,0,0,102.39,22.22ZM101.28,96.6l-16.84-13H62.74l7,18h-8l-10-18a13,13,0,0,1,.61-26H84.44l16.84-13Z"/><path class="cls-3" d="M109.57,9.79h0a73,73,0,0,0-73,0h0A73,73,0,0,0,0,73H0A73,73,0,0,0,36.52,136.3h0a73,73,0,0,0,73,0h0A73,73,0,0,0,146.09,73h0A73,73,0,0,0,109.57,9.79Zm-5.18,117.54A62.68,62.68,0,1,1,135.73,73,62.74,62.74,0,0,1,104.39,127.33Z"/></svg>