<svg id="Layer_1" data-name="Layer 1" xmlns="http://www.w3.org/2000/svg" xmlns:xlink="http://www.w3.org/1999/xlink" viewBox="0 0 146.09 146.09"><defs><style>.cls-1{fill:url(#linear-gradient);}.cls-2{fill:url(#linear-gradient-2);}.cls-3{fill:url(#linear-gradient-3);}.cls-4{fill:url(#linear-gradient-4);}</style><linearGradient id="linear-gradient" x1="-3.9" y1="50.95" x2="138.43" y2="50.95" gradientUnits="userSpaceOnUse"><stop offset="0" stop-color="#cb7958"/><stop offset="1" stop-color="#eead8d"/></linearGradient><linearGradient id="linear-gradient-2" x1="-3.9" y1="73.13" x2="138.43" y2="73.13" xlink:href="#linear-gradient"/><linearGradient id="linear-gradient-3" x1="-3.9" y1="89.63" x2="138.43" y2="89.63" gradientTransform="translate(90.04 -38.12) rotate(45)" xlink:href="#linear-gradient"/><linearGradient id="linear-gradient-4" x1="-3.9" y1="73.04" x2="138.43" y2="73.04" xlink:href="#linear-gradient"/></defs><title>OA Icons</title><polygon class="cls-1" points="47.79 47.28 52.73 55.52 56.92 51.33 48.68 46.39 47.79 47.28"/><path class="cls-2" d="M88.53,65.13c5.54,0,8.55-3.33,9-9.91l-7.17,3.37-5-5.12,3.15-7.24c-3.51.21-6.11,1.13-7.76,2.76a8.31,8.31,0,0,0-2.2,6.14v4.41L44.92,93.65l-1.51,5.17L44.69,100,50,98.72,84.12,65.13Z"/><rect class="cls-3" x="87.79" y="77.19" width="6.49" height="24.87" transform="translate(-36.71 90.62) rotate(-45)"/><path class="cls-4" d="M109.57,9.79h0a73,73,0,0,0-73,0h0A73,73,0,0,0,0,73H0A73,73,0,0,0,36.52,136.3h0a73,73,0,0,0,73,0h0A73,73,0,0,0,146.09,73h0A73,73,0,0,0,109.57,9.79Zm-5.18,117.54A62.68,62.68,0,1,1,135.73,73,62.74,62.74,0,0,1,104.39,127.33Z"/><path class="cls-4" d="M102.39,22.22h0a58.71,58.71,0,0,0-58.69,0h0A58.68,58.68,0,0,0,14.36,73h0A58.68,58.68,0,0,0,43.7,123.87h0a58.71,58.71,0,0,0,58.69,0h0A58.68,58.68,0,0,0,131.73,73h0A58.68,58.68,0,0,0,102.39,22.22Zm-4.86,81.32L77.12,83.13l3-3L76,76,51,100.53l-6.86,1.7-3-2.79,2-6.83.18-.18L67.68,67.7,55.53,55.54l-3.2,3.2L45.27,47l3.1-3.1,11.77,7.06-3.2,3.2L69.09,66.27l7.44-7.55V55.13a10.24,10.24,0,0,1,2.79-7.56c2.27-2.24,5.87-3.38,10.71-3.38h1.52L87.71,53l3,3.13,8.78-4.12v1.58c0,11.16-6,13.5-11,13.5H84.94l-7.56,7.43,4.15,4.15,3-3,20.41,20.42Z"/></svg>