<svg id="Layer_1" data-name="Layer 1" xmlns="http://www.w3.org/2000/svg" xmlns:xlink="http://www.w3.org/1999/xlink" viewBox="0 0 146.09 146.09"><defs><style>.cls-1{fill:url(#linear-gradient);}.cls-2{fill:url(#linear-gradient-2);}.cls-3{fill:url(#linear-gradient-5);}</style><linearGradient id="linear-gradient" x1="-2.22" y1="74.05" x2="148.51" y2="74.05" gradientUnits="userSpaceOnUse"><stop offset="0" stop-color="#cb7958"/><stop offset="1" stop-color="#eead8d"/></linearGradient><linearGradient id="linear-gradient-2" x1="-2.22" y1="61.09" x2="148.51" y2="61.09" xlink:href="#linear-gradient"/><linearGradient id="linear-gradient-5" x1="-2.22" y1="73.04" x2="148.51" y2="73.04" xlink:href="#linear-gradient"/></defs><title>OA Icons</title><path class="cls-1" d="M93.69,78.3a9.51,9.51,0,0,0,9.45-8.51H84.24A9.51,9.51,0,0,0,93.69,78.3Z"/><polygon class="cls-2" points="43.73 67.79 61.08 67.79 52.4 54.39 43.73 67.79"/><path class="cls-1" d="M52.4,78.3a9.51,9.51,0,0,0,9.45-8.51H43A9.51,9.51,0,0,0,52.4,78.3Z"/><polygon class="cls-2" points="85.02 67.79 102.36 67.79 93.69 54.39 85.02 67.79"/><path class="cls-3" d="M109.57,9.79h0a73,73,0,0,0-73,0h0A73,73,0,0,0,0,73H0A73,73,0,0,0,36.52,136.3h0a73,73,0,0,0,73,0h0A73,73,0,0,0,146.09,73h0A73,73,0,0,0,109.57,9.79Zm-5.18,117.54A62.68,62.68,0,1,1,135.73,73,62.74,62.74,0,0,1,104.39,127.33Z"/><path class="cls-3" d="M102.39,22.22h0a58.71,58.71,0,0,0-58.69,0h0A58.68,58.68,0,0,0,14.36,73h0A58.68,58.68,0,0,0,43.7,123.87h0a58.71,58.71,0,0,0,58.69,0h0A58.68,58.68,0,0,0,131.73,73h0A58.68,58.68,0,0,0,102.39,22.22Zm2.81,46.57a11.51,11.51,0,0,1-23,0V68.5L92.69,52.25h-19v48.29h11v2h-24v-2h11V52.25H53.4L63.91,68.5v.29a11.51,11.51,0,0,1-23,0V68.5L51.4,52.25H48.77v-2H71.66V43.54h2v6.71h24v2h-3L105.2,68.5Z"/></svg>