<svg id="Layer_1" data-name="Layer 1" xmlns="http://www.w3.org/2000/svg" xmlns:xlink="http://www.w3.org/1999/xlink" viewBox="0 0 146.09 146.09"><defs><style>.cls-1{fill:url(#linear-gradient);}.cls-2{fill:url(#linear-gradient-2);}.cls-3{fill:url(#linear-gradient-3);}.cls-4{fill:url(#linear-gradient-4);}.cls-5{fill:url(#linear-gradient-5);}.cls-6{fill:url(#linear-gradient-6);}.cls-7{fill:url(#linear-gradient-7);}.cls-8{fill:url(#linear-gradient-9);}</style><linearGradient id="linear-gradient" x1="-0.3" y1="85.97" x2="143.94" y2="85.97" gradientUnits="userSpaceOnUse"><stop offset="0" stop-color="#cb7958"/><stop offset="1" stop-color="#eead8d"/></linearGradient><linearGradient id="linear-gradient-2" x1="-0.3" y1="88.89" x2="143.94" y2="88.89" xlink:href="#linear-gradient"/><linearGradient id="linear-gradient-3" x1="-0.3" y1="75.39" x2="143.94" y2="75.39" xlink:href="#linear-gradient"/><linearGradient id="linear-gradient-4" x1="-0.3" y1="71.85" x2="143.94" y2="71.85" xlink:href="#linear-gradient"/><linearGradient id="linear-gradient-5" x1="-0.3" y1="52.06" x2="143.94" y2="52.06" xlink:href="#linear-gradient"/><linearGradient id="linear-gradient-6" x1="-0.3" y1="75.45" x2="143.94" y2="75.45" xlink:href="#linear-gradient"/><linearGradient id="linear-gradient-7" x1="-0.3" y1="73.04" x2="143.94" y2="73.04" xlink:href="#linear-gradient"/><linearGradient id="linear-gradient-9" x1="-0.3" y1="59.63" x2="143.94" y2="59.63" xlink:href="#linear-gradient"/></defs><title>OA Icons</title><polygon class="cls-1" points="79.66 76.67 90.64 101.91 93.58 98.97 86.89 70.02 79.66 76.67"/><path class="cls-2" d="M62.85,92.13l1.44,5.92a26.52,26.52,0,0,0,21.8-1.58l-8-18.37Z"/><path class="cls-3" d="M95.06,62.51l-6.48,5.95,5.07,21.9a26.59,26.59,0,0,0,3.19-29.94A24.48,24.48,0,0,1,95.06,62.51Z"/><path class="cls-4" d="M54.12,83.41l14-15.26L50.08,60.3A26.5,26.5,0,0,0,48.37,82Z"/><path class="cls-5" d="M83.44,51.5a26.46,26.46,0,0,1,2.3-2A26.62,26.62,0,0,0,56.29,52.7l21.48,5Z"/><path class="cls-6" d="M99.6,46.65c-1.42-1.43-5.83.28-8.46,1.66l-.9.55a24.91,24.91,0,0,0-5.36,4L54.79,85.63,44.45,83.12l-2.57,2.56,12.66,6.06,5.62,13.05,3-3L60.62,91.46l33.06-30.4a48.14,48.14,0,0,0,3.86-5s.15-.27.37-.7c.46-.85,1.23-2.69,1.23-2.71C100.29,49.7,100.46,47.51,99.6,46.65Z"/><path class="cls-7" d="M102.39,22.22h0a58.71,58.71,0,0,0-58.69,0h0a58.69,58.69,0,0,0,0,101.65h0a58.71,58.71,0,0,0,58.69,0h0a58.69,58.69,0,0,0,0-101.65ZM102,73.07A28.48,28.48,0,0,1,94.2,92.74l1.58,6.86L90,105.41l-3.08-7.1a28.64,28.64,0,0,1-22,2.06l.5,2.06-5.86,5.86L53,93.22l-14.53-7,5.36-5.35,2.23.54a28.62,28.62,0,0,1,2.18-22l-7.39-3.22,5.81-5.81,7.24,1.68a28.59,28.59,0,0,1,33.64-4c.2-.13.39-.27.59-.39h0l1.08-.69c.88-.52,8.67-5,11.81-1.86,1.51,1.51,1.5,4.25,0,8.14,0,.1-.82,2-1.32,2.91-.26.5-.45.82-.45.82s-.49.72-1.09,1.56A28.5,28.5,0,0,1,102,73.07Z"/><path class="cls-7" d="M109.57,9.79h0a73,73,0,0,0-73,0h0A73,73,0,0,0,0,73H0A73,73,0,0,0,36.52,136.3h0a73,73,0,0,0,73,0h0A73,73,0,0,0,146.09,73h0A73,73,0,0,0,109.57,9.79Zm-5.18,117.54A62.68,62.68,0,1,1,135.73,73,62.74,62.74,0,0,1,104.39,127.33Z"/><polygon class="cls-8" points="76.22 59.36 47.29 52.67 44.34 55.62 69.57 66.59 76.22 59.36"/></svg>