<svg id="Layer_1" data-name="Layer 1" xmlns="http://www.w3.org/2000/svg" xmlns:xlink="http://www.w3.org/1999/xlink" viewBox="0 0 146.09 146.09"><defs><style>.cls-1{fill:url(#linear-gradient);}.cls-2{fill:url(#linear-gradient-2);}.cls-3{fill:url(#linear-gradient-3);}.cls-4{fill:url(#linear-gradient-4);}.cls-5{fill:url(#linear-gradient-5);}</style><linearGradient id="linear-gradient" x1="0.26" y1="71.97" x2="150.96" y2="74.2" gradientUnits="userSpaceOnUse"><stop offset="0" stop-color="#cb7958"/><stop offset="1" stop-color="#eead8d"/></linearGradient><linearGradient id="linear-gradient-2" x1="-0.06" y1="93.58" x2="150.64" y2="95.81" xlink:href="#linear-gradient"/><linearGradient id="linear-gradient-3" x1="0.15" y1="79.56" x2="150.84" y2="81.79" xlink:href="#linear-gradient"/><linearGradient id="linear-gradient-4" x1="0.26" y1="71.97" x2="150.96" y2="74.2" xlink:href="#linear-gradient"/><linearGradient id="linear-gradient-5" x1="0.03" y1="87.32" x2="150.73" y2="89.55" xlink:href="#linear-gradient"/></defs><title>OA Icons</title><path class="cls-1" d="M109.57,9.79A73,73,0,1,0,146.09,73,73,73,0,0,0,109.57,9.79Zm-5.18,117.54a62.68,62.68,0,1,1,31.34-54.28A62.74,62.74,0,0,1,104.39,127.33Z"/><rect class="cls-2" x="84.04" y="86.9" width="10" height="16"/><rect class="cls-3" x="52.04" y="57.9" width="10" height="45"/><path class="cls-4" d="M102.39,22.22A58.69,58.69,0,0,0,14.36,73h0a58.69,58.69,0,0,0,117.37,0h0A58.68,58.68,0,0,0,102.39,22.22ZM64,104.9H50v-49H64Zm16,0H66v-33H80Zm16,0H82v-20H96Zm0-25-1,1H84v-2h8.59L56.34,42.61l1.41-1.42L94,77.48V68.9h2Z"/><rect class="cls-5" x="68.04" y="73.9" width="10" height="29"/></svg>