<svg id="Layer_1" data-name="Layer 1" xmlns="http://www.w3.org/2000/svg" xmlns:xlink="http://www.w3.org/1999/xlink" viewBox="0 0 146.09 146.09"><defs><style>.cls-1{fill:url(#linear-gradient);}.cls-2{fill:url(#linear-gradient-2);}</style><linearGradient id="linear-gradient" x1="-0.3" y1="73.05" x2="145.09" y2="73.05" gradientUnits="userSpaceOnUse"><stop offset="0" stop-color="#cb7958"/><stop offset="1" stop-color="#eead8d"/></linearGradient><linearGradient id="linear-gradient-2" x1="-0.3" y1="78.63" x2="145.09" y2="78.63" xlink:href="#linear-gradient"/></defs><title>OA Icons</title><path class="cls-1" d="M102.39,22.22h0a58.71,58.71,0,0,0-58.69,0h0A58.68,58.68,0,0,0,14.36,73h0A58.68,58.68,0,0,0,43.7,123.87h0a58.71,58.71,0,0,0,58.69,0h0a58.68,58.68,0,0,0,29.34-50.82h0A58.68,58.68,0,0,0,102.39,22.22ZM95.3,92.63h-54v-28h54Zm10-10h-9v-2h7v-24h-50v7h-2v-9h54Z"/><path class="cls-2" d="M85.37,70.63H52.23c-.28,1.84-1.46,3.67-4.93,4v8.08c3.47.29,4.65,2.12,4.93,4H85.37a4.42,4.42,0,0,1,3.93-3.92V74.55A4.42,4.42,0,0,1,85.37,70.63Zm-17.07,12a4,4,0,1,1,4-4A4,4,0,0,1,68.3,82.63Z"/><path class="cls-2" d="M93.3,66.63h-50v24h50Zm-2,18h-1a2.69,2.69,0,0,0-3,3v1h-37v-1c0-1.56-.48-3-4-3h-1v-12h1c3.52,0,4-1.44,4-3v-1h37v1a2.69,2.69,0,0,0,3,3h1Z"/><path class="cls-1" d="M109.57,9.79h0a73,73,0,0,0-73,0h0A73,73,0,0,0,0,73H0A73,73,0,0,0,36.52,136.3h0a73,73,0,0,0,73,0h0A73,73,0,0,0,146.09,73h0A73,73,0,0,0,109.57,9.79Zm-5.18,117.54a62.68,62.68,0,1,1,31.34-54.28A62.74,62.74,0,0,1,104.39,127.33Z"/></svg>