<svg id="Layer_1" data-name="Layer 1" xmlns="http://www.w3.org/2000/svg" xmlns:xlink="http://www.w3.org/1999/xlink" viewBox="0 0 146.09 146.09"><defs><style>.cls-1{fill:url(#linear-gradient);}.cls-2{fill:url(#linear-gradient-2);}.cls-3{fill:url(#linear-gradient-3);}.cls-4{fill:url(#linear-gradient-5);}</style><linearGradient id="linear-gradient" x1="-3.9" y1="90.86" x2="150.48" y2="90.86" gradientTransform="translate(90.92 -37.77) rotate(45)" gradientUnits="userSpaceOnUse"><stop offset="0" stop-color="#cb7958"/><stop offset="1" stop-color="#eead8d"/></linearGradient><linearGradient id="linear-gradient-2" x1="-3.9" y1="62.09" x2="150.48" y2="62.09" gradientTransform="matrix(1, 0, 0, 1, 0, 0)" xlink:href="#linear-gradient"/><linearGradient id="linear-gradient-3" x1="-3.9" y1="73.04" x2="150.48" y2="73.04" gradientTransform="matrix(1, 0, 0, 1, 0, 0)" xlink:href="#linear-gradient"/><linearGradient id="linear-gradient-5" x1="-3.9" y1="61.83" x2="150.48" y2="61.83" gradientTransform="matrix(1, 0, 0, 1, 0, 0)" xlink:href="#linear-gradient"/></defs><title>OA Icons</title><rect class="cls-1" x="87.86" y="78.63" width="6.38" height="24.48" transform="translate(-37.58 90.99) rotate(-45)"/><path class="cls-2" d="M62,55.93a18.43,18.43,0,0,0-13.49,6.15,17.85,17.85,0,0,0,27,0A18.47,18.47,0,0,0,62,55.93Zm0,9.58a3.43,3.43,0,1,1,3.42-3.42A3.42,3.42,0,0,1,62,65.51Z"/><path class="cls-3" d="M109.57,9.79h0a73,73,0,0,0-73,0h0A73,73,0,0,0,0,73H0A73,73,0,0,0,36.52,136.3h0a73,73,0,0,0,73,0h0A73,73,0,0,0,146.09,73h0A73,73,0,0,0,109.57,9.79Zm-5.18,117.54A62.68,62.68,0,1,1,135.73,73,62.74,62.74,0,0,1,104.39,127.33Z"/><path class="cls-3" d="M102.39,22.22h0a58.71,58.71,0,0,0-58.69,0h0A58.68,58.68,0,0,0,14.36,73h0A58.68,58.68,0,0,0,43.7,123.87h0a58.71,58.71,0,0,0,58.69,0h0A58.68,58.68,0,0,0,131.73,73h0A58.68,58.68,0,0,0,102.39,22.22Zm-4.94,82.34L77.35,84.47l3-3L75.89,77.1a20.75,20.75,0,1,1,1.39-1.39l4.42,4.41,3-3,20.09,20.09Z"/><path class="cls-4" d="M62,43.13a18.7,18.7,0,1,0,18.69,18.7A18.72,18.72,0,0,0,62,43.13Zm0,27.08a20.18,20.18,0,0,1-15.56-7.54L46,62.09l.43-.59a19.81,19.81,0,0,1,31.11,0l.43.59-.43.58A20.15,20.15,0,0,1,62,70.21Z"/></svg>